<?xml version="1.0"?>
<svg xmlns:rdf="http://www.w3.org/1999/02/22-rdf-syntax-ns#" xmlns="http://www.w3.org/2000/svg" xmlns:cc="http://creativecommons.org/ns#" xmlns:dc="http://purl.org/dc/elements/1.1/" xmlns:svg="http://www.w3.org/2000/svg" id="svg2" viewBox="0 0 491.58 491.58" version="1.1">
    <g id="layer1" transform="translate(591.29 -501.54)">
        <text id="text3590" font-size="40px" xml:space="preserve" transform="translate(138.79 383.76)" y="188.58051" x="-458.60925" font-family="Bitstream Vera Sans" fill="#000000">
      <tspan id="tspan3596" y="188.58051" x="-458.60925"/>
    </text>
        <g id="g3678" stroke="#000">
            <path id="path2814" stroke-width="13.064" transform="matrix(1.2685 0 0 1.0393 12.386 561.94)" fill="#fff" d="m-94.286 178.39c0 126.63-84.107 229.29-187.86 229.29-103.74 0-187.85-102.66-187.85-229.29s84.107-229.29 187.86-229.29 187.86 102.65 187.86 229.29z"/>
            <path id="path4308" stroke-width="1.0967px" fill-rule="evenodd" d="m-260.18 937.46c-1.1772-62.536-0.6434-125.21-2.9083-187.66-6.3662-32.283-16.743-64.084-16.651-97.321 0.037-13.406-4.926-33.571 4.8514-39.88 11.788-7.6068 9.0324-21.818-6.4753-10.509-15.34-0.31998-21.645-31.783-10.957-41.335 5.5311-11.767-9.8254-33.87 11.249-34.5 13.021 2.3586 28.477 1.6171 37.949 12.521 12.063 7.3029 17.172 26.871 8.846 39.779-13.156 9.9399 2.3447 22.24 14.943 25.933 12.529 3.673 17.459 23.583 26.393 35.146 10.314 16.032 13.456 34.11 14.433 51.597 1.0248 18.34-2.3819 35.762-12.282 52.973-6.5348 6.8429-13.07 13.686-19.604 20.529-3.9774 49.223-8.0843 98.506-16.988 147.13-1.3443 8.5312-2.6886 17.062-4.0329 25.594 11.765 15.737-40.61 50.713-54.448 39.142-12.113-2.5112-7.2636-7.9866-0.30062-15.002 8.5565-8.6204 21.593-20.313 25.983-24.141z"/>
            <path id="path4310" stroke-width="1.0967px" fill-rule="evenodd" d="m-358.25 978.9c-18.712-8.7107-7.134-40.115-6.6124-58.705 1.8319-45.895 0.7554-91.974 1.5458-137.95-0.527-22.897 0.746-45.804 7.3754-67.884 2.7744-16.586 12.29-29.96 23.604-41.812 13.427-14.062-8.2162-35.482 3.5226-51.845 6.5326-10.704 24.611-0.0142 24.063-19.179 12.856-15.346-16.986-29.338-2.1893-44.335 12.708-11.341-19.029-18.84-27.631-8.7412-17.832 6.465-30.432 19.016-40.66 34.498-9.0966 17.462 7.0291 43.152-9.5784 57.11-12.215 5.8683-38.456 13.763-27.494 31.603-0.5702 17.324-28.496 25.701-32.435 41.07-13.588 2.1629-32.443-1.4578-35.531 17.147 1.1467 10.29 23.658-11.927 24.616 0.30113 13.262-3.0154 16.228-17.067 28.284-21.32 13.677-7.3588 27.353-14.718 41.03-22.076 7.6458 23.678-25.896 28.974-41.044 37.098-13.859 7.8364-27.009 18.299-36.998 30.812-13.349 22.407-28.31 44.052-37.184 68.798-10.413 22.667-18.195 46.778-28.865 69.118 13.604 9.1983 23.711 28.022 36.344 41.647 18.191 9.5446 19.489 19.576 39.239 13.129 19.227-2.4215 41.782-12.159 59.435-1.7428 2.7608 7.0228-4.6395 46.023 7.0311 33.295 5.2822 0.56629-0.76636 1.8029 14.19 0.28778 4.1595 0.47426 11.782-0.17643 15.943-0.32998z"/>
        </g>
    </g>
    <metadata>
        <rdf:RDF>
            <cc:Work>
                <dc:format>image/svg+xml</dc:format>
                <dc:type rdf:resource="http://purl.org/dc/dcmitype/StillImage"/>
                <cc:license rdf:resource="http://creativecommons.org/licenses/publicdomain/"/>
                <dc:publisher>
                    <cc:Agent rdf:about="http://openclipart.org/">
                        <dc:title>Openclipart</dc:title>
                    </cc:Agent>
                </dc:publisher>
                <dc:title>Happy valentine remix</dc:title>
                <dc:date>2010-05-26T06:52:39</dc:date>
                <dc:description>A young couple kissing inside a rounded border.</dc:description>
                <dc:source>http://openclipart.org/detail/62983/happy-valentine-remix-by-laobc</dc:source>
                <dc:creator>
                    <cc:Agent>
                        <dc:title>laobc</dc:title>
                    </cc:Agent>
                </dc:creator>
                <dc:subject>
                    <rdf:Bag>
                        <rdf:li>black and white</rdf:li>
                        <rdf:li>clip art</rdf:li>
                        <rdf:li>clipart</rdf:li>
                        <rdf:li>kiss</rdf:li>
                        <rdf:li>love</rdf:li>
                        <rdf:li>party</rdf:li>
                        <rdf:li>valentine</rdf:li>
                    </rdf:Bag>
                </dc:subject>
            </cc:Work>
            <cc:License rdf:about="http://creativecommons.org/licenses/publicdomain/">
                <cc:permits rdf:resource="http://creativecommons.org/ns#Reproduction"/>
                <cc:permits rdf:resource="http://creativecommons.org/ns#Distribution"/>
                <cc:permits rdf:resource="http://creativecommons.org/ns#DerivativeWorks"/>
            </cc:License>
        </rdf:RDF>
    </metadata>
</svg>
