<?xml version="1.0" encoding="UTF-8" standalone="no"?>
<svg
   xmlns:dc="http://purl.org/dc/elements/1.1/"
   xmlns:cc="http://creativecommons.org/ns#"
   xmlns:rdf="http://www.w3.org/1999/02/22-rdf-syntax-ns#"
   xmlns:svg="http://www.w3.org/2000/svg"
   xmlns="http://www.w3.org/2000/svg"
   version="1.1"
   id="svg11574"
   viewBox="0 0 1324.5372 1315.1205"
   height="371.15622mm"
   width="373.81384mm">
  <defs
     id="defs11576" />
  <metadata
     id="metadata11579">
    <rdf:RDF>
      <cc:Work
         rdf:about="">
        <dc:format>image/svg+xml</dc:format>
        <dc:type
           rdf:resource="http://purl.org/dc/dcmitype/StillImage" />
        <dc:title></dc:title>
      </cc:Work>
    </rdf:RDF>
  </metadata>
  <g
     transform="translate(1900.6829,399.42775)"
     id="layer1">
    <path
       id="path12133"
       d="m -1254.1465,-399.42773 c -32.5876,0.007 -63.743,1.78846 -87.5215,5.4375 -57.3002,8.79322 -105.643,20.68305 -138.4511,34.05078 -7.81,3.18221 -17.3939,6.90945 -21.2989,8.2832 -13.611,4.78828 -42.6361,19.54941 -47.4297,24.12109 -2.6561,2.53282 -16.2337,10.14105 -30.1738,16.90821 -95.9157,46.56087 -202.0115,161.77954 -258.9844,281.255856 -28.0354,58.792013 -51.3682,139.420624 -59.4863,205.556644 -6.6889,54.49353 -2.423,156.37796 8.711,208.02539 17.5476,81.39849 49.4732,160.6575 90.0117,223.46679 32.3004,50.04577 89.0984,115.39009 130.7715,150.44532 14.8163,12.46366 31.2015,26.3344 36.4101,30.82422 5.2086,4.48983 15.8599,11.45486 23.6699,15.47656 7.81,4.02173 18.9204,10.68079 24.6895,14.79883 25.0357,17.87049 83.5689,45.88702 127.9609,61.24804 43.5358,15.06466 89.6746,25.18496 156.1992,34.26172 20.2254,2.75959 138.5207,-0.9007 161.5254,-4.99804 47.9431,-8.53904 84.8376,-17.828 117.3145,-29.53516 44.20918,-15.93651 96.9957,-39.73482 98.57225,-44.44141 0.69048,-2.06165 3.33177,-3.74804 5.87109,-3.74804 2.53896,0 15.11543,-7.15485 27.94727,-15.89844 12.83218,-8.74359 24.37842,-15.89649 25.6582,-15.89649 2.3682,0 34.22379,-25.22728 44.40625,-35.16601 3.0775,-3.00362 12.50893,-11.0256 20.95899,-17.82617 21.78068,-17.52905 41.4447,-37.08045 63.95312,-63.58985 10.72349,-12.62964 20.70413,-23.49296 22.18164,-24.14062 1.47715,-0.64769 2.6875,-3.41619 2.6875,-6.15235 0,-2.73616 3.19461,-6.95985 7.09961,-9.38672 3.905,-2.42687 7.09961,-6.33929 7.09961,-8.69335 0,-2.35402 6.97876,-14.29234 15.50977,-26.5293 18.08583,-25.94346 57.87216,-105.32168 61.21093,-122.12305 1.26274,-6.35523 3.61718,-12.36806 5.23243,-13.36133 1.61489,-0.99331 2.03764,-4.13791 0.9375,-6.99023 -1.09979,-2.85228 -0.58095,-5.1875 1.15429,-5.1875 1.73524,0 5.04193,-6.75583 7.34766,-15.01367 44.22129,-158.35262 32.14927,-329.87422 -32.95313,-468.216799 -6.75956,-14.364183 -12.28906,-26.880461 -12.28906,-27.814453 0,-0.933993 -4.79289,-8.631276 -10.65039,-17.103516 -5.8575,-8.472239 -10.65039,-16.19652 -10.65039,-17.166016 0,-3.412191 -41.72436,-64.276576 -54.83203,-79.984376 -50.90914,-61.00861 -123.76313,-121.62082 -167.04297,-138.97461 -27.52955,-11.03847 -28.74396,-11.60696 -51.47461,-24.15234 -8.78626,-4.84928 -27.15672,-13.24176 -40.82422,-18.64844 -13.66751,-5.40668 -29.20381,-12.04697 -34.52341,-14.75586 -15.9172,-8.10554 -72.8109,-22.81115 -116.3535,-30.07617 -33.9901,-5.67119 -78.254,-8.59856 -120.1524,-8.58984 z m 2.1973,10.80859 c 3.126,0.004 6.2647,0.0235 9.418,0.0606 66.6345,0.78212 97.1489,4.65513 166.8085,21.16797 39.5889,9.38457 138.17931,50.87192 157.39262,66.23242 2.44063,1.95118 4.4375,2.4568 4.4375,1.12304 0,-1.33376 5.99062,0.69058 13.3125,4.49805 7.32187,3.80751 22.6505,11.40063 34.06446,16.87305 46.90119,22.48644 149.12982,124.4284 171.43554,170.95703 1.39693,2.91453 6.38058,10.387883 11.07617,16.607421 4.69559,6.219537 8.8492,13.425628 9.23047,16.011718 0.38163,2.586124 4.24695,9.665465 8.58789,15.732422 4.34129,6.066957 7.89258,12.22964 7.89258,13.695313 0,2.234756 17.8746,40.9522078 28.82422,62.435547 1.71962,3.373931 3.125,8.982835 3.125,12.46289 0,3.480091 2.48782,9.85939 5.52734,14.177735 3.03951,4.31838 4.70707,7.851562 3.70703,7.851562 -1.00038,0 0.49523,6.528854 3.32422,14.507813 2.82864,7.97896 4.36493,15.762984 3.41211,17.296875 -0.95247,1.533891 0.64635,7.325571 3.55274,12.871093 2.90638,5.545521 5.30469,13.555501 5.30469,17.800781 0.0121,4.24533 1.683,12.06612 3.71289,17.37891 6.106,15.98222 7.87354,41.81048 8.31445,121.51367 0.32802,59.27805 -1.02882,84.48613 -6.18164,114.81445 -3.6313,21.37322 -8.02559,40.37093 -9.76367,42.2168 -1.73808,1.84587 -3.16016,6.03654 -3.16016,9.3125 0,13.46044 -29.14137,93.99493 -45.91016,126.875 -14.23976,27.92159 -29.99372,54.97789 -32.57031,55.93555 -1.74234,0.6477 -3.16797,2.65013 -3.16797,4.45117 0,4.77587 -22.49983,36.12991 -49.19726,68.55859 -12.79704,15.54416 -29.94917,34.96734 -38.11524,43.16211 l -14.84765,14.90039 -9.26368,-13.93164 c -5.09532,-7.66182 -13.25973,-16.53552 -18.14453,-19.7207 -4.88515,-3.18521 -8.88281,-8.31098 -8.88281,-11.39063 0,-4.13846 1.03876,-4.56594 3.98242,-1.63672 2.94331,2.92923 9.19595,1.16837 23.96289,-6.75 10.98867,-5.89255 21.25707,-12.92379 22.81836,-15.62304 1.56129,-2.69924 5.95558,-4.90625 9.76367,-4.90625 3.80808,0 6.92383,-1.74226 6.92383,-3.8711 0,-2.12884 3.5932,-8.86456 7.98633,-14.96875 4.39312,-6.10416 10.98608,-17.47847 14.65039,-25.27539 8.15081,-17.34421 12.01111,-65.65974 6.23242,-78.00781 -4.77617,-10.20612 -8.78375,-20.08429 -14.95117,-36.85156 -12.00823,-32.6479 -53.03799,-74.28373 -81.89062,-83.09961 -4.59441,-1.40385 -9.94985,-3.66043 -11.90235,-5.01563 -1.9525,-1.35524 -9.94,-4.46974 -17.75,-6.92187 -25.30796,-7.94596 -29.84944,-14.06968 -32.08593,-43.27539 -1.09376,-14.27869 -4.41857,-34.70402 -7.39063,-45.39063 -10.12318,-36.39923 -27.28424,-86.52264 -33.84961,-98.86523 -3.60183,-6.77182 -6.54883,-13.48501 -6.54883,-14.91797 0,-1.43292 -3.85768,-10.99605 -8.57031,-21.25 -19.84521,-43.17804 -22.63731,-54.70715 -28.89844,-119.326172 -3.85388,-39.776522 -14.71833,-95.681845 -19.5332,-100.507813 -1.84174,-1.845869 -3.33042,-5.82035 -3.29492,-8.832031 0.0955,-9.780528 -26.34404,-57.642614 -39.10354,-70.787114 -6.8337,-7.04006 -17.2186,-19.73791 -23.0762,-28.21679 -16.3416,-23.65476 -65.3288,-61.49294 -85.1992,-65.8086 -1.9525,-0.42404 -13.1346,-3.32693 -24.8496,-6.45117 -11.715,-3.1242 -27.69,-5.37026 -35.5,-4.99219 -13.7271,0.66448 -19.8897,2.39899 -42.6015,12.00196 -5.8575,2.47665 -22.6298,4.78374 -37.2735,5.125 -33.9764,0.79173 -42.7244,1.65286 -51.4765,5.07226 -3.905,1.52562 -18.8784,7.36191 -33.2754,12.97071 -84.4517,32.90102 -167.2202,119.41794 -190.5078,199.134762 -7.4529,25.512987 -7.7926,65.272384 -0.7715,90.150388 12.272,43.4819 10.3112,70.88412 -5.7383,80.19532 -5.1472,2.98609 -27.4852,36.78263 -32.2227,48.75195 -7.3186,18.49165 -9.5678,52.46035 -4.2734,64.53711 4.0794,9.30431 -1.648,15.82919 -23.8359,27.15625 -24.3484,12.43007 -28.232,20.58168 -25.7129,53.96093 2.4232,32.10597 4.174,29.46289 -22.6856,34.26172 -21.8237,3.89908 -46.1504,10.99151 -46.1504,13.45508 0,1.4832 -1.71,2.69727 -3.7988,2.69727 -2.0888,0 -10.754,4.7628 -19.2559,10.58398 -31.186,21.35228 -50.4747,73.40565 -40.9511,110.51172 6.5356,25.46434 16.9713,44.72186 31.2597,57.68555 l 12.0977,10.97656 -8.752,17.13867 -8.7519,17.13672 -7.5918,-13.98242 c -4.1752,-7.69061 -13.8933,-22.72745 -21.5957,-33.41406 -23.3746,-32.42993 -55.0954,-100.1014 -69.5488,-148.375 -21.5542,-71.98752 -30.0212,-126.13636 -30.3848,-194.30274 -0.7153,-134.13365 35.3204,-257.9509124 105.375,-362.0625 11.5904,-17.22519 22.6705,-33.78357 24.623,-36.79687 1.9525,-3.01331 5.2388,-7.10597 7.3028,-9.09375 2.0636,-1.98779 7.934,-9.17795 13.0449,-15.97852 36.5033,-48.57045 128.6732,-123.77376 182.8867,-149.22265 12.201,-5.7274 23.0785,-11.85441 24.1719,-13.61524 1.0937,-1.76088 4.955,-3.20117 8.582,-3.20117 3.6271,0 7.1282,-1.49743 7.7793,-3.32617 0.6507,-1.82877 5.7133,-4.13345 11.252,-5.1211 5.5387,-0.98769 11.9298,-3.25699 14.2011,-5.04492 4.6984,-3.69838 29.8072,-12.2415 37.9161,-12.90039 2.9628,-0.2408 6.9566,-1.38443 8.875,-2.54101 4.5149,-2.72232 49.5366,-15.53715 65.6132,-18.67579 36.4097,-7.10837 80.104,-10.79512 126.9942,-10.74023 z m 38.1562,176.56445 c 3.4747,-0.12401 6.1442,0.47827 7.0977,2.01367 1.1673,1.8794 5.6226,3.60274 9.9004,3.82813 6.0719,0.31993 6.4052,0.76547 1.5215,2.0332 -3.441,0.89319 -5.2768,3.20022 -4.0801,5.12696 1.1964,1.92673 -1.1629,4.37196 -5.2422,5.43359 -4.0797,1.06163 -6.5423,3.33843 -5.4727,5.06055 1.0692,1.72211 0.1465,3.13086 -2.0527,3.13086 -2.2663,0 -3.1012,2.81494 -1.9258,6.5 1.4413,4.52 -0.3788,7.64021 -5.9746,10.24414 -7.509,3.49429 -7.2731,3.73294 3.541,3.56054 13.7672,-0.21949 19.5394,3.91483 9.2149,6.60157 -5.5207,1.43653 -6.883,4.00385 -5.6192,10.58203 1.0391,5.40884 -0.8409,11.48227 -4.9824,16.09765 -6.5842,7.33783 -6.5624,7.38705 2.2246,4.99219 8.6908,-2.36861 8.7281,-2.29834 1.7754,3.42773 -6.9442,5.71906 -6.9047,5.79014 1.7754,3.16211 4.8813,-1.47786 10.8719,-2.33144 13.3125,-1.89648 2.4406,0.43491 10.019,1.08125 16.8418,1.4375 l 12.4043,0.64844 -7.9668,6.05664 -7.9668,6.05859 10.6504,-1.79883 c 5.8575,-0.98914 19.4351,-4.92438 30.1738,-8.74609 18.0656,-6.4292 18.296,-5.20207 1.1953,6.37695 -3.9278,2.65947 -1.0538,2.30869 7.2266,-0.88281 18.3077,-7.05617 20.3306,-6.64664 7.793,1.57813 l -10.4121,6.83007 15.0195,-0.20703 c 8.2609,-0.11344 16.014,0.78353 17.2285,1.99219 1.2145,1.20867 6.0026,-0.27858 10.6406,-3.30273 4.6871,-3.05627 11.5144,-4.52474 15.3711,-3.30665 3.926,1.24008 6.9375,0.5557 6.9375,-1.57812 0,-2.07398 1.5983,-3.77148 3.5508,-3.77148 1.9525,0 3.5685,2.78135 3.6035,6.18164 0.046,5.28342 0.5553,5.41146 3.4961,0.88281 2.9409,-4.52865 3.4501,-4.39867 3.4961,0.88476 0.03,3.40028 1.651,6.18165 3.6035,6.18165 1.9525,-1e-5 3.6531,-2.78137 3.7774,-6.18165 0.136,-3.69661 2.6302,-1.21159 6.205,6.18165 3.2884,6.800562 6.8635,13.159343 7.9434,14.130854 2.179,1.9598 15.0904,34.803659 16.1465,41.072266 0.3685,2.188018 1.7676,8.943853 3.1074,15.013672 3.3437,15.151001 -0.1043,13.827684 -8.9551,-3.4375 -9.9311,-19.371453 -12.4854,-15.510954 -3.5156,5.3125 3.9248,9.112094 9.4841,25.6320832 12.3535,36.7109374 4.5906,17.7246196 6.8602,36.4481886 14.6524,120.8261706 0.9869,10.68662 2.7064,22.41302 3.8203,26.05664 1.31707,4.30705 0.65094,5.77858 -1.9043,4.20703 -2.1616,-1.32948 -3.9297,-4.70796 -3.9297,-7.50781 0,-2.79986 -1.4287,-5.0918 -3.1738,-5.0918 -1.7452,0 -3.1426,15.50088 -3.0996,34.44532 0.041,18.94445 -1.2589,50.34127 -2.8887,69.77148 -3.5656,42.50727 -3.5374,37.28635 -0.3613,65.35547 4.2196,37.28903 6.2639,46.63087 13.4882,61.67773 6.05386,12.60889 32.54337,44.30664 37.02738,44.30664 0.92797,0 10.92974,6.27738 22.22656,13.95118 24.84574,16.87713 69.64238,29.06644 62.33399,16.96093 -2.10373,-3.48511 -1.54624,-3.51447 2.64844,-0.13867 4.18438,3.36757 9.42781,3.17852 24.64453,-0.88476 17.302,-4.62036 34.67343,-4.56365 58.41406,0.1875 8.44652,1.69043 20.93946,21.12568 18.17969,28.2832 -1.0611,2.7517 -0.40211,5.94341 1.46484,7.0918 5.0229,3.08919 4.1237,15.94631 -1.04297,14.91796 -2.73883,-0.54509 -4.01168,2.16039 -3.32617,7.06641 0.61095,4.3718 -0.58678,7.94922 -2.66211,7.94922 -2.07498,0 -3.77344,-2.38625 -3.77344,-5.30078 0,-2.91453 -1.59828,-5.29883 -3.55078,-5.29883 -1.9525,0 -3.54883,2.4994 -3.54883,5.55274 0,4.83444 -0.79325,4.76277 -6.13281,-0.55079 -5.80851,-5.78038 -6.2557,-5.65489 -8.51953,2.39649 -2.25603,8.02348 -2.43347,7.90582 -3.16406,-2.09961 l -0.77539,-10.59766 -2.70899,10.59766 -2.71093,10.59961 -0.90235,-10.59961 c -0.7423,-8.70618 -1.17761,-9.17808 -2.44141,-2.64844 -0.84596,4.3718 -2.97499,7.94922 -4.73046,7.94922 -1.75548,0 -2.27201,-2.38625 -1.14844,-5.30078 1.12393,-2.91453 0.12567,-5.29883 -2.21875,-5.29883 -2.34406,0 -5.25039,3.57742 -6.45703,7.94922 -2.03841,7.38559 -2.36204,7.19705 -4.57227,-2.65039 l -2.3789,-10.59766 -0.66993,10.59766 c -0.58326,9.23493 -1.06051,9.68982 -3.71875,3.5332 -2.83893,-6.57462 -3.07003,-6.60645 -3.30078,-0.45117 -0.20839,5.51775 -1.14668,5.87484 -5.65625,2.15039 -4.5905,-3.79122 -5.02505,-3.45689 -2.88476,2.2168 2.18254,5.78529 1.75463,6.06258 -3.18946,2.06445 -4.95402,-4.00626 -5.45756,-3.65457 -3.80078,2.65039 1.08524,4.13047 0.19815,7.26758 -2.05468,7.26758 -2.18007,0 -3.96485,-3.27467 -3.96485,-7.27539 0,-4.00071 -1.46044,-6.37561 -3.24609,-5.27734 -1.78565,1.0983 -4.05589,10e-4 -5.04492,-2.43946 -0.98868,-2.4409 -1.97486,1.12521 -2.19141,7.92578 -0.35145,11.0584 -0.89163,11.71084 -5.10938,6.18164 -6.61011,-8.66565 -9.1928,-7.72168 -9.66992,3.53321 -0.31134,7.34253 -0.82836,7.99041 -2.11914,2.65039 -3.09844,-12.81849 -9.07794,-15.11063 -7.39844,-2.83594 0.85023,6.21219 0.23599,10.48942 -1.36328,9.50586 -1.59892,-0.98356 -2.90625,-4.07905 -2.90625,-6.87891 0,-2.79986 -2.24625,-5.08984 -4.99218,-5.08984 -3.32209,0 -4.42027,2.66727 -3.28711,7.94727 1.58188,7.37001 1.33478,7.4998 -3.38672,1.76757 -6.73293,-8.17379 -9.40107,-7.82228 -7.09961,0.93555 1.40865,5.36029 0.51413,6.59942 -3.62305,5.01953 -4.17586,-1.59455 -5.03131,-0.33621 -3.56445,5.24609 2.58227,9.82674 -1.80818,9.38927 -6.05469,-0.60351 -2.62842,-6.18538 -2.90768,-5.01013 -1.26367,5.29883 2.5954,16.27964 -0.8198,17.40677 -5.35742,1.76758 l -3.33008,-11.48243 -0.3418,14.13086 c -0.42884,17.82022 -6.6694,40.62696 -11.11719,40.62696 -1.86056,0 -3.38281,2.5553 -3.38281,5.67773 0,3.59493 1.95243,4.93023 5.32422,3.64258 2.92875,-1.11841 5.32422,-0.43674 5.32422,1.51367 0,2.3348 2.34627,2.29653 6.86719,-0.11133 8.98754,-4.78725 11.90648,-4.62781 8.73633,0.47656 -1.70968,2.75288 -0.65433,3.40184 3.16015,1.94532 3.77684,-1.44285 5.12978,-0.64217 3.97461,2.35351 -1.83322,4.75376 7.94757,5.54373 14.99219,1.21094 2.13426,-1.31239 5.01412,-1.2566 6.40039,0.12305 3.98346,3.96383 14.00626,3.01097 19.13672,-1.81836 6.82275,-6.42281 13.11471,-5.56819 7.60937,1.0332 -3.97103,4.76157 -3.13127,5.20005 6.66602,3.48242 6.16457,-1.08078 11.20703,-0.464 11.20703,1.3711 0,2.08332 4.32687,2.10254 11.51562,0.0508 14.88764,-4.24893 14.98963,-4.22882 9.78711,2.00976 -3.81377,4.57284 -2.90158,4.99606 6.66602,3.0918 10.69403,-2.12842 13.25312,0.25839 11.35742,10.5918 -0.31133,1.69565 1.70188,2.21818 4.47266,1.16015 2.77077,-1.05806 6.92439,-0.0621 9.23047,2.21485 3.21737,3.17666 3.57321,2.52418 1.53125,-2.8086 -2.36004,-6.16393 -2.03572,-6.37059 2.86328,-1.8164 4.15173,3.8593 4.71868,7.43526 2.28125,14.39258 -1.78317,5.09128 -2.76704,11.22244 -2.18555,13.625 0.58149,2.40256 -1.6566,6.14738 -4.97266,8.32226 -4.83332,3.16977 -7.38189,2.40378 -12.84179,-3.86133 -3.74667,-4.29874 -8.71594,-7.8164 -11.04297,-7.8164 -2.32525,0 -3.29384,-1.5062 -2.15039,-3.34766 1.14381,-1.84154 -1.07954,-2.74174 -4.93946,-2.00195 -3.86027,0.73976 -11.14578,-1.88627 -16.1914,-5.83594 -6.25226,-4.89415 -11.96303,-6.48589 -17.92774,-4.99609 -4.8138,1.20234 -8.75195,0.75146 -8.75195,-1.00196 0,-4.46471 -12.96176,-7.364 -16.625,-3.71875 -3.34588,3.32987 -18.875,0.34571 -18.875,-3.62695 0,-1.3799 -4.60443,-1.83542 -10.23047,-1.01367 -5.6264,0.82176 -11.31203,-0.24915 -12.63476,-2.37891 -1.32238,-2.1298 -7.85051,-3.87305 -14.50782,-3.87305 -9.89563,1e-5 -11.75127,-1.12664 -10.17187,-6.18164 1.76932,-5.66196 1.60808,-5.68465 -1.9082,-0.27539 -5.75668,8.85601 -22.553,11.06326 -45.41991,5.97071 -20.7786,-4.62749 -37.6554,-17.04804 -41.0957,-30.2461 -1.2734,-4.88507 -1.7544,-4.46794 -2.0703,1.79688 -0.2265,4.48647 -1.8852,7.2492 -3.6875,6.14062 -1.8024,-1.10858 -2.573,-7.67318 -1.711,-14.58789 0.9883,-7.92827 0.2411,-11.75608 -2.0234,-10.36328 -2.02,1.24247 -3.6134,-1.3528 -3.6484,-5.93359 -0.1115,-16.18359 -1.567,-23.48858 -4.3399,-21.78321 -1.5545,0.95621 -2.561,-5.26854 -2.2344,-13.83398 0.3255,-8.56547 -0.5506,-17.41361 -1.9472,-19.66211 -1.3962,-2.24853 -1.1022,-4.08789 0.6523,-4.08789 1.7544,0 5.0084,3.97448 7.2324,8.83203 2.2241,4.85755 5.7125,8.83203 7.752,8.83203 2.0391,0 1.0376,-4.05636 -2.2266,-9.01367 -4.1855,-6.35711 -4.8238,-10.11872 -2.166,-12.76367 4.1709,-4.15082 11.4863,-1.12313 11.4863,4.75391 0,2.34392 -2.0333,2.07677 -5.4062,-0.70899 -4.539,-3.74869 -5.0347,-3.50185 -3.0918,1.53711 1.317,3.41537 4.5379,5.1539 7.4726,4.0332 2.8364,-1.08318 5.989,-1.9707 7.0079,-1.9707 1.0188,0 -3.1043,-5.61814 -9.1641,-12.48633 -6.0595,-6.86815 -10.9616,-14.42005 -10.8906,-16.78125 0.07,-2.36116 3.8375,0.22148 8.373,5.73828 6.5022,7.90962 8.6837,8.89753 10.3125,4.67383 1.136,-2.94594 -0.3421,-7.34413 -3.2832,-9.77344 -2.9416,-2.42934 -7.723,-9.3009 -10.6269,-15.27148 l -5.2813,-10.85742 8.8945,9.71679 c 11.3586,12.40781 14.7775,12.49507 6.6622,0.16993 -5.9441,-9.02752 -5.9485,-9.41797 -0.082,-7.17774 3.8046,1.45281 6.2228,0.70488 6.2578,-1.93555 0.034,-2.72278 1.3196,-2.35731 3.4961,0.99415 3.0442,4.68754 3.4461,4.67574 3.4961,-0.0977 0.03,-2.96798 -2.4251,-8.91781 -5.4551,-13.22266 -5.4197,-7.70015 -15.1252,-36.48568 -18.1406,-53.80273 -4.5901,-26.36767 -6.9168,-78.66312 -4.3203,-97.15039 4.4343,-31.57256 3.0187,-41.84046 -2.4355,-17.66406 l -4.7832,21.19726 1.4921,-22.96289 c 0.82,-12.62963 3.1001,-27.73344 5.0665,-33.5625 12.7921,-37.92635 15.2125,-49.87025 16.9921,-83.83594 2.0086,-38.3389 -3.1739,-78.212869 -10.7734,-82.886716 -2.3334,-1.43522 -2.661,0.191825 -0.9102,4.519532 13.2884,32.847924 9.6675,95.302584 -8.5859,148.072264 -22.5272,65.1247 -25.3527,78.48496 -25.2637,119.42969 0.069,31.06307 -8.0561,55.49219 -28.5683,85.89844 -18.9854,28.1427 -63.0925,64.28227 -92.5625,75.84179 -37.0112,14.51762 -88.5545,19.4141 -106.084,10.07813 -4.7311,-2.51978 -6.7149,-2.40653 -6.7149,0.38672 10e-5,2.18018 4.7929,5.76463 10.6504,7.96484 5.8575,2.20024 10.6504,5.19241 10.6504,6.64844 0,1.45606 2.3955,1.73168 5.3242,0.61328 2.9288,-1.11844 5.3262,-0.21537 5.3262,2.00586 0,2.70285 8.1859,3.83206 24.752,3.41601 13.6143,-0.3419 24.0724,-1.71659 23.2402,-3.05664 -0.8321,-1.34009 2.006,-2.15659 6.3086,-1.8125 6.8476,0.54734 36.6764,-10.97012 41.5488,-16.04296 0.9762,-1.01638 5.9059,-4.45893 10.9551,-7.6504 15.3356,-9.69302 63.0243,-55.87171 71.0586,-68.80859 10.0118,-16.1207 12.2958,-12.65438 5.4727,8.30664 -6.9612,21.38597 -22.298,98.44468 -25.1817,126.52539 -4.0278,39.21841 -5.2456,44.9263 -13.0879,61.35156 -10.9209,22.8733 -25.7647,40.91791 -43.4082,52.76758 -31.2056,20.95823 -51.2641,21.47215 -90.8047,2.32227 -30.0778,-14.56682 -54.5198,-36.03924 -66.0175,-57.9961 -9.9645,-19.02931 -11.5536,-11.72959 -1.8887,8.67774 7.9484,16.78255 23.1561,33.07095 43.7969,46.91015 16.0332,10.75 43.2682,21.97852 53.3105,21.97852 9.8583,0 7.1412,5.71121 -10.4121,21.88477 -22.9877,21.18108 -46.5299,44.74823 -64.0488,64.11523 l 0,0 c -8.1838,9.04755 -17.286,16.44922 -20.2265,16.44922 -11.8467,0 -54.2024,-91.37357 -71.4121,-154.05664 l -7.8653,-28.64453 19.916,-4.17188 c 27.8434,-5.83369 57.6648,-11.37667 66.0684,-12.27929 3.905,-0.41941 15.4695,-4.45676 25.6992,-8.97266 16.9722,-7.49236 18.4104,-9.02483 16.4512,-17.50781 -1.1811,-5.11297 -18.7221,-43.07801 -38.9824,-84.36719 -39.9403,-81.39619 -39.6929,-81.12054 -62.4864,-69.39063 -11.032,5.67705 -11.0476,5.67296 -22.9472,-7.94726 -13.1591,-15.06187 -47.3106,-80.51707 -47.3106,-90.67578 0,-3.54167 -1.4917,-9.21473 -3.3164,-12.60742 -1.8247,-3.39269 -4.2528,-14.81436 -5.3945,-25.38086 -1.1413,-10.56646 -3.7897,-27.72814 -5.8867,-38.13672 -4.0783,-20.24426 -2.8015,-23.3021 11.0488,-26.47071 8.0759,-1.84749 7.9949,-1.66328 -0.8887,2.05079 -5.3693,2.24493 -9.7617,5.36564 -9.7617,6.93359 0,7.00455 51.3722,-1.3156 71.6328,-11.60156 7.3062,-3.70915 16.1589,-6.74414 19.6719,-6.74414 3.5131,0 8.4219,-3.24388 10.9101,-7.20899 5.5635,-8.86515 2.2378,-16.09342 -4.75,-10.32226 -2.6696,2.20472 -6.3338,3.09864 -8.1425,1.98632 -1.8084,-1.11229 -7.3329,1.14333 -12.2774,5.01368 -6.505,5.0922 -9.421,5.81129 -10.5488,2.60156 -1.1478,-3.26569 -3.4106,-2.80334 -8.5762,1.75195 -6.7308,5.93571 -7.1774,5.86274 -11.0195,-1.76758 -2.2028,-4.37448 -4.4716,-11.9276 -5.041,-16.78515 -1.4157,-12.07989 -7.0901,-11.11364 -10.4473,1.77929 -1.8162,6.9747 -7.9757,13.98521 -17.9746,20.45508 l -15.2129,9.84375 -6.293,-25.7539 c -3.4613,-14.16465 -6.4241,-30.52251 -6.5839,-36.35157 -0.159,-5.82906 -2.7357,-19.30123 -5.7266,-29.9375 -5.2735,-18.75414 -4.7843,-59.737493 1.1406,-95.476559 2.9739,-17.938175 15.1888,-40.721857 30.3164,-56.5468748 7.2569,-7.5918746 14.1806,-16.8921152 15.3848,-20.6679682 1.9376,-6.075189 4.911,-6.717276 25.834,-5.580079 31.6681,1.721269 43.5527,4.628002 43.5527,10.654297 0,2.760113 1.6923,5.017578 3.7598,5.017578 2.0643,0 2.9967,-1.227091 2.0644,-2.728515 -0.9326,-1.501425 4.8426,-2.730469 12.834,-2.730469 8.4376,0 15.1464,-1.843965 16.002,-4.398438 0.8105,-2.419341 3.5609,-6.475734 6.1113,-9.013671 3.5723,-3.554774 3.8381,-8.98138 1.1621,-23.632813 -1.9103,-10.460409 -2.5175,-23.856169 -1.3496,-29.767578 1.168,-5.91141 2.9613,-16.13862 3.9844,-22.72656 1.0227,-6.58793 4.9916,-18.81975 8.8203,-27.1836 3.8291,-8.36386 6.9609,-16.8549 6.9609,-18.86914 0,-2.01427 5.6815,-9.48437 12.625,-16.59961 8.9362,-9.1589 11.5194,-14.03683 8.8399,-16.70312 -2.6792,-2.66632 -6.7379,-2.02889 -13.9004,2.18164 -5.5642,3.27102 -11.2746,4.79669 -12.6875,3.39062 -1.4215,-1.40608 -2.0359,-0.93561 -1.3848,1.04493 0.6507,1.98057 -2.5415,7.54328 -7.0937,12.36328 -4.5521,4.82003 -11.4542,15.12245 -15.3379,22.89453 -7.7262,15.46323 -17.9276,57.809931 -15.045,62.451171 0.9926,1.598187 -0.4383,2.90625 -3.1796,2.90625 -2.7414,0 -7.8415,3.142201 -11.334,6.982421 -3.4922,3.84022 -7.4987,6.275553 -8.9024,5.41211 -1.404,-0.863443 -5.5846,0.713411 -9.289,3.503906 -3.7045,2.790495 -9.5304,5.123727 -12.9473,5.185547 -3.4168,0.06179 -6.2129,1.808833 -6.2129,3.882813 0,2.163147 -3.0266,2.813764 -7.0996,1.527343 -8.2842,-2.616612 -21.3008,0.768842 -21.3008,5.539063 0,1.812061 5.9106,3.292968 13.1348,3.292968 9.0348,0 11.9906,1.14068 9.4687,3.650391 -3.0079,2.993382 -14.3,5.225239 -34.1328,6.746094 -4.7787,0.366453 -26.1808,22.892362 -33.7597,35.5312499 -9.3169,15.5380861 -18.3032,53.5788231 -21.084,89.2617191 -1.1761,15.091684 -2.9607,26.622464 -3.9649,25.623044 -4.4202,-4.39865 -0.3226,-82.168701 5.2051,-98.787107 12.7288,-38.269727 49.5741,-88.78097 61.916,-84.882812 7.3833,2.331977 30.4025,-3.798856 39.7188,-10.578125 3.949,-2.873621 6.4527,-9.647301 6.7402,-18.244141 0.2521,-7.521075 2.2075,-14.843965 4.3457,-16.271485 2.518,-1.68127 2.012,-2.65722 -1.4375,-2.77344 -3.3147,-0.1116 -1.9738,-2.21768 3.5508,-5.57617 l 8.875,-5.39453 -8.875,1.8457 -8.875,1.84766 8.875,-6.8457 c 4.8812,-3.76522 10.0727,-6.88073 11.5371,-6.92383 5.0804,-0.1499 2.6346,-7.14453 -2.498,-7.14453 -4.3139,0 -4.1695,-1.72159 0.8867,-10.50196 4.3371,-7.53125 13.5797,-13.774 32.6738,-22.07031 14.6437,-6.36269 27.4241,-11.70684 28.4004,-11.875 0.9762,-0.16812 6.5663,-2.29853 12.4238,-4.73437 5.8575,-2.43584 18.6379,-5.19464 28.4004,-6.13086 9.7625,-0.93622 19.7469,-2.33735 22.1875,-3.11328 7.2281,-2.29803 5.0642,4.42233 -3.6582,11.35937 -15.8657,12.61829 -28.3313,33.30332 -40.5664,67.31836 -19.258,53.540205 -19.6374,55.517373 -15.3203,79.732422 2.1471,12.043016 3.8683,25.394429 3.8223,29.669922 -0.045,4.2754918 1.3585,8.6585371 3.1171,9.7402341 4.7496,2.92110137 21.8528,-4.4243934 28.7618,-12.3515621 7.4351,-8.531237 9.5547,-8.667797 11.6347,-0.748047 1.1747,4.473857 1.737,4.710784 2.0352,0.857422 0.5747,-7.430039 32.3613,-26.40345 32.3613,-19.316407 0,6.8684 2.2947,6.581777 14.0527,-1.75 5.4031,-3.828669 10.8421,-5.946935 12.086,-4.708984 1.2439,1.237951 2.2617,0.518505 2.2617,-1.597656 0,-2.116161 5.7004,-5.719465 12.668,-8.007813 8.0269,-2.636149 12.0118,-5.866397 10.875,-8.814453 -2.4001,-6.224518 8.8283,-10.240282 12.5058,-4.472656 2.5141,3.942989 4.2782,1.741954 3.6368,-4.53711 -0.1126,-1.103423 4.7181,-1.286943 10.7343,-0.408203 7.3169,1.068661 10.1456,0.321434 8.5449,-2.255859 -1.316,-2.119199 -4.3385,-3.440424 -6.7168,-2.9375 -2.378,0.502925 -0.729,-0.669151 3.6641,-2.603516 12.1431,-5.346768 9.5359,-9.388732 -3.2051,-4.96875 -9.3091,3.229441 -11.9138,2.904214 -15.4726,-1.939453 -3.5618,-4.847129 -6.1595,-5.171937 -15.4942,-1.933593 -6.1685,2.139935 -15.316,2.866645 -20.3261,1.615234 -5.3899,-1.346231 -8.2603,-0.908778 -7.0313,1.070312 1.1466,1.846011 -0.921,2.564358 -4.6133,1.603516 -4.1795,-1.087702 -8.6304,1.01503 -11.8613,5.605469 -2.8443,4.040846 -6.003,6.519374 -7.0215,5.505859 -1.0185,-1.013514 -6.0666,-0.248101 -11.2187,1.701172 -14.5845,5.518071 -11.0375,-0.8871 6.6543,-12.015625 20.5481,-12.925466 18.0426,-16.130285 -3.0117,-3.851563 -11.6012,6.765773 -16.6644,8.145625 -18.5782,5.064454 -1.6046,-2.583828 -1.1281,-3.310983 1.2227,-1.865235 2.1194,1.303413 4.8579,0.754007 6.084,-1.220703 1.2266,-1.974709 -0.6611,-3.616271 -4.1934,-3.644531 -5.445,-0.04589 -5.6106,-0.574937 -1.0957,-3.478516 6.9523,-4.471067 11.6518,-4.471067 8.875,0 -1.2067,1.94302 -0.5033,3.533203 1.5645,3.533203 6.8097,0 3.917,-7.234215 -4.0684,-10.173828 -5.6438,-2.077689 -9.78,-1.070619 -14.8281,3.609375 -3.8507,3.570035 -7.8262,5.669144 -8.834,4.666016 -1.0082,-1.003093 3.2686,-6.4615 9.5039,-12.128907 6.2352,-5.66743 11.3359,-12.2052 11.3359,-14.5293 0,-2.3241 2.796,-6.33678 6.2129,-8.91797 3.4169,-2.5812 4.4836,-4.74484 2.3692,-4.80664 -6.5451,-0.19126 -3.3016,-13.01401 7.0527,-27.88281 5.4411,-7.81338 8.8192,-15.93547 7.5078,-18.04687 -1.3113,-2.11139 1.3332,-6.92037 5.875,-10.6875 4.5309,-3.76709 6.5814,-6.9021 4.5313,-6.9668 -2.0501,-0.0647 -5.5055,1.65088 -7.6778,3.8125 -2.1722,2.16279 -6.0858,3.14598 -8.6972,2.1875 -2.8808,-1.05735 -0.5594,-3.38996 5.9023,-5.93164 5.8575,-2.30404 13.845,-7.04922 17.75,-10.54492 5.7386,-5.13713 17.2796,-8.9303 24.9238,-9.20313 z m 4.8301,8.96485 c -1.9525,0 -2.5621,1.58823 -1.3555,3.53125 1.2066,1.94302 3.7917,3.5332 5.7442,3.5332 1.9525,0 2.562,-1.59018 1.3554,-3.5332 -1.2066,-1.94302 -3.7916,-3.53125 -5.7441,-3.53125 z m 10.2285,118.347652 c 0.5408,-0.03953 0.8418,0.02664 0.8418,0.214844 0,0.752832 -4.7929,3.835279 -10.6504,6.84961 -5.8575,3.014331 -10.6504,4.197782 -10.6504,2.630859 0,-1.566957 4.7929,-4.647415 10.6504,-6.847656 4.3932,-1.650155 8.1862,-2.729052 9.8086,-2.847657 z m 66.5821,13.710938 c -20.1326,-0.07128 -42.0485,6.014243 -65.6231,18.240234 -16.6744,8.647535 -15.2037,11.648227 2.3145,4.72461 5.4965,-2.172332 14.1598,-4.499767 19.2519,-5.171875 5.0918,-0.672109 16.92,-2.930962 26.2852,-5.019531 18.121,-4.041342 54.9804,0.870327 54.9804,7.326171 0,1.805242 2.1188,3.283203 4.7071,3.283203 7.1568,0 20.9022,16.183558 25.8086,30.386719 l 4.3769,12.6699221 -9.2793,-8.2812501 -9.2773,-8.28125 6.5762,10.599609 c 3.617,5.8290614 8.7282,13.7337815 11.3574,17.5664068 6.3868,9.3094342 6.0758,14.3978412 -0.545,8.9296872 -5.6806,-4.691723 -7.4702,-0.156863 -2.1601,5.47461 4.0147,4.257617 21.6836,56.989031 21.6836,64.699218 0,3.17924 -3.5022,-1.256261 -7.7793,-9.855468 -4.2774,-8.599242 -8.4714,-13.567073 -9.3184,-11.039063 -0.8467,2.527976 1.4053,21.089887 5.0039,41.248047 3.599,20.15813 7.7939,36.65234 9.3203,36.65234 1.5269,0 2.7754,-9.53914 2.7754,-21.19726 0,-16.48625 1.1826,-21.19727 5.3243,-21.19727 2.9288,0 5.0011,-1.19117 4.6035,-2.648435 -0.3979,-1.457265 1.3408,-10.925935 3.8652,-21.041016 2.5258,-10.120733 3.5149,-23.625101 2.1992,-30.029297 -4.7541,-23.14614 -16.2836,-59.091283 -19.6093,-61.136718 -1.9017,-1.169168 -2.5873,0.715944 -1.5567,4.2734372 1.0142,3.5012166 -0.1126,2.3907539 -2.5039,-2.4667972 -8.3009,-16.861106 -36.3237,-46.86925 -48.4941,-51.929687 -10.7695,-4.477911 -22.2076,-6.736527 -34.2871,-6.779297 z M -1012,-18.164062 c 0.3229,0.04865 0.7079,0.589662 1.1328,1.646484 1.0252,2.550196 0.8984,5.597547 -0.2812,6.7714842 -1.1797,1.1739023 -2.0179,-0.9126212 -1.8653,-4.6367182 0.1065,-2.572184 0.4756,-3.862332 1.0137,-3.78125 z m -230.6562,93.330078 c -1.488,-0.05891 -2.9294,1.696975 -5.793,5.208984 -5.313,6.516184 -5.2764,7.547915 0.4785,13.695312 7.2384,7.731698 20.3031,10.428688 57.1777,11.800778 14.6438,0.54489 31.0173,2.75153 36.3868,4.90235 5.3693,2.15081 9.7636,2.83546 9.7636,1.52344 0,-1.31204 1.9168,-0.47616 4.2598,1.85546 2.343,2.33163 6.8697,4.23828 10.0586,4.23828 3.1894,0 10.4578,4.65937 16.1523,10.35352 5.6949,5.69411 10.9316,8.73618 11.6387,6.75977 1.867,-5.21775 -19.9484,-26.50315 -38.5273,-37.589848 -14.6423,-8.737584 -19.1373,-9.550781 -52.7071,-9.550781 -33.1499,0 -37.291,-0.727499 -42.8183,-7.517578 -3.0493,-3.746108 -4.5824,-5.620774 -6.0703,-5.679687 z m -153.3282,16.492187 c -2.4642,0.157347 -6.7911,3.053279 -13.1679,8.624997 -6.9839,6.10211 -22.6138,16.02102 -34.7325,22.04102 -32.6287,16.20861 -48.2799,33.22316 -57.3164,62.30664 -4.1109,13.23147 2.8256,8.9203 11.3711,-7.06641 7.2257,-13.51745 19.6827,-24.08125 37.2246,-31.5664 3.4169,-1.45797 6.2129,-4.29122 6.2129,-6.29688 0,-2.00562 2.7942,-3.75156 6.211,-3.88086 3.4169,-0.12912 14.183,-4.64651 23.9238,-10.03906 13.1052,-7.25499 18.551,-12.72289 20.9433,-21.02344 2.5874,-8.978196 2.4985,-13.30191 -0.6699,-13.099607 z m 216.461,43.867187 c -4.524,-0.0787 -8.824,0.38113 -12.1582,1.49414 -15.3736,5.13187 -11.4217,8.75532 7.5683,6.93945 9.5318,-0.91142 20.3023,-0.003 23.9336,2.01954 7.7514,4.31686 11.4368,2.24592 5.8672,-3.29688 -4.2201,-4.19962 -15.2583,-6.98318 -25.2109,-7.15625 z m -188.1407,16.54492 c -0.467,-0.0437 -0.8729,0.0316 -1.2089,0.23828 -2.0469,1.25904 1.1166,7.03543 7.371,13.45703 6.0272,6.18828 10.959,12.96806 10.959,15.06641 0,2.09836 2.1371,5.57989 4.7481,7.73633 11.6919,9.65642 15.3923,51.64635 7.3594,83.49609 -1.2918,5.12244 -0.6968,8.83399 1.414,8.83399 4.4028,0 11.3281,-30.32321 11.3281,-49.59571 0,-7.65561 -3.0755,-21.97263 -6.8339,-31.8164 -7.2996,-19.1179 -28.1308,-46.76017 -35.1368,-47.41602 z m 226.4414,6.83203 c -0.3275,0.0298 -0.6004,0.2024 -0.8046,0.53125 -2.709,4.36201 6.7942,26.08203 11.4121,26.08203 2.0469,0 3.7226,1.54891 3.7226,3.44336 0,1.94302 -4.6427,2.52188 -10.6504,1.32618 -6.9374,-1.38078 -10.6504,-0.69142 -10.6504,1.97851 0,2.96119 -1.9108,3.08069 -6.8847,0.43164 -4.7655,-2.53967 -7.5892,-2.53382 -9.1739,0.0176 -1.2588,2.02731 -5.5909,2.6439 -9.6269,1.36914 -5.7698,-1.82234 -6.8686,-1.09826 -5.1387,3.38867 2.1911,5.68129 -4.6165,8.11984 -9.3945,3.36524 -1.2939,-1.2877 -7.4039,-2.89183 -13.5781,-3.56446 -6.1745,-0.67264 -13.3491,-2.97645 -15.9434,-5.11914 -5.9101,-4.88098 -23.5692,-0.82128 -21.6309,4.97266 0.7884,2.35713 4.6757,4.45633 8.6368,4.66406 3.9607,0.20755 11.4078,1.42834 16.5507,2.71289 5.1432,1.28455 10.378,2.16941 11.6329,1.96875 1.255,-0.20077 3.3617,1.37427 4.6816,3.5 1.3202,2.12577 14.2788,5.23598 28.7969,6.91016 l 0,0.002 c 14.5181,1.67414 31.8945,3.25008 38.6133,3.50196 11.4725,0.43043 11.7958,0.14259 5.3242,-4.72852 -6.8004,-5.11894 -6.7983,-5.19467 0.209,-5.70703 3.905,-0.28562 9.9323,-0.23022 13.3925,0.12305 3.5032,0.35756 5.8625,-1.38052 5.3243,-3.92383 -0.5314,-2.51207 2.2335,-5.06188 6.1445,-5.66602 3.9111,-0.60414 9.9301,-5.98564 13.375,-11.95898 l 6.2637,-10.86133 -13.375,1.5918 c -19.3802,2.30615 -35.5876,-3.13323 -41.2207,-13.83203 -2.1596,-4.10168 -4.5886,-6.64884 -6.0079,-6.51954 z m -141.7461,8.94727 c -4.4608,0 -10.7943,11.89449 -10.6953,20.08008 0.066,5.39615 1.1814,5.01367 7.0215,-2.41602 7.4901,-9.5291 9.1813,-17.66406 3.6738,-17.66406 z m -139.0019,3.63672 c -13.1245,-0.16772 -35.0723,7.31259 -35.0723,14.45898 0,4.69084 8.0264,3.51488 15.7657,-2.31054 3.79,-2.85275 12.2719,-5.1875 18.8476,-5.1875 7.9073,0 11.1259,-1.33752 9.5039,-3.94922 -1.2741,-2.05154 -4.6701,-2.95582 -9.0449,-3.01172 z m 382.7617,16.83594 c -1.5728,0.21882 -2.8858,5.6937 -4.1172,16.93945 -1.2574,11.48364 -4.4978,31.21217 -7.2011,43.8418 -9.3539,43.70231 -13.8244,117.96991 -8.6485,143.70507 7.9605,39.58024 32.4114,75.55171 60.00978,88.28711 22.97348,10.60105 44.36616,2.24402 48.34961,-18.88672 2.21236,-11.73563 1.27934,-13.76101 -11.35547,-24.62695 -7.57215,-6.51205 -15.05412,-11.83984 -16.625,-11.83984 -5.41942,0 -19.72762,-15.93862 -26.95902,-30.0293 -3.9884,-7.77208 -10.3215,-27.64448 -14.0742,-44.16016 -7.8945,-34.74562 -7.2366,-29.46461 -9.8984,-79.48632 -1.1374,-21.37322 -3.6812,-40.833 -5.6504,-43.24414 -1.9912,-2.43779 -2.6145,-11.06465 -1.4043,-19.43165 1.1971,-8.27546 0.7283,-17.2873 -1.041,-20.02734 -0.4851,-0.75132 -0.9444,-1.10228 -1.3848,-1.04101 z m -511.25,5.85742 c 11.6593,-0.16282 25.8011,1.77506 29.5391,5.49219 6.8781,6.83959 14.0857,30.12913 12.2539,39.5957 -0.7788,4.02438 -0.3462,9.0401 0.9609,11.14453 1.3068,2.10443 2.8447,10.22173 3.418,18.03906 0.573,7.81737 1.7511,19.38049 2.6191,25.69531 0.8676,6.31481 0.082,11.48047 -1.748,11.48047 -1.8296,0 -3.4666,-1.19117 -3.6406,-2.64843 -0.3422,-2.88479 -2.589,-30.61481 -4.0782,-50.3418 -0.5137,-6.80057 -2.1468,-13.26419 -3.6289,-14.36133 -1.4825,-1.09717 -3.0788,-8.63957 -3.5488,-16.76172 -0.5208,-8.99268 -2.5907,-14.77455 -5.293,-14.78515 -2.4406,-0.0101 -4.4572,1.9677 -4.4922,4.39648 -0.04,3.23375 -0.8756,3.12803 -3.1211,-0.39844 -2.5882,-4.06575 -3.3654,-4.06575 -4.9902,0 -1.3664,3.41915 -2.0063,3.53377 -2.2051,0.39844 -0.1541,-2.42878 -1.8257,-4.41602 -3.7168,-4.41602 -1.8915,0 -2.5606,2.78332 -1.4863,6.1836 1.7711,5.60519 1.5112,5.65278 -2.7871,0.51367 -2.6075,-3.11756 -8.3295,-6.80231 -12.7148,-8.1875 -4.3857,-1.3852 -7.9747,-4.39746 -7.9747,-6.69531 -10e-5,-2.81873 7.5665,-4.21712 16.6348,-4.34375 z m -23.0976,5.73633 c 1.5271,-0.24152 1.4315,2.90424 -1.0118,9.8789 -1.9557,5.58304 -3.0714,19.49372 -2.4785,30.91211 0.9475,18.24309 0.065,21.57647 -7.2832,27.49219 -6.7304,5.4194 -7.9861,9.03593 -6.4355,18.54687 1.0597,6.4982 0.5684,11.81641 -1.0899,11.81641 -4.6909,0 -7.5904,-24.48889 -5.4043,-45.64258 1.1047,-10.68732 6.1032,-26.68605 11.3125,-36.21094 5.782,-10.57165 10.4272,-16.48245 12.3907,-16.79296 z m 198.4824,7.62304 c -0.6939,0.0331 -1.4916,0.21753 -2.3848,0.5586 -3.0885,1.17941 -6.2831,2.14453 -7.0996,2.14453 -0.8165,0 -1.4844,2.23612 -1.4844,4.96875 0,3.22919 2.4849,4.32194 7.0996,3.12109 3.905,-1.01624 7.0996,-4.21747 7.0996,-7.11328 0,-2.51224 -1.1487,-3.77891 -3.2304,-3.67969 z m 202.6465,41.85161 0.2871,20.10347 c 0.1526,12.6618 0.8933,18.51771 1.666,13.58398 0.5847,4.32167 2.0286,8.49835 3.5976,12.41993 1.741,4.40695 3.6919,8.72707 4.9141,13.39843 0.9038,1.27386 2.3286,2.48086 3.7734,2.10938 0.059,1.93102 1.3337,0.5551 4.4258,-3.30078 6.587,-8.21361 4.5321,-18.31088 -8.8535,-43.50977 l -5.5163,-13.51242 z m -406.1094,17.37691 c 1.9337,0 4.448,3.54845 5.5879,7.88672 1.1399,4.33831 0.5273,9.42532 -1.3613,11.30468 -2.2113,2.20091 -3.4336,1.38327 -3.4336,-2.29882 0,-3.14423 -0.969,-8.23126 -2.1543,-11.30469 -1.185,-3.07347 -0.5724,-5.58789 1.3613,-5.58789 z m 413.8262,1.76953 c 4.4655,0.58882 9.9782,22.97938 7.7558,34.45312 l 0,0 c -0.3874,1.9999 -0.6625,3.52355 -0.875,4.82422 -0.1603,-0.24961 -0.3328,-0.4782 -0.502,-0.65039 -1.2331,-1.02116 -1.8352,-2.70721 -2.4824,-4.27344 -3.188,-8.21287 -3.0204,-17.8034 -6.8555,-25.70898 -0.3725,-0.48371 -0.6982,-1.3888 -1.0918,-2.0625 0.8456,-2.83356 1.8315,-5.12321 2.711,-6.02734 0.4298,-0.44191 0.8798,-0.6156 1.3418,-0.55469 z m 211.76754,1.76172 c 1.9525,0 3.55078,1.59018 3.55078,3.5332 0,1.94302 -1.59828,3.5332 -3.55078,3.5332 -1.9525,0 -3.54883,-1.59018 -3.54883,-3.5332 0,-1.94302 1.59633,-3.5332 3.54883,-3.5332 z m -30.81055,0.64062 c 0.62746,-0.0187 1.54212,0.61472 2.81055,1.87696 2.17225,2.1616 3.33623,5.75967 2.58789,7.99414 -1.76435,5.26696 -6.53711,0.51482 -6.53711,-6.50782 0,-2.23675 0.33194,-3.33918 1.13867,-3.36328 z M -1012,271.52148 c 0.3229,0.0487 0.7079,0.59162 1.1328,1.64844 1.0252,2.5502 0.8984,5.59755 -0.2812,6.77149 -1.1797,1.1739 -2.0179,-0.91262 -1.8653,-4.63672 0.1065,-2.57218 0.4756,-3.86429 1.0137,-3.78321 z m -528.0156,2.1543 c 6.1757,0.0399 11.1429,4.26185 15.4687,12.66797 2.9578,5.74833 6.2493,11.24724 7.3125,12.21875 1.0636,0.97151 5.4743,7.84968 9.8028,15.28516 9.852,16.9236 6.4753,24.13642 -5.3555,11.43945 -4.791,-5.14183 -13.3792,-10.2786 -19.084,-11.41406 -6.1951,-1.23294 -10.4713,-4.37617 -10.6133,-7.80469 -0.1878,-4.48551 -0.9976,-4.18912 -3.707,1.35156 -3.1939,6.53106 -11.9403,12.90678 -35.1016,25.58594 -11.4019,6.24183 -16.0281,10.83992 -13.4668,13.38867 1.1193,1.11384 12.2872,-4.21892 24.8184,-11.85156 34.2316,-20.85038 35.0735,-20.90227 55.4726,-3.44727 15.3173,13.10656 26.0465,31.66528 21.1329,36.55469 -0.8069,0.80318 -7.6855,-1.69608 -15.2871,-5.55273 -17.2761,-8.76504 -21.8181,-8.75561 -37.2266,0.082 -6.8032,3.90211 -23.9164,12.54192 -38.0313,19.19726 -25.1034,11.83691 -46.4842,28.50373 -42.1269,32.83985 1.2035,1.19785 6.5645,-1.99539 11.914,-7.09571 5.3496,-5.10032 23.6392,-15.76205 40.6426,-23.6914 17.0031,-7.92933 31.8747,-15.96056 33.0469,-17.84766 3.4282,-5.52037 18.69,-3.96534 33.1523,3.37695 18.0723,9.17498 21.8271,14.45238 21.7911,30.6543 -0.047,23.36115 -0.8527,26.55161 -6.1895,24.51367 -2.7629,-1.05513 -5.6913,-1.91797 -6.5078,-1.91797 -0.8165,0 -1.4844,-2.46238 -1.4844,-5.4707 0,-3.00833 -5.0657,-7.58768 -11.2558,-10.17773 -14.7315,-6.1641 -36.5879,0.65988 -61.5196,19.20703 -9.7625,7.26252 -20.1474,14.20362 -23.0761,15.42578 -2.9288,1.22227 1.065,1.28259 8.875,0.13476 8.3471,-1.2267 20.0533,-6.79529 28.4003,-13.51171 18.7589,-15.09448 24.8051,-16.96698 40.8848,-12.65821 14.8365,3.97567 35.4414,20.99508 35.4414,29.27344 0,2.89122 -3.0431,8.99625 -6.7617,13.56641 -6.5221,8.01524 -7.0091,8.08539 -13.7598,2.00586 -13.124,-11.81939 -29.4588,-11.4897 -48.0058,0.96679 -16.1025,10.81471 -21.6242,16.87588 -12.0371,13.21485 3.5774,-1.36616 4.3068,2.78932 3.1875,18.18945 -2.1116,29.05229 12.9307,66.21678 36.0234,89 9.4721,9.34491 16.1775,18.66945 14.9023,20.72266 -1.4189,2.28439 -0.1458,2.90371 3.2793,1.5957 3.1605,-1.20693 11.8823,2.00196 20.0352,7.37109 10.7835,7.1016 19.4534,9.68022 34.2481,10.1836 13.9195,0.47357 20.3266,2.23158 21.5507,5.91601 1.4917,4.49014 0.8944,4.54659 -4.1601,0.39453 -3.8369,-3.15196 -5.9024,-3.46063 -5.9024,-0.88281 0,6.02156 -13.9303,4.78151 -41.1152,-3.66211 -28.7283,-8.92313 -40.2676,-16.24296 -40.4238,-25.63867 -0.061,-3.72409 -1.1218,-5.76459 -2.3575,-4.53516 -2.8372,2.82364 -12.6059,-9.43756 -22.3691,-28.07812 -9.2694,-17.69713 -24.5115,-71.72016 -22.2793,-78.96289 1.1285,-3.66203 0.4478,-4.20273 -2.2012,-1.75 -2.7303,2.52851 -1.84,12.68922 3.0938,35.32812 6.9903,32.07411 22.0387,65.78863 37.5625,84.15625 10.2698,12.15157 11.5279,40.00628 2.7598,61.1211 -6.6172,15.93468 -28.6311,52.90872 -36.6875,61.61914 -7.439,8.04329 -25.1433,33.26926 -34.1465,48.65625 -4.0083,6.85045 -8.7993,12.89702 -10.6485,13.4375 -6.9307,2.02562 -31.534,-16.611 -75.8047,-57.42188 l -15.7402,-14.50976 26.0195,-24.34961 c 52.5045,-49.13756 69.4497,-69.69344 72.4942,-87.93946 2.4584,-14.73491 -6.9781,-68.11888 -16.9707,-96.00586 -4.4123,-12.31408 -11.1811,-39.93138 -22.7207,-92.69335 -1.5219,-6.9587 -0.744,-8.09812 4.2285,-6.19922 5.1301,1.95899 4.9323,0.85648 -1.25,-6.96485 -13.1524,-16.63918 -7.7329,-26.64787 23.7187,-43.80273 8.2981,-4.5261 15.0879,-9.52611 15.0879,-11.11133 0,-4.84268 -4.866,-3.27772 -18.5136,5.95117 -7.1835,4.85755 -14.2166,8.83203 -15.6309,8.83203 -1.4143,0 -5.7645,2.78136 -9.666,6.18164 -6.7783,5.90714 -6.9877,5.8942 -4.7168,-0.28906 1.3075,-3.55919 2.3769,-10.25109 2.3769,-14.87109 0,-8.55943 13.8035,-24.22487 26.625,-30.2168 18.3475,-8.57437 41.5859,-23.91465 55.836,-36.85937 9.1577,-8.31894 16.5411,-12.46182 22.7168,-12.42188 z m 129.1621,3.68945 c -1.9305,0 -3.4203,3.57742 -3.3067,7.94922 0.1122,4.37179 -0.095,14.71405 -0.4589,22.98243 -0.3642,8.26831 1.364,17.46096 3.8398,20.42968 11.2045,13.4351 18.5025,-7.88764 8.9746,-26.22265 -3.0459,-5.8616 -5.5391,-13.91592 -5.5391,-17.89844 0,-3.98252 -1.5792,-7.24024 -3.5097,-7.24024 z m 0.2441,19.42969 5.4512,10.00781 c 2.9976,5.50398 4.5797,12.25982 3.5176,15.01368 l 0,0 c -3.9674,10.28914 -9.2498,4.49016 -9.1113,-10.00586 z m 63.4668,10.8125 c -0.1622,0.0197 -0.3016,0.0644 -0.416,0.13477 -2.0473,1.25883 -1.9786,3.66632 0.1777,6.25195 1.9291,2.31297 3.3562,9.56218 3.168,16.10938 -0.2126,7.44219 1.9254,13.55258 5.7051,16.30273 7.7649,5.65044 19.0879,2.70629 21.7558,-5.6582 1.4633,-4.58849 -2.2845,-10.72501 -12.6992,-20.78321 -7.6197,-7.35859 -15.2577,-12.6522 -17.6914,-12.35742 z m -154.4824,2.74219 c 0.5668,-0.0558 1.2502,0.12585 1.9824,0.57617 1.9525,1.20085 3.5488,2.88536 3.5488,3.74219 0,0.85684 -1.5963,1.55859 -3.5488,1.55859 -1.9525,0 -3.5508,-1.68448 -3.5508,-3.74218 0,-1.28606 0.6237,-2.04171 1.5684,-2.13477 z m 209.0977,0.39453 c -0.9235,0.0496 -1.7735,0.20709 -2.5098,0.48828 -6.6144,2.52583 -3.772,11.18536 4.2578,12.97266 7.3914,1.64513 14.7852,-0.70657 14.7852,-4.70117 0,-4.20761 -10.0693,-9.10733 -16.5332,-8.75977 z m 210.2461,25.80664 c 0.1781,0.0641 0.3777,1.19897 0.5878,3.52149 0.7473,8.25784 0.7473,21.76951 0,30.02734 -0.7472,8.25784 -1.3593,1.502 -1.3593,-15.01367 0,-11.87064 0.3163,-18.69903 0.7715,-18.53516 z m -356.0196,13.00391 c -0.6844,-0.0889 -1.4025,1.72163 -2.5195,5.08984 -1.8974,5.7205 -1.2497,9.35463 2.0351,11.42578 2.6494,1.67072 3.5248,3.0635 1.9454,3.0918 -1.5798,0.0297 -1.82,1.74999 -0.5332,3.82227 4.2778,6.88765 5.3282,1.00492 2.3125,-12.94922 -1.5374,-7.11339 -2.3603,-10.36621 -3.2403,-10.48047 z m 175.1582,29.70898 c -0.8336,0.003 -1.6996,0.015 -2.5996,0.0352 -9.793,0.21956 -23.2873,2.98794 -29.9883,6.15234 -8.1001,3.82514 -16.2897,4.98755 -24.4355,3.4668 -23.1585,-4.32347 -50.598,14.05648 -36.4043,24.38476 3.1769,2.31156 8.8666,11.37757 12.6445,20.14844 3.7783,8.77086 11.2392,19.36808 16.5801,23.54883 13.5976,10.6439 36.6895,10.07604 60.4414,-1.48828 13.6413,-6.64156 19.3107,-11.64048 21.041,-18.54883 4.6423,-18.53536 13.1963,-32.41797 19.9746,-32.41797 3.6828,0 6.6953,-1.59018 6.6953,-3.5332 0,-1.94302 -1.4746,-3.5332 -3.2773,-3.5332 -1.8027,0 -8.2693,-4.17977 -14.3711,-9.28907 -8.4109,-7.04282 -13.7959,-8.97746 -26.3008,-8.92578 z m 4.2207,21.79102 c 8.5325,-0.077 0.078,7.53009 -15.9824,14.38086 -22.2482,9.49042 -51.1312,9.12287 -60.0019,-0.76367 l -6.7618,-7.53711 19.5254,2.26953 c 12.9195,1.5016 26.1294,0.47999 39.0488,-3.01953 10.7387,-2.9088 21.6163,-5.30538 24.1719,-5.33008 z m 177.9688,14.08789 c 2.0675,0 3.7597,1.59018 3.7597,3.5332 0,1.94302 -0.7032,3.5332 -1.5644,3.5332 -0.8609,0 -2.5531,-1.59018 -3.7598,-3.5332 -1.2066,-1.94302 -0.5034,-3.5332 1.5645,-3.5332 z m -176.9942,4.54883 c 2.5516,0.0205 3.2539,1.72679 3.2539,5.8125 0,7.84888 -11.8309,10.44308 -16.1211,3.53515 -2.8201,-4.5407 -2.1256,-5.25847 8.1329,-8.39648 2.031,-0.62128 3.5745,-0.96047 4.7343,-0.95117 z m -24.7578,7.02539 c 3.6538,0.057 6.8196,2.58649 7.8047,6.33593 2.0044,7.62635 0.025,8.28122 -9.0801,3.00391 -8.1274,-4.71073 -7.8988,-8.686 0.5371,-9.31836 0.2475,-0.0185 0.4947,-0.0253 0.7383,-0.0215 z m -344.998,0.66992 c -0.1913,0.0383 -0.3745,0.18745 -0.5449,0.45312 -1.3639,2.12535 -0.8245,9.82514 1.1972,17.11133 4.7843,17.24367 6.3898,14.94205 3.543,-5.07812 -1.0881,-7.65065 -2.8564,-12.75418 -4.1953,-12.48633 z m 234.7812,20.60156 c 3.9853,0.17031 7.0901,1.46814 8.086,4.05078 1.3593,3.52454 0.5186,5.56233 -2.1524,5.22071 -8.6883,-1.11158 -13.2558,0.35027 -13.2558,4.24218 0,2.73969 1.6469,2.60495 5.3261,-0.43359 3.9682,-3.2772 5.3242,-3.33298 5.3242,-0.22266 0,2.29573 1.5186,3.2402 3.3731,2.09961 4.4574,-2.74146 11.8591,11.26806 8.668,16.40625 -1.5251,2.45566 -0.9014,3.02975 1.6113,1.48438 2.2542,-1.3864 4.0976,-0.9313 4.0976,1.01172 1e-4,6.16711 -7.7582,8.58011 -11.3164,3.51953 -2.813,-4.00054 -3.1623,-3.9227 -1.9531,0.43164 0.809,2.91453 5.2785,5.29883 9.9297,5.29883 6.2228,0 9.4168,2.79946 12.0898,10.59765 1.9987,5.82906 5.6398,12.7 8.0918,15.26758 2.4524,2.56754 4.459,6.30014 4.459,8.29492 0,1.99477 7.4148,18.79524 16.4766,37.33399 l 16.4746,33.70703 -8.4883,6.37305 c -4.6686,3.50597 -15.6767,8.32613 -24.4629,10.71093 -8.7863,2.38483 -21.9653,4.97687 -29.2871,5.75977 -11.0544,1.18199 -13.3057,0.33112 -13.2597,-5.01953 0.046,-5.46487 0.5861,-5.63873 3.5507,-1.14453 2.797,4.24031 4.0908,4.38382 6.4707,0.71875 1.6355,-2.51917 9.4442,-4.83864 17.3536,-5.15235 10.9944,-0.43629 13.915,-1.78068 12.3984,-5.71289 -1.2979,-3.36634 -0.5137,-4.24099 2.2695,-2.5293 2.4985,1.53672 6.9518,-0.70353 10.7989,-5.43164 5.259,-6.46273 5.8773,-10.16706 3.1406,-18.8164 -1.8744,-5.92324 -3.5085,-13.15383 -3.6328,-16.06836 -0.1242,-2.91453 -1.472,-6.11985 -2.9942,-7.12305 -1.5223,-1.0032 -5.674,-9.61497 -9.2265,-19.13672 -3.5528,-9.52175 -8.4576,-17.97537 -10.8985,-18.78515 -2.5509,-0.84532 -3.6662,0.53527 -2.625,3.24023 1.2038,3.12654 -1.3391,4.89086 -7.5605,5.24805 -5.1563,0.29601 -10.5856,2.48746 -12.0645,4.86914 -1.4793,2.38168 -4.4804,3.23004 -6.6679,1.88476 -2.2948,-1.4113 -5.3701,1.01306 -7.2715,5.73047 -2.4633,6.11267 -3.3527,6.61453 -3.5196,1.99219 -0.1342,-3.6876 -3.005,-6.18164 -7.1152,-6.18164 -8.1458,0 -10.4446,-3.07033 -12.3555,-16.50391 -0.7821,-5.49624 -3.0064,-17.81677 -4.9433,-27.3789 -3.6938,-18.23348 -2.4564,-26.77344 3.8769,-26.77344 2.0781,0 6.4047,-2.36444 9.6153,-5.25586 5.8388,-5.25843 14.9262,-8.10806 21.5683,-7.82422 z m -137.8906,13.08008 c 5.9548,0 9.3637,1.48843 8.0937,3.5332 -1.2066,1.94302 -0.5014,3.53321 1.5665,3.53321 2.0675,0 3.7597,-1.78393 3.7597,-3.96485 0,-2.73969 1.645,-2.6069 5.3242,0.43164 2.9288,2.41884 5.3243,3.08509 5.3243,1.48047 0,-1.60462 2.796,0.76145 6.2129,5.25781 12.0969,15.91885 25.7718,27.53215 39.8671,33.85743 8.6503,3.88187 14.2715,8.80044 14.2715,12.49023 0,3.34807 0.9983,11.05501 2.2188,17.12695 1.7569,8.74133 1.017,11.04102 -3.5508,11.04102 -3.173,0 -5.7695,-1.90861 -5.7695,-4.24024 0,-3.29723 -0.9466,-3.29723 -4.2598,0 -2.343,2.33163 -5.9361,3.98471 -7.9863,3.67383 -2.0501,-0.31096 -8.8341,-1.19878 -15.0743,-1.97461 -8.1434,-1.01249 -10.7871,-2.85898 -9.3671,-6.54101 1.3817,-3.58278 0.2771,-4.47971 -3.6641,-2.97461 -3.5642,1.361 -9.7047,-1.88699 -16.668,-8.81641 -6.0642,-6.03452 -12.4888,-10.07262 -14.2773,-8.97265 -1.7885,1.09996 -3.252,0.26081 -3.252,-1.86524 0,-2.12605 -2.796,-8.10947 -6.2129,-13.29687 -3.4169,-5.18741 -6.3553,-16.26009 -6.5293,-24.60547 -0.301,-14.45794 0.1694,-15.17383 9.9727,-15.17383 z m -14.9805,7.06641 c 1.9525,0 3.5489,1.59018 3.5489,3.5332 0,1.94302 -1.5964,3.53125 -3.5489,3.53125 -1.9525,0 -3.5508,-1.58823 -3.5508,-3.53125 0,-1.94302 1.5983,-3.5332 3.5508,-3.5332 z m 118.7188,1.18945 c -0.9447,0.0931 -1.5684,0.84871 -1.5684,2.13476 0,2.05769 1.5963,3.74024 3.5488,3.74024 1.9526,0 3.5508,-0.6998 3.5508,-1.55664 0,-0.85684 -1.5982,-2.54133 -3.5508,-3.74219 -0.7321,-0.45032 -1.4136,-0.63201 -1.9804,-0.57617 z m -86.7696,2.69531 c -1.1748,0 -2.3485,0.57287 -3.498,1.7168 -2.299,2.28789 -1.0998,3.48242 3.498,3.48242 4.598,0 5.799,-1.19453 3.5,-3.48242 -1.1494,-1.14393 -2.3251,-1.7168 -3.5,-1.7168 z m -215.2558,7.93555 c 0.3229,0.0487 0.7059,0.59161 1.1308,1.64844 1.0253,2.5502 0.9004,5.59757 -0.2792,6.77148 -1.1797,1.1739 -2.018,-0.91262 -1.8653,-4.63672 0.1065,-2.57218 0.4756,-3.86428 1.0137,-3.7832 z m 23.1894,2.28125 c 1.9863,-0.004 3.2059,3.65686 1.7872,9.74414 -2.1882,9.39026 -2.0744,9.47968 3.371,2.65039 5.6328,-7.06553 5.6322,-7.06553 5.7032,0 0.038,3.88604 -3.7553,13.72329 -8.4317,21.86133 -4.6761,8.13808 -9.5599,19.59237 -10.8535,25.45312 -2.6249,11.8933 -14.9751,18.35941 -19.998,10.47071 -2.1349,-3.35302 -3.0685,-1.87503 -3.1075,4.91992 -0.03,5.34331 -1.651,9.71679 -3.6035,9.71679 -6.0365,0 -4.0092,-34.51764 2.75,-46.82226 11.4136,-20.77739 19.28,-30.86793 22.5137,-28.87891 1.753,1.07799 4.1449,-0.52482 5.3164,-3.5625 1.477,-3.83026 3.1937,-5.5499 4.5527,-5.55273 z m 306.8047,1.98242 c -1.42,-0.12284 -1.5567,1.57782 0.4922,4.87695 1.2869,2.07228 3.9061,3.76758 5.8203,3.76758 1.9145,0 1.4201,-2.22284 -1.0976,-4.9414 -2.2297,-2.40775 -4.1104,-3.60758 -5.2149,-3.70313 z m 29.168,9.92773 c -1.4198,0.17382 -3.6818,2.67601 -5.582,6.36329 -4.0651,7.88816 -3.9716,7.98218 2.1621,2.15234 3.5287,-3.35404 5.4438,-7.06581 4.2539,-8.25 -0.2231,-0.22203 -0.5063,-0.30574 -0.834,-0.26563 z m -41.9629,3.42774 c -3.25,0.2032 -6.0922,2.84735 -6.0391,6.98047 0.036,2.76626 1.1169,2.53883 3.1543,-0.66211 1.8353,-2.88344 5.0682,-3.75204 7.9317,-2.13086 3.7399,2.11751 3.9005,1.72937 0.707,-1.71289 -1.7069,-1.84 -3.8039,-2.59653 -5.7539,-2.47461 z m -23.9141,5.88867 c 1.5481,0 3.6057,5.16566 4.5723,11.48047 1.8297,11.95484 0.3529,17.88386 -2.3262,9.33789 -3.9221,-12.51104 -4.8191,-20.81836 -2.2461,-20.81836 z m 70.3965,0 c -0.9763,0 -4.6671,3.17841 -8.2011,7.06445 -3.5341,3.88604 -5.6267,7.06641 -4.6504,7.06641 0.9762,0 4.667,-3.18037 8.2011,-7.06641 3.534,-3.88604 5.6266,-7.06445 4.6504,-7.06445 z m -104.3867,0.0527 c -2.1382,-0.0298 -6.4172,2.72862 -9.5078,6.12891 l 0,0 c -5.2086,5.7306 -4.9488,6.22109 3.545,6.72461 6.6548,0.39447 7.7994,-0.32982 4.1816,-2.64844 -4.2327,-2.71345 -4.1817,-3.7154 0.3438,-6.67187 2.9288,-1.91327 3.5772,-3.5049 1.4394,-3.53321 z m 8.0293,8.57813 c -1.0795,0.055 -1.3458,0.7562 -0.5684,2.00781 1.1929,1.92077 3.6727,3.49219 5.5098,3.49219 5.1063,0 3.982,-2.53231 -2.168,-4.88086 -1.1848,-0.4524 -2.1257,-0.65213 -2.7734,-0.61914 z m -228.0684,7.11914 c 0.2537,-0.0563 0.5439,0.2703 0.8516,1.0293 0.9848,2.42878 0.9848,6.40325 0,8.83203 -0.9847,2.42878 -1.791,0.44153 -1.791,-4.41602 0,-3.33957 0.3814,-5.32138 0.9394,-5.44531 z m 37.8184,1.91211 c 4.0998,0 4.2439,4.5764 0.2832,9.00977 -1.6494,1.84587 -6.6352,13.29166 -11.082,25.43554 -8.2804,22.61534 -14.3184,28.46635 -14.3184,13.875 0,-9.44774 20.2061,-48.32031 25.1172,-48.32031 z m 562.7559,1.42578 c 0.4959,-0.004 1.1013,0.37052 1.8261,1.0918 2.8031,2.78901 2.8832,6.84151 0.2793,13.95508 -3.6299,9.9129 -3.6723,9.86978 -3.9492,-3.92969 -0.1541,-7.6827 0.3559,-11.10444 1.8438,-11.11719 z m -341.4395,11.04883 c 1.1403,0.3928 4.9378,9.44024 10.7793,26.54687 5.3651,15.71059 8.8378,29.47626 7.7188,30.58985 -2.4729,2.46075 -8.1405,-11.83584 -14.8887,-37.55274 -3.5528,-13.53862 -4.6155,-19.93057 -3.6094,-19.58398 z m 462.14064,6.35351 c -2.23515,-0.12825 -3.48022,4.42388 -2.54492,10.31836 0.2311,1.45727 -1.17641,2.64844 -3.12891,2.64844 -1.9525,0 -3.5978,3.57742 -3.6582,7.94922 -0.10508,7.7436 -0.21578,7.76601 -4.25391,0.88281 -4.01008,-6.83505 -4.22232,-6.77623 -6.51172,1.76758 l -2.36718,8.83203 -3.62891,-8.83203 c -3.55497,-8.65004 -3.68353,-8.55905 -6.20119,4.41602 -3.0399,15.66643 -7.1042,17.00815 -10.707,3.5332 -1.4286,-5.34335 -3.3323,-7.72955 -4.2305,-5.30078 -0.8985,2.42878 -3.1553,4.41601 -5.0137,4.41601 -1.9681,0 -1.7475,-3.03232 0.5274,-7.26171 2.1477,-3.99375 3.2973,-9.07545 2.5547,-11.29297 -0.7431,-2.21748 -4.9309,3.3291 -9.3067,12.32422 -6.8831,14.14925 -7.4408,18.25804 -4.1347,30.47656 2.1857,8.07855 6.4495,14.86535 9.9629,15.85742 6.1859,1.74667 19.5151,1.01408 29.03512,-1.59766 7.36696,-2.02092 20.76725,-18.23985 26.44726,-32.00781 4.94621,-11.98886 3.89023,-33.26266 -1.82421,-36.77734 -0.3562,-0.21908 -0.69632,-0.33324 -1.01563,-0.35157 z m -39.88084,21.25586 c -0.5382,-0.0811 -0.9072,1.20907 -1.0137,3.78125 -0.154,3.7241 0.6855,5.81062 1.8652,4.63672 1.18,-1.1739 1.3048,-4.21934 0.2793,-6.76953 -0.4249,-1.05682 -0.8079,-1.59979 -1.1308,-1.64844 z m -652.1621,29.51368 c 2.9425,-0.0157 6.1295,-0.003 9.5957,0.0351 19.2513,0.2125 36.3924,1.77006 38.0918,3.46094 1.7523,1.74399 1.47,8.91445 -0.6543,16.57031 -2.7744,9.99938 -14.844,24.84536 -46.5821,57.30078 -23.5599,24.09271 -43.8095,43.64316 -44.998,43.44532 -2.3306,-0.38772 -27.0454,-27.3212 -39.3242,-42.85547 l -7.5352,-9.53321 9.1289,-19.20117 c 9.1252,-19.19562 21.0724,-30.7678 44.4453,-43.04687 8.6128,-4.52479 17.2346,-6.06582 37.8321,-6.17578 z m 333.7441,2.43359 c -0.9549,-3e-5 -2.4239,0.7323 -4.1504,2.1582 -2.9288,2.41885 -5.3262,4.94849 -5.3262,5.6211 0,0.6726 2.3974,0.30785 5.3262,-0.81055 2.9287,-1.11844 5.3242,-3.64805 5.3242,-5.62109 0,-0.90465 -0.431,-1.34763 -1.1738,-1.34766 z M -1133,599.52734 c 0.962,-0.0114 2.8543,1.64442 6.5801,4.95508 4.1652,3.70145 13.7135,14.95648 21.2168,25.01172 7.5029,10.05523 16.7269,19.25617 20.498,20.44727 3.7712,1.19111 7.9271,4.88655 9.2363,8.21289 4.182,10.62156 5.0115,75.88807 1.2676,99.66601 -1.9887,12.62964 -4.6739,24.01907 -5.9668,25.3086 -1.2933,1.28953 -10.5596,-6.06318 -20.5937,-16.33985 -24.5245,-25.11743 -62.7771,-44.29492 -88.3535,-44.29492 -23.3316,0 -27.3561,-6.64537 -9.7403,-16.08594 12.6615,-6.78553 43.468,-41.14493 43.6739,-48.71093 0.061,-2.25065 4.8539,-13.59056 10.6504,-25.19922 5.7961,-11.60867 10.5371,-24.17487 10.5371,-27.92578 0,-3.35497 0.032,-5.03348 0.9941,-5.04493 z m 305.59961,14.67188 c 0.32287,0.0487 0.70788,0.59162 1.13281,1.64844 1.02524,2.5502 0.89841,5.59758 -0.28125,6.77148 -1.17967,1.1739 -2.01593,-0.91262 -1.86328,-4.63672 0.1065,-2.57218 0.4736,-3.86428 1.01172,-3.7832 z m -576.36721,0.47656 c 7.4207,0.20702 6.6197,3.36961 -3.9238,7.78125 -13.4637,5.63363 -16.292,5.76404 -19.3223,0.88477 -3.0707,-4.94467 -2.1839,-5.47391 13.1407,-7.82422 4.2444,-0.65097 7.6319,-0.91081 10.1054,-0.8418 z m -111.8515,3.32617 17.2558,8.28321 c 9.4902,4.55581 25.74,9.97804 36.1113,12.05078 21.2961,4.2561 20.2985,2.45361 26.4219,47.71484 2.1513,15.90267 7.8013,42.13385 12.5547,58.29102 7.8846,26.7998 8.1387,29.75366 2.9082,33.66601 -3.1535,2.35869 -7.1691,4.76366 -8.9238,5.34571 -4.8632,1.61313 10.8655,48.92486 20.4824,61.61328 21.0363,27.75375 40.7223,18.78449 115.6699,-52.70118 13.7506,-13.11537 27.4228,-23.8457 30.3828,-23.8457 3.8585,0 4.364,1.24999 1.7832,4.41602 -8.9979,11.03879 -32.7714,60.98213 -32.7714,68.84765 0,7.77297 1.0959,8.48777 9.7636,6.37305 13.4772,-3.28812 19.3264,-9.88236 24.3692,-27.47461 11.9276,-41.61211 15.1376,-47.05478 30.0859,-51.02539 l 14.1231,-3.75195 8.7539,14.86523 c 4.8153,8.17619 8.7558,15.99513 8.7558,17.375 0,1.37989 5.5713,11.17625 12.3809,21.76953 10.5474,16.40842 13.98,19.25977 23.1855,19.25977 19.6258,0 17.5609,-13.11085 -6.1836,-39.26563 -6.9463,-7.65155 -12.0063,-14.5224 -11.2441,-15.26757 0.7618,-0.74516 14.1652,3.78282 29.7851,10.06054 32.4907,13.05816 68.6541,21.071 78.4883,17.39258 12.3444,-4.61715 14.3051,-11.11123 11.3828,-37.69726 -1.5301,-13.9193 -3.6204,-43.23762 -4.6464,-65.15235 -1.0263,-21.91472 -2.0409,-40.99106 -2.2539,-42.39258 -0.9801,-6.46323 0.8242,-8.43372 4.8925,-5.34179 7.3879,5.61462 43.8773,12.71281 54.67,10.63476 9.74931,-1.87716 115.14403,11.97726 137.60347,18.08789 6.03003,1.64068 12.96171,2.30689 15.40234,1.48047 2.44063,-0.82638 4.4375,0.0253 4.4375,1.89453 0,1.86918 4.79094,5.37459 10.64844,7.78907 5.8575,2.41445 10.65039,5.69751 10.65039,7.29492 0,1.59744 4.6563,5.64079 10.34766,8.98632 5.69101,3.3455 11.99282,9.67622 14.0039,14.06836 3.25322,7.10563 1.62402,9.70169 -14.78515,23.55469 -30.4977,25.74738 -106.55907,75.18524 -121.36328,78.88281 -4.93308,1.23209 -9.86186,3.67835 -10.95313,5.43555 -7.15325,11.51801 -112.86384,46.81351 -173.67574,57.98828 -37.5033,6.89157 -164.4399,10.00844 -201.3887,4.94531 -32.5379,-4.4587 -97.6479,-20.00247 -110.4883,-26.37695 -5.7688,-2.8638 -12.7283,-5.20703 -15.4668,-5.20703 -13.1012,0 -111.0799,-47.36729 -140.4355,-67.89258 l -9.8321,-6.87304 10.1895,-12.95899 c 17.3904,-22.11817 59.0071,-86.26539 67.9297,-104.70508 5.9334,-12.26194 8.5702,-24.02452 8.7441,-38.99804 z m -16.6543,100.95899 c -3.9785,0 7.1322,28.64203 16.4453,42.39258 4.6057,6.80057 9.4413,15.94265 10.7441,20.31445 1.3032,4.3718 3.7802,7.94726 5.5059,7.94726 1.7253,0 -0.096,-6.75583 -4.0489,-15.01367 -3.9529,-8.25783 -11.4419,-24.15575 -16.6406,-35.32812 -5.1989,-11.17237 -10.601,-20.3125 -12.0058,-20.3125 z m 628.08785,14.7539 c -1.43384,-0.28599 -6.82707,12.09905 -12.76953,29.58008 -6.55685,19.28939 -14.14185,38.22492 -16.85547,42.08008 -2.71326,3.85517 -4.93164,8.24515 -4.93164,9.75586 0,7.19144 4.44992,0.62711 15.50391,-22.86524 14.56388,-30.95272 20.9228,-50.00806 19.36719,-58.04687 -0.0598,-0.30916 -0.16613,-0.47432 -0.31446,-0.50391 z m -640.22465,7.40039 c -1.4287,-0.10464 -1.3769,3.25765 -0.1093,11.40625 1.2088,7.77208 2.495,16.51711 2.8574,19.43164 0.3625,2.91454 1.2809,-1.67351 2.041,-10.19531 0.8189,-9.17731 -0.3462,-17.10037 -2.8574,-19.43164 -0.815,-0.75656 -1.4554,-1.17606 -1.9317,-1.21094 z m 9.6172,2.75391 c -0.088,0.0417 -0.1381,0.21211 -0.1484,0.52148 -0.1108,3.29999 3.9077,18.94907 8.9316,34.7754 5.024,15.82632 9.7042,28.20839 10.4004,27.51562 0.6962,-0.69278 -3.3223,-16.34186 -8.9316,-34.77539 -5.0835,-16.70543 -9.4046,-28.43972 -10.252,-28.03711 z m 615.61722,0.7793 c -1.31506,0.19612 -4.14982,3.8792 -6.79883,8.97656 -3.02709,5.82553 -8.05035,13.12794 -11.16406,16.22656 -3.1137,3.09863 -4.19777,5.63282 -2.40821,5.63282 5.88023,0 24.34583,-27.20841 20.83594,-30.70118 -0.12092,-0.12035 -0.27698,-0.16278 -0.46484,-0.13476 z m 16.47266,11.34179 c -0.24741,-0.0217 -0.53915,0.0634 -0.8711,0.26758 -1.77038,1.08887 -3.21875,4.27047 -3.21875,7.07031 0,7.31194 2.41245,6.27046 4.58008,-1.97851 0.83042,-3.15959 0.58185,-5.26524 -0.49023,-5.35938 z m -5.0625,16.25196 c -1.73375,-0.40983 -5.79616,10.55233 -7.71094,22.67383 l -2.23242,14.13086 5.40429,-14.13086 c 2.97242,-7.77209 5.38511,-16.51711 5.34961,-19.43164 -0.0218,-2.12194 -0.3251,-3.12744 -0.81054,-3.24219 z m -37.19532,9.8789 c -1.21065,0.19805 -4.45742,2.71205 -9.3125,7.30469 -7.0787,6.69597 -12.86914,13.73031 -12.86914,15.63086 0,4.59493 17.40986,-11.76612 22.07031,-20.74023 0.83057,-1.59922 0.83772,-2.31414 0.11133,-2.19532 z m -592.43946,1.65235 c -0.5381,-0.0811 -0.9072,1.20907 -1.0137,3.78125 -0.1541,3.7241 0.6856,5.81062 1.8653,4.63672 1.18,-1.17391 1.3068,-4.22129 0.2812,-6.77149 -0.4249,-1.05682 -0.8099,-1.59783 -1.1328,-1.64648 z m 565.23438,24.39844 c -0.58106,0.0637 -1.79388,0.94087 -3.77148,2.57421 -2.97348,2.45577 -5.40625,5.06525 -5.40625,5.79883 0,3.9579 6.66663,0.48714 8.57617,-4.46484 1.05176,-2.72737 1.34864,-3.99013 0.60156,-3.9082 z m -195.34178,9.70703 c 0.8612,0 1.5644,1.58823 1.5644,3.53125 0,1.94302 -1.6922,3.5332 -3.7597,3.5332 -2.0679,0 -2.7711,-1.59018 -1.5645,-3.5332 1.2067,-1.94302 2.8989,-3.53125 3.7598,-3.53125 z"
       style="fill:#ffffff"/>
  </g>
</svg>
