<?xml version="1.0" encoding="UTF-8" standalone="no"?>
<!-- Created with Inkscape (http://www.inkscape.org/) -->
<svg xmlns:inkscape="http://www.inkscape.org/namespaces/inkscape" xmlns:rdf="http://www.w3.org/1999/02/22-rdf-syntax-ns#" xmlns:ns1="http://sozi.baierouge.fr" xmlns:dc="http://purl.org/dc/elements/1.1/" xmlns="http://www.w3.org/2000/svg" xmlns:cc="http://web.resource.org/cc/" xmlns:xlink="http://www.w3.org/1999/xlink" xmlns:sodipodi="http://sodipodi.sourceforge.net/DTD/sodipodi-0.dtd" id="svg3135" version="1.0" viewBox="0 0 655.96 1191.1" inkscape:version="0.91 r13725">
  <g id="layer1" transform="translate(-175.62 43.281)">
    <path id="path3212" style="fill:#ffffff" d="m552.07 1147.2c-9.9-0.4-21.15-1-25-1.4-6.84-0.5-9.19-0.9-26.38-4-4.61-0.8-8.74-1.3-9.18-1-0.44 0.2-1.06 0-1.37-0.5-0.32-0.5-2.41-1.2-4.64-1.6s-6.39-1.5-9.25-2.5c-2.85-1-6.66-2-8.48-2.3s-3.91-1-4.65-1.6c-0.73-0.6-1.72-1.1-2.19-0.9-0.47 0.1-2.55-0.5-4.62-1.4-2.07-1-5.81-1.8-8.31-1.9-2.5-0.2-4.74-0.6-4.98-1-0.25-0.4-2.81-1.2-5.7-1.9-2.88-0.7-6.63-2.1-8.32-3.1s-6.65-2.7-11.02-3.7c-4.36-1.1-12.2-3.5-17.42-5.4-5.22-2-11.74-3.8-14.49-4.2-6.08-0.7-18.72-3.1-23.49-4.5-1.92-0.6-6.08-1.1-9.24-1.1-4.95 0-7.05-0.7-15.25-5-5.24-2.7-9.52-4.7-9.52-4.4 0 0.4-0.56 0.2-1.25-0.3-1.09-0.9-15.1-5.6-16.92-5.7-0.36-0.1-1-0.4-1.41-0.8s-1.7-0.8-2.86-0.8-3-0.6-4.09-1.3c-1.08-0.8-4.57-2.8-7.74-4.5-8.79-4.7-25.05-20.2-25.58-24.4-0.85-6.8-0.51-13.5 0.78-15.6 1.43-2.4 8.15-7.2 10-7.2 0.53 0 2.91-1.3 5.27-2.9 3.83-2.6 10.53-5.9 16.3-8.1 1.1-0.5 3.75-1.1 5.89-1.4s5.51-1.6 7.5-3c3.97-2.7 8.96-4.2 16.61-5 2.75-0.3 7.48-0.8 10.5-1.2 3.03-0.3 7.86-1.3 10.75-2.2 5.25-1.5 5.25-1.5 5.25-5.7 0-6.64 1.06-10.36 3.12-11.02 2.69-0.85 2.33-2.93-1.12-6.46-4.12-4.21-4.05-8.98 0.25-16.53 3.11-5.46 3.69-5.91 13.57-10.61 11.81-5.61 21.03-8.35 33.18-9.83 14.03-1.72 24.1-3.76 31.5-6.38 8.32-2.94 18.29-3.97 36.19-3.72 10.19 0.15 13.86-0.16 16.16-1.35 1.79-0.93 8.51-2.02 16.85-2.73 12.34-1.06 14.4-1 18.76 0.48 8.99 3.06 17.25 1.65 21.68-3.7 2.17-2.62 2.73-5.09 3.28-14.44 0.24-4.02 0.97-7.96 1.63-8.75 0.82-0.98 0.88-1.84 0.19-2.69-0.93-1.15 0.02-12.74 1.19-14.63 0.54-0.89 2.39-18.11 3.12-29.12 1.14-17.2 1.5-29.32 1.98-66 0.57-43.73 1.2-68.61 2.1-82.3 0.37-5.61 0.15-14.18-0.51-20-0.82-7.19-0.89-15.22-0.24-27.2 0.59-10.9 0.56-22.56-0.08-32.5-0.91-14.03-0.8-16.93 1.21-30.5 1.21-8.25 2.57-20.4 3.02-27s1.35-19.88 2-29.5c1.2-17.8 0.81-39.94-1.14-64.5-1.08-13.59-2.19-16.89-6.19-18.44-5.27-2.04-8.03-7.09-9.73-17.84-2.04-12.84-7.23-20.68-17.06-25.73-11-5.66-29.91-10.19-51.91-12.44-5.22-0.54-12.42-1.3-16-1.69-3.57-0.4-7.4-0.71-8.5-0.7-6.9 0.06-42.79 1.45-57.5 2.22-9.62 0.5-18.17 0.94-19 0.97-1.81 0.06-20.41 1.75-35.5 3.23-36.96 3.63-71.11 10.26-95 18.46-9.17 3.15-26.85 3.3-38.79 0.33-4.28-1.07-8.13-1.73-8.56-1.47-0.42 0.27-3.86-2.19-7.63-5.46-3.78-3.27-7.45-5.94-8.15-5.94-2.28 0-6.01-6.35-8.21-14-2.44-8.47-2.69-17.15-1.11-39 0.54-7.43 1.43-20.48 1.98-29 0.55-8.53 1.43-17.3 1.96-19.5s1.88-8.5 3-14 2.75-13.51 3.62-17.8 3.49-12.61 5.84-18.5c2.34-5.88 5.25-13.81 6.47-17.61 1.21-3.8 4.54-11.67 7.4-17.48 4.52-9.21 6.43-11.85 14.93-20.55 5.36-5.49 9.75-10.37 9.75-10.83 0-0.47 0.45-0.57 1-0.23s2.46-0.95 4.25-2.85c3.55-3.8 20.11-13.65 22.92-13.65 2.76 0 12.12 3.95 14.4 6.07 1.13 1.06 2.48 1.93 3 1.94 0.51 0 2.2 0.66 3.75 1.47 1.54 0.81 4.93 1.75 7.53 2.09 4.42 0.59 5.04 0.38 9.86-3.44 2.83-2.23 5.97-5.23 6.97-6.65 4.5-6.4 8.46-10.66 15.87-17.08 7.76-6.73 13.85-11.4 14.88-11.4 0.28 0 2.94-1.11 5.9-2.46 4.95-2.27 9.52-3.59 17.04-4.94 1.58-0.28 3.07-0.71 3.31-0.94 0.53-0.53-8.26-13.39-15.72-23.01-10.93-14.09-18.12-26.902-21.12-37.651-1.15-4.125-3.68-11.775-5.61-17-3.31-8.914-3.56-10.411-3.99-24.282-0.42-13.508-0.27-15.298 1.78-20.764 1.77-4.744 2.09-7.051 1.55-11.157-0.71-5.3325-4.82-18.187-6.46-20.175-1.31-1.5905-1.79-7.025-0.67-7.622 0.84-0.453 5.68 6.341 7.12 10 0.32 0.8253 1.01 2.1753 1.52 3.0003 0.51 0.82502 1.2 2.175 1.53 3 0.34 0.825 1.23 2.9175 2 4.6499 1.13 2.5705 1.19 5.0538 0.31 13.5-1.36 13.095-0.27 40.384 1.74 43.45 0.77 1.17 2.08 5.417 2.92 9.44s1.76 7.701 2.05 8.174c0.3 0.473 1.16 4.706 1.92 9.406 1.6 9.891 2.42 11.401 19.04 34.911 10.3 14.58 16.63 21.58 18.14 20.08 0.31-0.31 0.03-3.84-0.61-7.84-1.37-8.49-1.59-12.45-1.32-23.07 0.18-6.79 0.52-8.11 2.66-10.25 1.35-1.35 3.62-2.45 5.06-2.45 3.4 0 14.6 8.77 17.22 13.49 2.22 3.99 2.29 0.58 0.14-7.11-3.51-12.568-3.53-14.477-0.12-18.125 3.95-4.226 7.42-4.983 12.05-2.63 13.68 6.948 24.11 17.675 31.33 32.215 2.37 4.76 4.44 8.86 4.61 9.1 0.16 0.24 1.54-1.06 3.06-2.88 2.92-3.5 6.36-4.25 10.52-2.29 1.2 0.56 4.29 1.77 6.87 2.69 6.47 2.3 14.19 10.86 19.84 22 2.45 4.85 5.4 9.43 6.54 10.18 1.15 0.76 5.65 2.3 10 3.43 4.36 1.14 11.86 3.84 16.67 6 9.88 4.43 9.75 4.4 9.75 2.63 0-1.6-6.07-7.36-11.7-11.11-6.43-4.28-17.14-16.59-28.72-33.02-2.16-3.07-4.52-5.57-5.25-5.57s-1.33-0.93-1.33-2.07c0-3.68-1.8-5.64-5.79-6.28-2.13-0.34-5.63-1.89-7.79-3.45-5.4-3.89-13.32-7.99-16.92-8.74l-3-0.63 2.69-1.416c3.39-1.785 5.94-0.894 15.07 5.276 7.23 4.88 10.67 5.59 13.71 2.84 2.38-2.16 4.03-1.23 4.05 2.28 0 1.48 0.65 3.81 1.42 5.19 0.78 1.37 2.3 4.37 3.39 6.66 1.09 2.3 3.13 4.92 4.53 5.84 1.4 0.91 3.02 3.09 3.6 4.83 0.59 1.74 2.39 4.74 4.02 6.67 1.62 1.92 4.42 5.28 6.23 7.46 10.5 12.64 15.49 16.54 21.19 16.54 2.34 0 2.6 0.38 2.61 3.75 0.03 7.9 11.11 24.13 23.85 34.94 7.88 6.68 19.58 12.34 27.44 13.27 3.19 0.38 5.99 0.37 6.23 0 0.23-0.38-3.16-4.61-7.54-9.41-5.24-5.73-8.37-10.1-9.17-12.76-1.13-3.77-1.05-4.18 1.09-5.92 1.27-1.03 3.16-1.87 4.2-1.87 2.36 0 2.36-0.5-0.03-4.38-1.05-1.72-4.37-9.2-7.38-16.62-5.59-13.85-10.68-24.58-13.74-29-2.97-4.3-5.96-10-5.96-11.38 0-0.72-0.84-2.08-1.88-3.01-1.03-0.94-4.92-7.08-8.64-13.66-5.6-9.884-7.17-11.951-9.09-11.951-1.95 0-5.31-3.535-4.22-4.45 1.78-1.502 5.28-2.541 6.87-2.038 2.53 0.804 2.51-0.702-0.04-3.012-1.1-0.995-2-2.322-2-2.949s-2.14-2.78-4.75-4.784c-7.95-6.104-34.25-33.105-36.62-37.609-1.56-2.95-8.07-12.483-10.32-15.106-6.75-7.873-8.31-9.923-8.31-10.934 0-0.615-0.38-1.118-0.85-1.118-0.46 0-1.64-1.767-2.62-3.928-1.09-2.4207-6.08-7.9641-13.01-14.445-6.62-6.191-11.96-12.082-12.98-14.322-0.96-2.092-3.1-6.64-4.75-10.106-3.35-7.033-4.17-12.699-1.83-12.699 0.81 0 1.75 1.332 2.1 3 0.36 1.65 2.82 7.401 5.48 12.779 4.34 8.802 5.46 10.25 11.2 14.5 11.09 8.2087 13.09 10.203 14.83 14.768 0.94 2.4493 2.09 4.4533 2.57 4.4533 0.47 0 0.89 0.7875 0.93 1.75 0.1 2.1727 2.08 5.2877 8.2 12.854 2.62 3.243 6.86 9.046 9.41 12.896 2.56 3.85 7.61 10.19 11.24 14.089 3.62 3.898 8.83 9.545 11.58 12.548 10.03 10.949 16.81 15.905 34.25 25.042 5.84 3.06 7.68 5.18 5.19 6.007-0.58 0.194 1.88 3.494 5.47 7.333 3.58 3.842 6.54 7.342 6.56 7.782 0.02 0.43 1.57 4.07 3.44 8.07 1.87 4.01 5.07 12.2 7.1 18.21 2.03 6 4.26 11.83 4.96 12.93 0.7 1.11 1.58 3.59 1.96 5.5 0.38 1.92 1.07 4.39 1.55 5.49 0.47 1.1 2.05 6.7 3.51 12.44 1.45 5.74 3.46 11.59 4.45 13s2.05 4.13 2.34 6.06c0.93 6.08 4.02 13.43 6.48 15.37 1.3 1.03 2.12 2.5 1.83 3.26-0.29 0.77-0.03 2.51 0.59 3.87 0.74 1.61 0.81 3.21 0.21 4.55-0.81 1.83-2.05 2.13-10.37 2.58-5.19 0.28-9.71 0.68-10.04 0.88-0.32 0.2 1.63 4.91 4.34 10.46l4.94 10.09 0.09 10.72c0.07 8.32-0.29 11.43-1.61 13.89-2.03 3.77-1.44 7.78 2.82 19.33 5.29 14.34 4.16 41.77-3.21 77.5-1.36 6.6-2.86 14.25-3.34 17s-1.57 8.6-2.42 13c-4.08 21.21-4.13 22.08-3.16 60.93 0.35 13.71 1.02 25.41 1.5 26s0.54 4.22 0.13 8.07c-0.54 5.02-0.36 8.36 0.66 11.84 1.56 5.33 1.99 9.06 2.88 24.66 0.34 6.04 0.17 11.99-0.41 14-0.9 3.11-1.02 2.62-1.11-4.5-0.06-4.4-0.55-8.68-1.08-9.5-1.18-1.83-1.31 4.03-0.33 15.56 0.44 5.22 0.92 7.2 1.43 5.9 0.53-1.36 0.78-0.5 0.83 2.79 0.04 2.61-0.38 4.75-0.93 4.75s-1 0.93-1 2.06 0.34 1.85 0.75 1.59c1.05-0.65 0.46 16.78-0.77 22.87-1.27 6.24 0.19 24.1 2.47 30.43 2.43 6.73 2.86 22.56 2.44 88.55-0.51 79.61-0.35 99.05 1 117.5 0.62 8.52 1.13 29.22 1.14 46 0.03 35.24 1.05 47.36 4.57 53.96 1.32 2.49 2.4 5.5 2.4 6.69 0 2.79 7.39 12.17 10.53 13.36 1.33 0.5 2.98 1.83 3.68 2.95s1.78 2.04 2.41 2.04c0.62 0 1.64 0.61 2.26 1.35 0.76 0.92 2.66 1.22 5.87 0.93 5.9-0.53 25.97 2.88 32.25 5.47 2.89 1.2 17.76 3.25 23.55 3.25 4.28 0 20.53 3.7 30.04 6.84 3.25 1.07 8.39 2.71 11.41 3.63 10.9 3.33 21.85 9.36 30.17 16.61 3.69 3.22 4.92 5.11 5.85 9.02 1.25 5.19 0.82 8.88-1.28 11.08-0.7 0.73-2.08 2.59-3.07 4.1-1.66 2.6-1.68 3.1-0.24 5.3 2.01 3 2.01 8.8 0 11.9-1.5 2.3-1.4 2.6 2.09 7.3 3.82 5.1 5.94 6.1 17.23 7.8 2.33 0.3 4.49 1 4.81 1.5 0.31 0.5 1.34 0.9 2.29 0.9s3.44 0.9 5.53 2c5.06 2.5 16.46 6.4 25.22 8.5 7.78 1.9 17.42 6.4 18.43 8.6 1.37 3 3.6 6.8 6.72 11.5 4.41 6.5 4.36 10.7-0.22 16.5-4.12 5.3-8.27 8.6-12.18 9.5-1.57 0.4-6 2.2-9.85 4s-9.39 3.8-12.32 4.5c-2.92 0.6-7.97 2.2-11.23 3.5-3.25 1.3-7.16 2.4-8.68 2.4s-4.24 0.9-6.04 2-3.97 2-4.81 2-5.44 1.7-10.23 3.7c-8.75 3.6-12.83 4.9-25.69 7.9-3.85 0.9-9.7 2.4-13 3.4-3.3 1.1-7.57 2.2-9.5 2.7-4.52 0.9-4.9 1-5.5 1.3-0.9 0.5-1.91 0.6-8.5 1.4-6.35 0.7-10.35 1.4-20.5 3.5-2.75 0.6-9.18 1.6-14.29 2.1-12.03 1.3-17.26 2.6-25.7 6-9.94 4-40.66 5.6-78.01 4zm55.5-3.4c13.41-1.8 22.06-3.3 22.73-4 0.26-0.2-15.65-0.3-35.37-0.2-35.72 0.2-52.01-0.4-64.36-2.3-3.57-0.6-12.35-1.5-19.5-2.1s-14.35-1.3-16-1.6c-3.52-0.6-8.84-1.2-16.5-1.9-5.03-0.5-5.29-0.4-3 0.8 3.72 2 21.33 5.5 48.5 9.8 17.83 2.7 67.15 3.6 83.5 1.5zm8.5-7.6c26.62-1.2 36.74-2.2 57.27-5.5 14.4-2.3 39.39-7.6 51.73-11 2.75-0.7 6.58-1.7 8.5-2 4.53-0.9 9.9-3.7 8.22-4.2-0.71-0.3-1.83 0-2.5 0.5-1.85 1.5-11.02 2.4-35.72 3.3-12.37 0.5-26.77 1.3-32 1.8-14.31 1.4-127.86 2.4-146 1.3-14.91-0.9-18.99-1.4-20.88-2.6-0.48-0.3-7.29-0.8-15.12-1.1-7.84-0.3-14.53-0.7-14.87-0.8-0.35-0.2-3.33-0.5-6.63-0.6s-8.72-0.6-12.05-1.2c-3.32-0.6-6.47-0.9-7-0.8-0.52 0.1-2.26-0.3-3.86-1-1.6-0.6-3.62-1-4.5-0.9-0.87 0.1-2.6-0.3-3.84-1s-2.25-1-2.25-0.7c0 0.4-0.56 0.3-1.25-0.1-1.61-1.1-2.89-1.3-10.75-1.9-7.87-0.7-8.73-0.9-12.31-2.3-1.55-0.7-5.6-1.2-9-1.2-4.01 0-7.6-0.7-10.19-2-2.52-1.2-6.22-1.9-10-2-3.3 0-7.8-0.5-10-1-2.2-0.6-5.55-1.2-7.44-1.5-1.9-0.3-5.72-1.2-8.5-2.1-2.78-0.8-6.41-1.8-8.06-2.1-1.65-0.2-4.99-1.2-7.42-2s-5.58-1.7-7-1.9c-1.42-0.3-5.05-1.7-8.08-3.1-7.91-3.7-9.19-4.2-12.21-4.6-1.49-0.1-4.51-1.5-6.72-2.9s-5.04-2.9-6.29-3.3-4.75-2.6-7.78-4.9c-3.02-2.3-6.77-5-8.32-5.9-1.54-1-3.68-2.7-4.75-3.7-1.06-1.1-1.93-1.6-1.93-1 0 1.4 17.07 18.1 17.98 17.5 0.43-0.2 2.37 0.6 4.31 1.9 1.94 1.4 7.06 3.7 11.37 5.2 14.98 5.3 18.85 6.6 20.8 7 1.08 0.2 3.78 1.7 6 3.2 6.19 4.3 11.32 6 19.7 6.6 4.21 0.2 8.49 0.9 9.5 1.4 1.01 0.6 4.77 1.3 8.34 1.7 3.58 0.4 6.85 0.9 7.27 1.2 0.42 0.2 4.47 0.7 9 0.9 8.77 0.5 11.42 1.1 10.37 2.1-0.73 0.7 11.26 4.9 17.09 5.9 2.08 0.3 8.95 2.1 15.27 4 6.33 1.8 15.06 4 19.42 4.9 4.35 0.9 8.17 1.8 8.5 2 0.32 0.2 2.61 0.5 5.08 0.6 2.48 0.2 5.18 0.6 6 1 1.96 0.9 23.35 3.7 38.25 4.9 6.46 0.6 14.79 1.5 18.5 2.1 16.35 2.7 53.56 3.5 86.75 1.9zm27-18.9c27.37-1 34.03-1.4 44.5-2.7 3.75-0.5 14.17-1.2 25.5-1.8 3.85-0.1 9.7-0.6 13-0.9l6-0.6-4.5 1.1c-2.48 0.6-3.74 1.3-2.8 1.6 1.76 0.4 4.37-0.3 14.17-3.7 3.22-1.1 6.26-1.8 6.75-1.5 0.48 0.3 3.62-0.2 6.97-1 3.35-0.9 6.44-1.4 6.86-1.1 0.71 0.4 3.22-0.2 19.55-5.1 3.53-1 5.25-1.9 4.17-2.2-1-0.2-3.03 0.1-4.5 0.7-2.46 0.9-4.57 1.3-14.17 2.6-1.92 0.3-5.3 1-7.5 1.5-2.2 0.6-4.9 1.3-6 1.5s-3.24 0.6-4.76 1c-1.52 0.3-10.07 1.2-19 2-8.93 0.9-20.51 1.9-25.74 2.4-5.22 0.5-19.17 1.2-31 1.6-11.82 0.3-24.2 1-27.5 1.5-13.27 2.1-77.23 1.1-78.67-1.3-0.52-0.8-2.02-0.8-5.8 0.2-2.8 0.7-6.25 1-7.66 0.7-1.41-0.4-12.93-0.9-25.6-1.1s-23.27-0.7-23.57-0.9c-0.29-0.3-3.37-0.6-6.83-0.6s-8.37-0.7-10.9-1.5c-2.53-0.9-9.19-2-14.79-2.5-16.58-1.5-27.95-2.9-31.67-4-1.92-0.5-5.52-1-8-1-6.63 0-20.04-2-23.61-3.6-1.71-0.7-7.11-1.6-12-1.9-4.9-0.3-10.47-0.8-12.4-1.2-1.92-0.4-3.95-0.7-4.5-0.8s-2.27-0.7-3.81-1.3c-1.55-0.7-4.03-1.2-5.5-1.2-1.48 0-4.38-0.5-6.44-1-2.07-0.6-4.99-1.3-6.5-1.5-1.51-0.3-4.1-0.7-5.75-1-2.95-0.5-2.94-0.5 0.5 1.1 1.93 0.9 6.2 2.3 9.5 3.2 3.3 0.8 7.23 2.1 8.73 2.9 1.49 0.7 7.65 1.7 13.67 2.2s11.54 1.3 12.27 1.7c1.36 0.9 2.5 1 11.51 1.3 2.85 0.1 5.79 0.7 6.54 1.5 0.75 0.7 4.49 1.7 8.32 2 3.83 0.4 10.34 1.4 14.46 2.3 4.13 0.9 9.3 1.9 11.5 2.3 2.2 0.5 7.72 1.5 12.27 2.4 4.99 1 10.27 1.5 13.33 1.1 2.79-0.3 4.85-0.2 4.58 0.2-0.27 0.5 4.08 0.8 9.67 0.8 11.08 0 22.42 1.1 24.09 2.4 0.58 0.4 6.9 0.8 14.04 0.9 7.13 0 13.1 0.4 13.25 0.9 0.38 1.1 69.33 0.8 105.77-0.6zm-99.5-8.2c-7.78-1.2-8.26-1.3-10.57-2.6-1.14-0.6-6.99-1.7-13-2.3s-11.93-1.3-13.16-1.5c-2.03-0.5-2.14-0.3-1.17 1.8 0.59 1.3 1.59 2.5 2.24 2.6 4.36 0.6 32.09 2.9 36.16 2.9h5l-5.5-0.9zm181.5-3.4c11-0.8 22.93-2.2 26.5-3.1 3.58-0.8 10.55-2.3 15.5-3.2s9.45-2 10-2.3 3.24-1 5.97-1.3c2.73-0.4 8.77-2.6 13.41-4.8 4.65-2.2 9.5-4.4 10.78-4.8 2.02-0.8 2.34-1.6 2.34-5.9 0-4.4-0.44-5.5-3.83-9-4.19-4.4-16.89-10.9-22.88-11.6-1.99-0.3-4.14-0.9-4.78-1.5-1.07-0.9-2.48-1.2-11.01-2.5-4.32-0.6-5.56-1-9.72-2.8-4.56-2.1-5.85-2.1-9.45-0.2-1.55 0.8-4.63 2.3-6.83 3.2-2.72 1.2-3.44 1.9-2.25 2.1 2.35 0.5 2.23 2.3-0.19 2.9-1.63 0.4-1.78 0.9-0.94 3.1 1.35 3.6 0.2 9.5-2.7 13.8-1.33 1.9-2.42 3.9-2.42 4.3s-1.24 2.1-2.75 3.8c-2.95 3.2-12.23 7.4-23.75 10.5-3.85 1-8.35 2.5-10 3.3-1.65 0.7-6.15 1.7-10 2-7.43 0.8-12.27 2.4-7.25 2.5 1.51 0 3.61 0.9 4.66 1.9 2.53 2.6 4.14 2.8 13.59 1.9 4.4-0.4 17-1.4 28-2.3zm-173.13-1c1.57-0.8 5.28-1.5 8.23-1.5 6.41 0 14.57-2 14.08-3.4-0.23-0.7-8.31-1.1-23.26-1.1-12.61 0-23.38-0.3-23.95-0.7-0.56-0.3-5.95-0.9-11.98-1.3-6.02-0.3-11.33-0.9-11.79-1.2-0.47-0.3-3.63-0.9-7.03-1.3-3.39-0.4-8.19-1.1-10.67-1.5-4.26-0.7-4.38-0.6-2.38 0.9 1.17 0.8 4.1 1.8 6.5 2.2 2.41 0.3 6.49 1.4 9.07 2.5 2.57 1.1 6.85 1.9 9.5 1.9 5.6 0 26.65 3.4 30.31 4.9 3.72 1.5 10.12 1.3 13.37-0.4zm126.63-5c12.95-2.4 25.41-6.2 33-10 1.38-0.7 4.81-1.8 7.63-2.4 3.3-0.8 6.13-2.3 7.93-4.1 4.13-4.4 2.41-4.6-3.9-0.5-3.06 1.9-6.42 3.5-7.46 3.5-1.05 0-3.99 1.1-6.55 2.5-4.78 2.5-12.48 5-18.65 6-5.98 0.9-36.9 2.5-49.58 2.5-6.65 0-12.4 0.3-12.78 0.7-0.39 0.4 1.23 1.4 3.58 2.3 5.66 2.1 34.47 1.8 46.78-0.5zm118-3.5c1.22-0.8 1.09-1-0.69-1-1.2 0-2.47 0.5-2.81 1-0.79 1.3 1.53 1.3 3.5 0zm-218.46-4.4c-0.61-3.9-0.44-4.2 5.42-9.6 3.32-3.1 6.04-6.1 6.04-6.6s-7.8-1-17.57-1.2c-10.23-0.2-18.68-0.8-20.25-1.4-1.81-0.8-14.38-1.2-38.68-1.4-33.46-0.2-40.04-0.5-44.78-2-2.96-0.9-4.68 1.3-3.69 4.7 2.26 7.9 7.43 12.8 14.34 13.6 2.27 0.2 7.51 1.1 11.63 1.9 4.13 0.8 9.61 1.4 12.19 1.4s4.94 0.4 5.24 0.9c0.31 0.5 6.05 1 12.77 1.1 6.72 0 12.68 0.5 13.26 1 1.54 1.3 5.99 1.5 26.38 1.5h18.34l-0.64-3.9zm92.46 0.9c6.33-0.3 12.63-0.8 14-1.1 1.38-0.2 4.75-0.7 7.5-1 2.75-0.4 9.05-2.5 14-4.8s11.86-5.5 15.36-7.1c8-3.7 11.14-7.3 11.14-12.6v-4l-4.25 0.2c-2.34 0.2-4.7 0.6-5.25 1-1.37 0.9-16.02 2-34 2.5-14.32 0.4-16.32 0.8-22.83 4-1.56 0.8-3.51 1.4-4.35 1.4-0.83 0-2.7 0.7-4.16 1.5-2.97 1.7-40.43 4.6-42.49 3.3-0.64-0.4-3.53-0.8-6.42-0.8-5.18 0-5.25 0.1-5.25 3.1 0 1.6-0.74 4.1-1.64 5.5-1.54 2.3-1.52 2.6 0.25 3.9 1.04 0.8 2.63 1.2 3.54 0.9 0.9-0.2 4.28 0.7 7.5 2.2 3.22 1.4 6.85 2.9 8.06 3.3 2.22 0.6 27.73-0.1 49.29-1.4zm134.65 0.4c3.16-1.1 4.25-3.3 1.23-2.4-3.21 1-7.88 3.4-7.88 4.1 0 0.5 2.36 0 6.65-1.7zm-413.89-0.9c-1.1-1.8-0.94-2.4 1.19-4.1 2.74-2.3 1.92-3.4-3.2-4.5-1.51-0.4-2.75-1-2.75-1.4 0-0.5-1.32-1.1-2.93-1.5-1.6-0.3-3.59-1.6-4.4-2.9-0.84-1.2-4.89-3.6-9.33-5.5-17.57-7.3-23.3-15.1-18.9-25.6 1.09-2.6 2.79-4.1 6.94-6.1 4.68-2.3 5.36-3 4.54-4.5-1.87-3.5-4.12-3.8-16.01-2.3-13.76 1.8-17.88 2.9-24.37 6.7-2.73 1.6-5.73 3.1-6.67 3.2-3.41 0.7-10.4 5.2-11.65 7.6-1.66 3.1-0.68 12.1 1.75 16.1 2.41 4 4.42 5.2 11.53 7.3 3.3 0.9 8.03 2.6 10.5 3.7 2.48 1 5.4 2.3 6.5 2.8s4.25 1.4 7 1.9c2.75 0.6 7.25 1.6 10 2.2s9.41 1.9 14.8 2.9c5.39 1.1 10.33 2.3 10.98 2.7 0.93 0.6 9.38 2.4 14.98 3.2 0.42 0.1 0.19-0.8-0.5-1.9zm425.06-4.9c0.33-1-0.06-1.2-1.43-0.6-1.04 0.4-2.45 0.8-3.14 0.8s-1.25 0.6-1.25 1.3c0 1.7 5.21 0.3 5.82-1.5zm-474.32-0.1c-0.34-0.5-1.52-1-2.62-1s-1.72 0.5-1.38 1c0.34 0.6 1.52 1 2.62 1s1.72-0.4 1.38-1zm86.74-2.3c1.52-1.1 2.76-2.9 2.76-3.9 0-1.6-1.06-1.8-11.53-1.8-10.37 0-12.31-0.3-19.25-2.9-4.25-1.7-9.97-3.5-12.72-4.2-2.75-0.6-5.67-1.4-6.5-1.7-0.82-0.3-1.72-0.6-2-0.6-3.17-0.6-8.87-4.8-14.78-11-5.92-6.2-7.22-8.1-7.25-10.8l-0.04-3.3-1.96 2.4c-1.08 1.3-1.97 3.2-1.97 4.3 0 5.3 6.46 12.1 15.5 16.4 7.64 3.5 21.1 10.3 25 12.4 1.65 0.9 4.24 2 5.75 2.4 1.51 0.3 2.75 1.3 2.75 2.1 0 0.9 0.45 1.5 1 1.5s1-0.4 1-0.9c0-1 5.9-1.2 7.5-0.2 2.35 1.5 8.23 2.7 10.99 2.3 1.65-0.3 4.24-1.4 5.75-2.5zm-95.79-0.6c-1.15-1-6.45-2.3-6.45-1.6s4.03 2.4 5.95 2.5c0.88 0 1.08-0.3 0.5-0.9zm491.27-3c2.43-3.6 3.31-9.5 1.08-7.3-1.96 2-2.8 1.4-2.8-1.9 0-3.7-4.3-8.1-13.36-13.6-5.7-3.5-30.04-12.5-44.09-16.4-3.83-1-7.41-2.3-7.95-2.9-1.63-1.6 0.26-1.2 14.4 3 7.34 2.2 13.8 4 14.37 4 4.15 0-10.41-5.5-21.37-8.1-3.02-0.7-5.93-1.6-6.45-2.1-0.52-0.4-1.65-0.8-2.5-0.8-1.2 0-1.57 1.3-1.65 5.6-0.06 3.5 0.21 5.1 0.74 4.1 0.64-1.1 1.65-1.3 4.1-0.7 18.79 4.5 39.09 12.2 49.07 18.8 3.91 2.6 7.86 6.1 9.25 8.3 2.49 4 3.13 7.4 1.58 8.3-0.48 0.3-0.65 1.7-0.38 3.1 0.66 3.5 3.06 2.9 5.96-1.4zm-500.22-0.1c-0.34-0.5-1.38-0.9-2.31-0.9-1.38 0-1.32 0.2 0.31 0.9 2.68 1.2 2.71 1.2 2 0zm493-2c0.34-0.5 0.17-1-0.38-1s-1.28 0.5-1.62 1c-0.34 0.6-0.17 1 0.38 1s1.28-0.4 1.62-1zm-500.92-0.9c-0.72-1.1-5.58-2-5.58-1 0 0.4 0.79 1 1.75 1.2 3.02 0.8 4.39 0.8 3.83-0.2zm107.96-3.1c0.37-0.6 1.26-0.9 1.98-0.6 0.73 0.3 2.51-0.6 3.95-1.9 1.45-1.4 3.48-2.5 4.52-2.5 2.54 0 3.29-1.4 2.52-4.9-0.75-3.5-1.7-3.9-10.23-4.7-3.61-0.3-7.74-1-9.17-1.6-1.44-0.5-5.08-1.4-8.11-1.9-12.65-2-18.72-3.6-22.51-6.1-4.5-2.8-18.48-7.8-22.03-7.8-3.11 0-4.04 3.3-2.1 7.4 0.85 1.7 4.37 5.9 7.84 9.2 5.8 5.6 6.98 6.3 14.8 8.3 4.68 1.2 10.48 3.2 12.91 4.3 2.42 1.1 6.25 2.3 8.5 2.8 6.09 1.2 16.38 1.2 17.13 0zm-117.54-0.4c0-0.2-0.79-1-1.75-1.7-1.58-1.3-1.62-1.2-0.38 0.4 1.31 1.6 2.13 2.2 2.13 1.3zm506.61-2.3c-1.02-1-1.86 0.5-1.03 1.9 0.63 1 0.87 1 1.21 0 0.23-0.7 0.15-1.6-0.18-1.9zm-171.11-0.9c9.14-0.9 19.72-3.4 24.98-5.9 4.11-2 7.36-2.6 15.61-3 5.72-0.3 14.84-0.7 20.25-1s10.65-0.9 11.65-1.5c1-0.5 4.44-1.2 7.66-1.5 8.16-0.7 23.58-8.4 25.75-12.9 1.33-2.7 1.34-3.1 0.05-3.4-0.82-0.2-2.77 0.8-4.35 2.1-6.05 5.1-21.68 9.3-37.6 10.1-4.95 0.3-10.26 1-11.81 1.5-1.54 0.6-7.28 1.1-12.75 1-8.66 0-11.18 0.4-19.65 3.2l-9.72 3.2-24.33-0.6c-26.92-0.7-26.42-0.8-24.58 5.6 0.86 3 1.22 3.3 6.87 3.9 5.89 0.6 22.24 0.2 31.97-0.8zm-50.69-3.8c-0.11-3-0.37-3.4-1.9-2.5-1.68 0.9-16.01 1.6-34.86 1.8-5.33 0.1-8.1 0.5-7.5 1.1 1.53 1.5 12.8 2.6 29.17 2.9l15.22 0.2-0.13-3.5zm218.3 0.1c-1.29-1.3-2.59-0.3-1.64 1.3 0.37 0.6 1.13 0.8 1.69 0.4 0.68-0.4 0.66-1-0.05-1.7zm-275.73-0.7c0.49-0.5-0.86-1.2-3-1.5-2.13-0.4-4.33-1.1-4.88-1.5-2.71-2-18.23-4-25.95-3.4-6.32 0.5-9.88 0.2-16.55-1.4-9.98-2.4-25.1-3.3-25.71-1.5-0.22 0.6 0.86 2.6 2.4 4.3 3.07 3.4 6.75 4.3 24.81 5.9 10.65 0.9 47.62 0.2 48.88-0.9zm290.62 0c0-0.5-0.45-1-1-1s-1 0.5-1 1c0 0.6 0.45 1 1 1s1-0.4 1-1zm-19.39-3.7c-1.02-1-1.86 0.5-1.03 1.9 0.63 1 0.87 1 1.21 0 0.23-0.7 0.15-1.6-0.18-1.9zm-225.14-0.9c13.62-0.8 14.53-1.6 14.53-11.9v-5.4l-7.75 0.2c-4.26 0.1-11.03-0.4-15.04-1-5.08-0.9-8.58-1-11.5-0.3-7.3 1.7-32.11 1.9-42.58 0.4-5.29-0.8-15.03-1.8-21.63-2.4-12.78-1-26.88-2.5-37.5-3.9-7.57-1-8.55-0.5-10.07 5.2-0.94 3.5-0.84 4.2 0.74 5.7 2.7 2.5 9.13 4 21.14 5 5.88 0.5 12.94 1.4 15.69 2.1s10.85 1.3 18 1.5c8.57 0.1 16.24 0.9 22.5 2.3 5.23 1.2 11.98 2.1 15 2.1 3.03 0 6.18 0.5 7 1.1 1.41 0.9 9.11 0.8 31.47-0.7zm-293.28-2.4c-1.19-1.1-2.83-3.3-3.64-4.9-1.32-2.5-1.28-3.3 0.45-8.1 1.06-2.9 2.68-6.1 3.62-7.1 2.73-3 0.21-2.1-3.96 1.4-2.81 2.4-4.04 4.3-4.58 7.3-0.98 5.4-0.31 6.9 4.86 11 4.56 3.6 7.02 3.9 3.25 0.4zm369.93-2.6c3.14-2.8 10.53-4.3 21.61-4.2 9.23 0 27.58-1.7 37.77-3.6 1.65-0.3 5.09-0.7 7.64-1 5.34-0.5 18.53-6.7 21.09-9.9 2.27-2.9 2.19-8.6-0.17-11.4-2.51-3-3.65-2.9-8.06 1.1-5.56 5-16.67 8.3-32.53 9.5-15.28 1.2-39.39 3.9-41.32 4.6-3.76 1.4-30.7 2.5-38.2 1.6-4.43-0.6-10.69-0.8-13.91-0.4-6.46 0.6-6.37 0.5-7.7 11l-0.53 4.2 8.84 0.4c4.87 0.3 16.71 0.3 26.31 0 13.87-0.3 17.81-0.7 19.16-1.9zm157.11-0.1c-0.69-0.3-1.84-1-2.54-1.7-1.75-1.8-6.17-3.2-5.25-1.7s7.92 5.1 8.56 4.4c0.28-0.3-0.07-0.8-0.77-1zm-539.22-3.8c-0.66-2-0.94-4.6-0.63-5.9 0.79-3.1 8.18-11.3 11.99-13.3 1.72-0.8 3.36-1.9 3.63-2.3 0.28-0.4 3.65-1.9 7.5-3.5 8.18-3.2 11.98-5.5 9.21-5.5-0.95 0-2.52 0.4-3.47 1-0.96 0.5-5 2.3-8.99 4.1s-7.25 3.5-7.25 3.8c0 0.4-1.44 1.3-3.21 2.1-4.45 1.9-9.29 7-10.87 11.4-0.73 2-1.73 3.6-2.23 3.6-1.25 0-0.1 2.7 2.57 6 2.82 3.5 3.26 3.1 1.75-1.5zm161.99 1.6v-2.9l-10.75-0.4c-9.93-0.3-11.32-0.6-18.25-3.9-4.12-2-9.97-4.2-13-4.9-3.02-0.6-8.2-1.8-11.5-2.6s-7-1.6-8.22-1.7c-1.23-0.2-2.53-0.6-2.89-1-0.37-0.3-1.08-0.4-1.58-0.1-1.09 0.7 0.95 3.4 2.56 3.4 0.62 0 2.33 0.7 3.78 1.4 1.46 0.8 4.39 2 6.5 2.6 2.12 0.7 4.98 2.1 6.35 3 1.38 0.9 6.1 2.5 10.5 3.4s10.93 2.4 14.5 3.3c5.52 1.4 12.93 2.5 20.25 3.2 1.3 0.1 1.75-0.6 1.75-2.8zm-147-1.5c0-1.2 0.79-3.1 1.75-4.2s2.44-3.3 3.29-4.9c0.84-1.6 2.41-3.1 3.5-3.3 1.08-0.2 2.19-0.7 2.46-1.1 1.07-1.5 6.88-5.1 8.16-5.1 0.74 0 2.55-0.6 4.02-1.4 1.48-0.8 4.18-1.7 6-2.1 1.83-0.4 4.12-1.3 5.1-2 1.02-0.7 3.47-1 5.75-0.8 2.36 0.3 3.97 0.1 3.97-0.5 0-0.9 5.32-2.2 11.02-2.6 0.83-0.1 2.07-0.5 2.74-0.9s3.19-0.6 5.61-0.3c3.5 0.4 4.74 0.2 6.15-1.4s1.52-2.2 0.53-3.4c-0.67-0.8-0.93-2-0.58-2.5 0.95-1.6-3.72-1.3-13.47 0.8-4.67 1-13.22 2.9-19 4.1-10.04 2.1-23.38 6.9-25.5 9.2-1.5 1.6 3.55 0.2 10.13-2.8 5.7-2.6 6.88-3 13.87-4.4 2.2-0.4 5.71-1.3 7.81-1.9 2.09-0.7 4.57-1 5.5-0.8 1.68 0.3-4.74 2.5-14.31 4.8-2.75 0.7-6.83 2-9.07 3s-6.4 2.5-9.25 3.5c-2.85 0.9-5.18 2-5.18 2.5 0 0.4-1.64 1.3-3.64 2-5.08 1.6-12.58 10.5-11.98 14.1 0.42 2.6 2.74 5.9 3.67 5.3 0.52-0.3 0.95-1.6 0.95-2.9zm52-32.4c0-1 9.18-3.2 12.83-3.1 2.05 0.1 1.62 0.4-1.83 1.3-7.26 2-11 2.6-11 1.8zm447 34.8c0-0.5-0.67-1-1.5-1-0.82 0-1.5 0.5-1.5 1 0 0.6 0.68 1 1.5 1 0.83 0 1.5-0.4 1.5-1zm26-1.4c0-0.2-0.7-0.6-1.55-1-0.89-0.3-1.29-0.1-0.94 0.4 0.59 1 2.49 1.4 2.49 0.6zm-38-2.6c0-0.5-0.45-1-1-1s-1 0.5-1 1c0 0.6 0.45 1 1 1s1-0.4 1-1zm28 0c0-0.5-0.45-1-1-1s-1 0.5-1 1c0 0.6 0.45 1 1 1s1-0.4 1-1zm-34.5-1c0.34-0.5-0.11-1-1-1s-1.34 0.5-1 1c0.34 0.6 0.79 1 1 1s0.66-0.4 1-1zm29.07-1.9c-0.69-1.1-6.57-2-6.57-1 0 0.7 2.36 1.4 5.81 1.8 0.72 0.1 1.06-0.3 0.76-0.8zm-361.02-3.5c1.95-4.7 1.84-8.2-0.3-9.1-0.96-0.4-6.47-1.1-12.25-1.5-5.77-0.5-11.69-1.2-13.14-1.4-6.2-1.3-22.24-5.7-23.97-6.6-1.04-0.6-1.89-0.8-1.89-0.5 0 0.4-0.56 0.3-1.25-0.2-0.69-0.4-1.47-0.8-1.75-0.9-0.8-0.1-4.24-1.5-7.65-3-1.73-0.8-3.65-1.4-4.25-1.4s-1.1-0.4-1.1-1c0-0.5-1.07-1-2.38-1-1.7 0-2.73 0.9-3.62 3-1.11 2.7-0.99 3.4 1.13 6.6 2.58 3.9 8.4 7.4 12.15 7.4 1.3 0 4.58 0.7 7.29 1.5 2.71 0.7 6.37 1.6 8.13 1.9 4.77 0.7 10.2 2.5 15.91 5.2 7.5 3.7 10.01 4.2 19.19 4.3l8.3 0.1 1.45-3.4zm319.6 1.9c0-0.5-0.48-1.1-1.07-1.3s-1.08 0.4-1.08 1.3 0.49 1.5 1.08 1.3 1.07-0.8 1.07-1.3zm31.83-1c-0.69-0.8-1.47-1.3-1.72-1.1-0.69 0.7 0.71 2.6 1.92 2.6 0.67 0 0.59-0.6-0.2-1.5zm-487.55-2.6c-0.65-1.1-2.43-0.2-2.43 1.1 0 0.5 0.67 0.7 1.5 0.4 0.82-0.3 1.24-1 0.93-1.5zm289.82-2.8c2.17-0.8 2.75-1.7 2.75-4.1v-3l-3.15 1.6c-2.47 1.3-4.92 1.5-11.27 1.1-4.46-0.3-8.8-0.8-9.62-1.1-0.83-0.4-10.95-1-22.48-1.5-11.54-0.6-24.35-1.7-28.48-2.5-4.71-1-17.34-2-34-2.6-14.57-0.5-27.48-1.2-28.68-1.5-2.72-0.8-6.66 2.5-5.77 4.8 0.43 1.1 2.55 1.8 7.28 2.2 3.67 0.4 9.82 1.1 13.67 1.6 7.96 1.1 18.65 2.3 36 4.1 12.09 1.3 47.15 1.6 57.66 0.6 3.11-0.4 8.06-0.1 11 0.6 6.12 1.4 11.13 1.3 15.09-0.3zm57.25-1c22.82-1.8 34.86-3 40.39-4.1 2.96-0.5 8.14-1 11.5-1 8.87 0 17.82-1.7 25.44-4.7 6.57-2.7 6.5-4.5-0.09-2.4-3.52 1.2-21.6 2.8-52.24 4.6-4.95 0.2-12.15 1.2-16 2-5.67 1.2-11.4 1.4-30.25 0.9l-23.25-0.7v2.7c0 3-0.02 3 11 2.7 4.13-0.1 8.85 0.2 10.5 0.7s4.58 0.8 6.5 0.7c1.93-0.2 9.35-0.8 16.5-1.4zm-350.5-6.6c1.69-2-0.74-2-3.44 0.1-1.91 1.4-1.91 1.4 0.13 1.4 1.14 0 2.63-0.7 3.31-1.5zm292.68-1.1c4.44-2.1 5.69-5.2 3.87-9.6-2.1-5-4.35-6.4-12.64-7.7-7.72-1.2-25.47-0.6-27.41 0.9-0.55 0.5-4.77 1.6-9.38 2.5-11.79 2.4-16.33 1.6-25.62-4.5-4.06-2.7-8.7-4.8-11.69-5.3-1.36-0.3-6.17-1.7-10.69-3.1-9.33-2.9-15.87-3.3-20.17-1.1-1.62 0.9-2.95 1.2-2.95 0.8s-0.54-0.1-1.2 0.5c-0.67 0.7-3.9 1.2-7.35 1.2h-6.15l0.9 5.8c0.61 3.8 0.55 6.5-0.18 8.1-0.6 1.3-0.96 2.5-0.81 2.6 1.44 1.2 16.44 2.5 29.49 2.5 14.15 0 23.45 0.9 36.3 3.6 1.38 0.3 12.18 1 24 1.5 11.83 0.6 23.75 1.4 26.5 1.8 7.92 1.4 11.45 1.2 15.18-0.5zm66.32-0.9c3.58-0.8 11.45-1.7 17.5-2 18.02-1 40.55-3.3 48.53-5 12.01-2.6 19.97-7.6 19.97-12.5 0-5-1.42-5.3-17.67-3.4-11.83 1.3-16.06 2.2-20.89 4.4-3.34 1.6-7.84 3.2-10 3.5-2.17 0.4-5.65 1.3-7.75 2.1-5.06 1.9-21.16 1-28.54-1.7-4.29-1.5-8.63-2-22-2.2-9.16-0.2-20.21 0.2-24.56 0.8-8.8 1.2-9.39 1.8-9.52 9.1-0.11 6.5 0.88 6.8 19.32 7.2 8.86 0.2 16.3 0.6 16.53 0.8 0.95 0.9 13.05 0.2 19.08-1.1zm-217.35-1c0.87-2.3-0.75-3.5-5.26-4-2.14-0.2-6.36-0.7-9.39-1.1-3.02-0.3-9.1-0.7-13.5-0.9-9.22-0.3-10.34-0.5-13.6-2.6-1.32-0.9-5.84-2.3-10.04-3.3-15.09-3.3-23.86-10.2-23.86-18.7 0-4.43-1.63-5.18-2.62-1.23-0.68 2.73 1.61 10.83 4.27 15.13 0.77 1.2 2.22 2.2 3.23 2.2s4.86 1.6 8.55 3.5c3.7 1.9 7.51 3.5 8.48 3.5s2.07 0.3 2.44 0.7c1.13 1.1 7.83 3.2 12.63 3.9 2.47 0.4 5.85 1.3 7.5 1.9 1.66 0.7 5.95 1.3 9.52 1.5 3.57 0.1 6.62 0.3 6.76 0.4 0.15 0.2 3.42 0.4 7.27 0.5 5.65 0.2 7.11-0.1 7.62-1.4zm-85.65-3.1c0-1.3-0.27-1.4-1.5-0.4-0.82 0.7-1.5 1.4-1.5 1.6s0.68 0.4 1.5 0.4c0.83 0 1.5-0.7 1.5-1.6zm3.73 0c-0.33-0.3-1.19-0.4-1.92-0.1-0.79 0.4-0.56 0.6 0.61 0.6 1.05 0.1 1.64-0.2 1.31-0.5zm82.27-5.6c0-1 1.13-3.5 2.5-5.6 2.72-4 3.41-10.9 1.3-13-0.66-0.6-2.95-1.2-5.09-1.2-3.83 0-16.1-3.12-20.39-5.19-2.37-1.15-3.09-1.01-11.32 2.16-7.07 2.73-14.92 2.53-20.47-0.57-2.21-1.23-6.92-3.23-10.44-4.44-6.18-2.13-6.47-2.14-7.75-0.38-2.01 2.74-1.63 5.02 1.41 8.62 1.51 1.8 3.24 4.2 3.85 5.3 1.91 3.5 7.18 6.3 15.15 7.9 4.26 0.9 9.55 2.6 11.75 3.8 3.35 1.8 6.33 2.3 18.27 2.9 7.85 0.3 14.53 0.9 14.85 1.2 0.31 0.3 1.88 0.5 3.48 0.5 2.16-0.1 2.9-0.6 2.9-2zm16-7.5c0-6-2.86-17.49-4.15-16.69-1.19 0.74-1.06 4.59 0.33 9.79 0.94 3.5 0.9 5-0.24 7.7-0.78 1.9-1.42 4.6-1.43 6l-0.01 2.6 2.75-2c2.4-1.8 2.75-2.7 2.75-7.4zm-125.5 3.2c2.75-0.7 10.04-2.1 16.19-3 7.44-1.2 11.37-2.2 11.73-3.1 0.59-1.6-2.78-1.5-5.24 0-0.73 0.5-3.88 1.1-7 1.3-3.12 0.3-6.46 1-7.42 1.5s-3.28 0.8-5.16 0.7c-1.88-0.2-4.02 0.2-4.76 0.8-0.73 0.6-2.01 1.1-2.84 1.2-3.83 0.3-8.08 1.4-8.64 2.3-0.7 1.2 5.3 0.4 13.14-1.7zm218-3c1.65-0.4 5.08-1.4 7.62-2.2 4.73-1.5 16.52-1.4 30.86 0.3l6.49 0.8-1.55-2.4c-1.57-2.3-2.23-2.6-9.42-3.5-2.2-0.3-7.52-1-11.83-1.6-9.47-1.4-19.1-0.6-27.54 2.2-3.44 1.1-7.02 1.8-7.95 1.5-0.92-0.3-3.93-0.6-6.68-0.7s-6.27-0.8-7.82-1.6-3.65-1.3-4.67-1.1c-2.57 0.4 6.59 6.7 13.01 8.8 4.8 1.7 11.39 1.5 19.48-0.5zm142-1.4c10.72-3.7 17.33-5.3 27.25-6.6 6.19-0.8 13.64-2.4 16.55-3.5 5.22-1.9 12.72-8.3 11.38-9.64-0.38-0.37-2.82 0.27-5.43 1.44-6.68 2.98-10.63 4-18.25 4.71-9.65 0.89-18.8 2.49-25.5 4.59-15.96 4.8-19.6 5.1-43 4.4-38.49-1.2-44.84-1.5-45.33-2-0.84-0.8-3.17 1.7-3.17 3.4 0 1.5 2.27 1.7 24.25 1.7 19.79 0 25.17 0.3 29.25 1.7 3.85 1.2 7.77 1.5 17 1.2 6.6-0.2 13.35-0.8 15-1.4zm-90.72-9.4c-0.43-3.4-1.06-8.54-1.4-11.41-1.03-8.64-2.53-4.89-1.83 4.57 0.77 10.44 2.38 17.54 3.36 14.84 0.36-1 0.3-4.6-0.13-8zm-54.78 0.6c1.38-0.6 4.98-1.1 8.01-1.2 3.02-0.1 6.85-0.4 8.5-0.6 2.88-0.4 23.15 2 26.75 3.1 2.61 0.8 3.28-2.2 1.37-6.23-2.73-5.73-7.24-7.01-27.26-7.74-16.21-0.59-17.48-0.79-23.72-3.62-3.63-1.64-7.68-2.99-9-2.99-1.31 0-5.71-1.17-9.77-2.61-4.14-1.46-10.89-2.88-15.38-3.25-5.93-0.47-9.03-1.27-12-3.09-2.2-1.34-4.22-2.74-4.5-3.1-0.27-0.36-1.85-0.98-3.5-1.37-6.4-1.54-9.28-1.74-9.94-0.68-0.37 0.61-1.72 1.1-3 1.1-3.46 0-4.91 2.38-4.2 6.87 0.52 3.22 0.15 4.5-2.2 7.74-1.55 2.14-3.58 4.51-4.49 5.26-2.35 1.94-2.1 2.71 1.37 4.15 2.35 0.97 4.58 1.01 9.75 0.17 3.69-0.6 10.1-1.39 14.25-1.76 7.02-0.62 7.98-0.46 14 2.35 3.55 1.66 6.69 2.99 6.96 2.95 0.28-0.04 1.51 0.45 2.74 1.15 2.3 1.2 6.97 2.4 18.26 4.5 6.3 1.2 11.53 0.9 17-1.1zm-34.33 1.1c-0.37-0.4-4.12-2.2-8.33-4-5.59-2.48-9.05-3.36-12.76-3.29l-5.08 0.09 8 2.5c4.4 1.4 9.8 3.1 12 3.8 4.56 1.5 7.14 1.8 6.17 0.9zm169.07-1.5c5.31-0.6 10.86-1.7 12.33-2.4 3.08-1.6 5.45-2.12 16.43-3.57 4.4-0.58 9.8-1.85 12-2.81 2.2-0.97 5.75-1.85 7.89-1.97s4.7-0.64 5.69-1.17c0.98-0.53 2.58-0.96 3.54-0.96 2.49 0 6.38-3.96 6.38-6.49 0-2.4-5.09-7.31-11.06-10.67-2.17-1.21-3.94-2.58-3.94-3.02 0-0.45-0.45-0.82-1.01-0.82s-2.92-0.89-5.25-1.99c-2.33-1.09-7.39-2.86-11.24-3.92-3.85-1.07-9.02-2.69-11.5-3.61-9.2-3.42-28.83-7.67-34.1-7.37-4.17 0.23-19.03-2.02-20.4-3.09-1.3-1.01-13.13-3.02-17.8-3.02-6.73 0-1.77 4.52 5.82 5.31 1.66 0.17 4.41 1 6.1 1.85 1.7 0.85 4.48 1.33 6.19 1.08 5.53-0.81 12.27 5.04 12.16 10.56-0.02 0.93-0.93 2.78-2.03 4.09-1.78 2.15-2.99 2.44-11.71 2.87-7.71 0.38-10.16 0.87-11.81 2.37-3.94 3.59-13.83 6.22-25.67 6.83-3.3 0.17-6.41 8.9-3.75 10.54 0.55 0.34 1 2.63 1 5.09 0 2.69 0.5 4.59 1.25 4.89 0.69 0.2 6.61 0.6 13.15 0.9s12.13 0.8 12.42 1.1c0.96 1 39.19 0.5 48.92-0.6zm-212.99-1.4c4.34-0.9 4.11-2.1-0.5-2.8-2.06-0.28-4.99-0.83-6.5-1.22-2.34-0.59-2.75-0.38-2.75 1.42 0 2.3 2.7 4.3 5 3.7 0.83-0.3 2.96-0.7 4.75-1.1zm-22.76-4.73c-0.03-2.29-1.45-3.49-4.99-4.23-1.92-0.4-6.64-2.1-10.47-3.76-6.7-2.91-7.26-2.99-14-1.99-3.87 0.58-9.19 1.58-11.83 2.23-4.11 1.01-5.96 0.89-13-0.84-4.51-1.12-10.67-2.27-13.7-2.57-8.6-0.85-9.1-1.04-12.11-4.67-2.56-3.09-2.84-3.21-2.86-1.22-0.02 1.64 1.46 3.08 5.79 5.61 3.2 1.88 7.59 3.97 9.75 4.66 2.16 0.68 6.38 2.37 9.37 3.76 4.6 2.12 6.47 2.44 12 2.03 3.61-0.26 9.11-1.29 12.23-2.28 5.68-1.8 5.68-1.8 15 0.81 5.13 1.44 10.91 2.79 12.83 3 1.93 0.21 4.06 0.46 4.75 0.55s1.24-0.4 1.24-1.09zm7.43-12.25c4.06-3.13 5.78-8.05 5-14.32-0.64-5.12-0.53-5.49 2.52-8.27 1.75-1.6 4.06-2.91 5.12-2.91 1.38 0 1.94-0.69 1.94-2.39 0-1.31 0.84-3.42 1.86-4.69 1.64-2.03 2.95-2.34 11.25-2.73 5.36-0.25 10.6-1.05 12.21-1.87 1.56-0.8 4.03-1.21 5.5-0.92 10.75 2.14 17 2.17 23.48 0.13 6.72-2.13 11.2-6.42 8.01-7.68-2.69-1.06-18.8-0.99-21.66 0.09-1.36 0.52-12.68 1.41-25.14 1.97-23 1.04-43.26 3.82-48.66 6.68-1.46 0.78-3.8 1.41-5.19 1.41s-3.8 0.52-5.34 1.16c-1.55 0.64-5.29 1.52-8.32 1.97-13.16 1.95-28.66 4.69-30.5 5.39-9.36 3.6-13.02 5.89-17.83 11.15l-2.83 3.1 2.14 4.19c2.58 5.05 6.02 6.71 15.64 7.57 8.79 0.78 10.94 1.14 16.1 2.64 3.59 1.04 4.74 0.98 7.66-0.41 8.42-4.01 18.59-3.31 32.94 2.26l7.18 2.79 2.16-2.15c1.19-1.19 3.33-3.06 4.76-4.16zm138.33 1.91c-1.79-1.79-25.03-6.11-36.75-6.83-3.57-0.22-6.72-0.49-7-0.6-0.27-0.12-0.95-0.3-1.5-0.4-1.16-0.23-3.93-1.28-7.5-2.84-1.37-0.6-2.72-1.16-3-1.23-0.27-0.07-1.92-0.46-3.67-0.88-1.74-0.41-3.41-1.4-3.71-2.19-0.31-0.79-1.4-1.44-2.43-1.44-1.04 0-3.28-0.7-5-1.56-2.33-1.16-3.61-1.28-5.09-0.5-3.29 1.77-11.57 1.19-19.8-1.37-9.9-3.09-17.3-3.77-17.3-1.6 0 0.53 0.66 0.71 1.47 0.4 1.94-0.74 17.53 4.48 17.53 5.88 0 0.59 0.3 0.79 0.66 0.42 0.36-0.36 1.27-0.15 2.02 0.47 0.79 0.67 4.54 1.05 9.09 0.94 4.25-0.1 10.66 0.33 14.23 0.97 7.57 1.33 17.77 5.66 19.07 8.08 0.78 1.45 2.95 1.7 15.67 1.82 8.46 0.08 17.11 0.71 20.26 1.48 5.69 1.39 13.78 2.02 12.75 0.98zm-0.48-16.86c9.13-2.28 15.73-5.47 15.73-7.62 0-0.51-0.67-0.93-1.5-0.93-0.82 0-1.5 0.45-1.5 0.99 0 1.48-8.74 5.32-10.53 4.63-0.85-0.32-2.32-0.2-3.26 0.28-2.4 1.21-10.75 3.1-13.72 3.1-1.37 0-2.49 0.45-2.49 1 0 1.69 7.02 1.1 17.27-1.45zm-7.45-5.66c6.24-1.08 7.62-1.7 9.42-4.22 1.9-2.68 1.99-3.38 0.9-7.45-0.66-2.47-1.03-4.66-0.82-4.87 0.21-0.22-2.03-2.91-4.99-5.98-4.87-5.08-5.32-5.91-4.75-8.92 0.81-4.33-1.18-10.54-3.14-9.79-0.86 0.33-1.44-0.05-1.44-0.97 0-0.84 0.53-1.7 1.18-1.92 0.68-0.22 0.9-1.14 0.51-2.14-0.37-0.97-1.09-1.5-1.6-1.18-1.52 0.93-3.48-6.27-2.15-7.88 1.04-1.25 0.95-3.51-0.54-13.32-0.37-2.48-0.12-3.25 1.06-3.25 1.67 0 2.09-1.54 0.66-2.43-1.37-0.84-1.94-6.7-0.71-7.18 0.6-0.23 1.23-3.16 1.4-6.5 0.2-3.71-0.06-5.86-0.64-5.49-1.3 0.8-1.99-7.18-0.72-8.45 0.67-0.67 0.65-1.57-0.06-2.73-0.68-1.09-0.79-3.9-0.31-7.72 1.24-9.89 1.09-18.49-0.33-18.58-1-0.06-1-0.18 0-0.58 1.73-0.7 1.57-3-0.25-3.7-0.82-0.32-1.5-1.22-1.5-2 0-0.79 0.68-1.69 1.5-2 0.83-0.32 1.5-1.1 1.5-1.73 0-0.84-0.41-0.81-1.49 0.08-1.99 1.66-2.53 0.05-2.23-6.73 0.25-5.96 1.71-7.23 1.74-1.51 0.01 2.3 0.32 3.26 0.82 2.47 1.21-1.9-0.91-12.22-2.51-12.22-1.34 0-1.53-1.66-1.78-15.5-0.19-10.6-0.53-13.5-1.55-13.5-0.55 0-1 1.21-1 2.7 0 2.94-1.48 2.17-2.29-1.2-1.03-4.32-0.62 26.4 0.44 32.5 0.62 3.57 1.07 7.4 1 8.5s-0.03 3.35 0.09 5c0.18 2.57 0.16 6.33-0.16 23.5-0.02 1.37 0 3.85 0.05 5.5 0.35 10.76-0.79 33.4-1.75 34.6-0.61 0.77-1.42 6.09-1.8 11.82-0.38 5.74-1.03 11.14-1.45 12-0.41 0.87-0.25 6.98 0.36 13.58 1.65 17.89 1.3 32.45-0.83 34.01-2.68 1.96-1 4.49 2.98 4.49 2.21 0 3.64 0.56 4.04 1.59 0.42 1.1 1.41 1.44 3.21 1.08 1.44-0.28 5.9-1.09 9.93-1.78zm-16.57-19.89c-0.16-11.49 0.12-18 0.75-18 0.59 0 1.08 4.05 1.18 9.75 0.1 5.36 0.25 12.22 0.32 15.25 0.15 6.22-0.44 11-1.37 11-0.35 0-0.74-8.1-0.88-18zm-0.04-23c-0.03-2.48 0.3-6.53 0.74-9l0.8-4.5 0.04 4c0.02 2.2-0.31 6.25-0.74 9l-0.78 5-0.06-4.5zm4.81-43.58c0.01-3.26 0.44-6.6 0.97-7.42 0.63-0.99 0.76 0.88 0.38 5.5-0.71 8.76-1.37 9.7-1.35 1.92zm0.67-21.17c-0.29-1.51-0.12-3.18 0.39-3.7 0.57-0.59 0.92 0.47 0.92 2.75 0 4.38-0.55 4.78-1.31 0.95zm-0.38-19.75c0.01-3.3 0.19-4.53 0.42-2.73 0.22 1.79 0.21 4.49-0.01 6-0.23 1.5-0.41 0.03-0.41-3.27zm-0.08-9.5c0-1.93 0.21-2.71 0.46-1.75s0.25 2.54 0 3.5-0.46 0.17-0.46-1.75zm-0.94-10.5c0-2.75 0.2-3.76 0.43-2.24s0.22 3.77-0.01 5c-0.24 1.23-0.43-0.01-0.42-2.76zm-1-17c0-2.75 0.2-3.76 0.43-2.24s0.22 3.77-0.01 5c-0.24 1.23-0.43-0.01-0.42-2.76zm-1.13-9.5c0-1.38 0.23-1.94 0.5-1.25 0.28 0.69 0.28 1.81 0 2.5-0.27 0.69-0.5 0.12-0.5-1.25zm10.84 122.06c0-1.07-0.45-2.22-1-2.56-0.57-0.35-1 0.49-1 1.94 0 1.41 0.45 2.56 1 2.56s1-0.87 1-1.94zm-4.34-114.31c-0.27-0.69-0.5-0.13-0.5 1.25 0 1.37 0.23 1.94 0.5 1.25 0.28-0.69 0.28-1.81 0-2.5zm-0.27-25c0.38-1.63 0.23-2.75-0.37-2.75-0.56 0-1.02 0.76-1.02 1.7 0 1.05-0.35 1.34-0.91 0.75-0.5-0.52-1.23-7.81-1.63-16.2-0.65-13.92-0.57-15.25 0.97-15.25 0.99 0 1.4-0.46 1-1.12-0.38-0.62-0.7-3.42-0.7-6.24 0-3.56-0.49-5.47-1.61-6.29-1.29-0.95-1.76-4.05-2.35-15.52-0.85-16.79-1.15-19.55-2.21-20.57-1.16-1.12 0.1 44.55 1.36 49.24 1.38 5.12 2.46 26.78 1.2 24-0.83-1.84-0.96-1.86-1.62-0.25-0.92 2.25 0.26 7.02 1.53 6.23 0.53-0.33 0.97 0.05 0.97 0.85s0.68 1.71 1.5 2.03c0.83 0.32 1.5 1.36 1.5 2.31 0 2.41 1.59 0.47 2.39-2.92zm-6.39 1.25c0-0.55-0.2-1-0.44-1s-0.72 0.45-1.06 1-0.14 1 0.44 1 1.06-0.45 1.06-1zm0-17c0-0.55-0.45-1-1-1s-1 0.45-1 1 0.45 1 1 1 1-0.45 1-1zm-1.34-5.25c-0.27-0.69-0.5-0.13-0.5 1.25 0 1.37 0.23 1.94 0.5 1.25 0.28-0.69 0.28-1.81 0-2.5zm0.02-4.94c-0.31-0.8-0.55-0.56-0.6 0.61-0.04 1.05 0.19 1.64 0.53 1.31 0.33-0.33 0.36-1.2 0.07-1.92zm-0.79-75.31c-0.45-32.67 0.88-65.5 3.1-76.5 1.57-7.8 2.32-20.31 1.17-19.6-0.58 0.36-1.32 2.77-1.66 5.37-0.35 2.6-1.55 9.68-2.68 15.73-1.93 10.33-2.48 25.46-1.68 46 0.11 2.75-0.13 10.96-0.53 18.23-0.79 14.37 0.05 28.36 1.57 26.11 0.5-0.74 0.82-7.64 0.71-15.34zm5.79-108.69c-0.31-0.8-0.55-0.56-0.6 0.61-0.04 1.05 0.19 1.64 0.53 1.31 0.33-0.33 0.36-1.2 0.07-1.92zm2.67-32.28c0.31-0.81 0.13-1.73-0.39-2.06-0.53-0.32-0.96 0.34-0.96 1.47 0 2.41 0.56 2.66 1.35 0.59zm4.92-17.78c-0.54-4.23-0.96-5.46-1.61-4.67-0.66 0.82 0.57 8.92 1.35 8.92 0.44 0 0.56-1.91 0.26-4.25zm-0.27-10.25c0-1.38-0.45-2.5-1-2.5s-1 1.12-1 2.5c0 1.37 0.45 2.5 1 2.5s1-1.13 1-2.5zm-6-22.94c0-0.24-0.45-0.72-1-1.06s-1-0.14-1 0.44 0.45 1.06 1 1.06 1-0.2 1-0.44zm-0.41-26.31c-1.08-1.07-1.65 0.44-0.89 2.36 0.71 1.8 0.76 1.8 1.11 0.06 0.2-1 0.1-2.09-0.22-2.42zm-16.62-5c-0.03-4.29-0.17-4.57-1.43-2.9-0.77 1.01-1.21 2.47-0.97 3.25 0.24 0.77 0.64 2.07 0.9 2.9 0.89 2.86 1.53 1.48 1.5-3.25zm15.49-2.5c-0.32-2.34-1.06-6.28-1.66-8.75-1.68-6.92-6.8-11.47-6.8-6.04 0 2.02 7.57 19.04 8.47 19.04 0.3 0 0.3-1.91-0.01-4.25zm-14.58-24.25c-0.38-8.09-1.56-18.22-2.81-24-1.18-5.5-2.54-12.03-3.01-14.5-0.47-2.48-2.2-9.68-3.84-16-1.63-6.33-3.29-14.88-3.67-19-0.39-4.13-1.1-9.08-1.59-11-2.38-9.41-1.27-36.69 1.88-46.5 3.26-10.14 10.83-18.78 17.55-20.05 11.95-2.24 18.93 5.31 22.68 24.55 1.33 6.82 1.32 37.9-0.02 44-1.5 6.89-3.19 15.91-4.11 22-0.46 3.02-1.76 8.87-2.89 13-1.13 4.12-3.37 15.24-4.98 24.69-2.41 14.11-2.78 18.3-2.06 23.36 1.03 7.29 1.97 8.84 2.04 3.37 0.2-14.98 3.12-36.04 7.03-50.68 1.72-6.44 6.98-32.85 8.21-41.24 0.65-4.4 1.17-15.43 1.17-24.5-0.01-16.41-0.03-16.55-3.4-25-3.81-9.56-4.25-15.61-2.01-27.37 2.47-12.92-1.98-30.48-9.66-38.1-3.63-3.61-17.17-11.83-16.15-9.82 10.82 21.51 13.76 29.59 13.76 37.76 0 2.97-0.93 5.43-3.46 9.2-3.63 5.39-5.87 7.21-13.91 11.33-10.71 5.49-17.32 20.78-17.97 41.58-0.31 9.9 1.22 32.56 2.29 33.91 0.44 0.55 1.11 3.71 1.48 7.01 0.88 7.73 5.2 27.37 7.59 34.48 2.89 8.59 5.88 25.3 6.98 39.02 1.51 18.95 1.92 21.19 2.88 16 0.36-1.93 0.36-9.8 0-17.5zm-329.39 6c-0.01-0.55-1.81-1.58-4-2.28-6.54-2.11-16.39-7.35-19.65-10.47-1.01-0.96-2.26-1.75-2.78-1.75-1.75 0-7.74-6.47-9.41-10.15-1.87-4.15-2.27-16.83-0.61-19.92 1.02-1.91 4.96-2.75 4.96-1.05 0 0.48 1.34 1.43 2.98 2.11s4.23 2.87 5.75 4.87c5.03 6.59 14.29 15.11 17.05 15.68 1.5 0.31 5.42 1.92 8.72 3.57 6.27 3.15 11.92 4.06 17 2.75 3.57-0.92 11.05-2.9 22-5.83 4.4-1.17 10.93-2.36 14.5-2.63 3.58-0.27 8.19-0.93 10.25-1.48 2.05-0.55 6.78-1.24 10.5-1.54 3.71-0.3 8.78-0.98 11.25-1.51 2.48-0.53 6.75-1.22 9.5-1.54s5.56-1.03 6.25-1.58c0.86-0.68 1.25-0.62 1.25 0.19 0 1.48 3.78 0.45 6.23-1.7 1.24-1.08 2.1-1.22 3-0.47 2.36 1.94 34.49-1.03 52.77-4.87 9.7-2.04 15-6.18 15-11.73 0-1.12 0.68-2.7 1.51-3.53 1.95-1.95 1.31-6.04-1.01-6.49-1-0.2-2.97-1.44-4.39-2.75-3.67-3.41-5.04-2.98-1.69 0.52 1.54 1.6 2.5 3.39 2.14 3.98-0.36 0.58-0.14 2.01 0.48 3.17 2.66 4.97-2.57 10.01-12.54 12.1-11.9 2.48-20.75 3.92-27 4.38-3.85 0.29-10.82 1-15.5 1.58-4.67 0.59-10.75 1.17-13.5 1.31-4.77 0.23-14.14 1.26-19.5 2.14-15.35 2.51-19.94 3.18-22.5 3.26-1.65 0.05-7.05 0.77-12 1.6-20.04 3.36-34.66 4.54-42.5 3.45-8.47-1.19-11.61-2.83-17.87-9.34-2.41-2.5-4.78-4.55-5.28-4.55-1.28 0-6.85-9.06-6.85-11.15 0-0.96-0.7-2.14-1.55-2.62-0.86-0.48-3.32-3.54-5.48-6.8s-4.83-6.85-5.95-7.97c-2.14-2.15-2.69-5.93-1.01-6.96 2.5-1.55 20.88-1.57 27.52-0.03 4.3 1 7.17 1.23 7.77 0.63 0.52-0.52 1.52-0.72 2.22-0.45s1.58 0 1.94-0.58c0.41-0.68-0.66-1.13-2.9-1.22-5.64-0.24-6.03-0.31-6.65-1.16-0.33-0.44-3.25-1.08-6.49-1.41-3.24-0.34-8.26-1.69-11.16-3.02-4.58-2.1-5.26-2.78-5.26-5.3 0-4.38 2.58-5.27 11.6-4.01 4.15 0.58 10.1 1.05 13.22 1.06 3.13 0 6.88 0.63 8.34 1.39 2.06 1.07 11.21 1.52 41 2 21.09 0.33 44.42 0.84 51.84 1.12 7.43 0.28 15.08 0.13 17-0.33 4.46-1.08-8.48-1.65-85.92-3.78-21.11-0.59-24.09-0.89-30.23-3.03-3.75-1.31-8.38-2.38-10.29-2.38-3.71 0-7.56-3.05-7.56-5.99 0-0.89-0.51-2.12-1.12-2.74-2.1-2.09-1.11-23.3 1.31-28.27 1.59-3.26 4.89-7 6.17-7 0.56 0 1.94-0.87 3.08-1.93 4.75-4.43 24.31-6.45 35.42-3.65 3.1 0.78 11.94 2.14 19.64 3.01s15.13 1.77 16.5 1.99c1.38 0.23 5.88 0.91 10 1.51 4.13 0.6 10.43 1.55 14 2.11 3.58 0.56 10.55 1.43 15.5 1.93 43.15 4.39 54.38 6.48 66 12.26 12.75 6.35 15.5 10.11 15.5 21.16 0 5.51-0.38 6.91-2.63 9.58-3.41 4.05-10.44 7.57-17.86 8.94-10.79 2-10.41 2.31 15.42 12.69 7.38 2.97 13.75 5.4 14.15 5.4 0.41 0 0.98-6.64 1.27-14.75s0.96-17.23 1.49-20.25c0.54-3.03 1.44-8.2 2.01-11.5 1.64-9.57 5.93-23.02 10.17-31.84 5.18-10.8 9.65-18.68 12.04-21.22 2.41-2.57 2.51-6.09 0.19-7.24-0.96-0.48-4.45-1.44-7.75-2.13s-9.6-2.29-14-3.56-10.47-2.83-13.5-3.47c-3.02-0.65-8.42-2.03-12-3.07-3.57-1.04-10.77-2.89-16-4.1-5.22-1.22-11.75-3.2-14.5-4.42-2.75-1.21-9.27-3.58-14.5-5.26-12.93-4.16-16.71-5.83-22.17-9.83-9.73-7.11-13.93-17.55-11.29-28.02 1.23-4.89 2.34-6.67 6.86-10.95 2.97-2.81 7.46-6.11 9.99-7.34 2.53-1.22 4.87-2.66 5.21-3.2 2.99-4.85-11.82 2.5-18.81 9.33-4.68 4.57-5.95 6.59-7.75 12.39-1.57 5.08-1.97 8.19-1.5 11.66 0.6 4.42 0.47 4.81-2 5.93-2.09 0.95-3.41 0.93-6.34-0.12-5.2-1.87-23.58-10.11-37.31-16.74-10.48-5.05-12.04-5.53-15.94-4.91-6.21 0.99-22.44 12.19-33.49 23.11-8.23 8.14-9.65 10.11-14.78 20.65-3.12 6.41-7.27 16.09-9.22 21.5-1.94 5.42-5.08 14.16-6.97 19.42-1.91 5.33-4.37 15.29-5.55 22.5-1.17 7.11-2.49 13.83-2.94 14.93-1.94 4.74-2.23 6.76-3.02 21-0.46 8.25-1.35 20.13-1.98 26.39-0.63 6.27-1.22 17.52-1.32 25-0.16 12.01 0.11 14.53 2.31 21.5 2.31 7.37 2.85 8.18 7.98 12 3.03 2.26 6.49 5.15 7.69 6.42 1.58 1.67 3.98 2.57 8.58 3.22 3.51 0.5 7.93 1.59 9.82 2.42 3.72 1.64 11.45 1.68 11.43 0.05zm177.01-139.65c-3.3-0.4-9.26-0.98-13.25-1.3-6.56-0.52-22.67-2.91-37.25-5.52-3.02-0.54-7.52-1.24-10-1.54-7.34-0.9-28.3-3.62-31-4.02-1.37-0.2-9.47-1.05-18-1.89-39.83-3.92-59.37-8.86-63.4-16.03-0.61-1.07-1.85-2.8-2.77-3.85-3.86-4.41-3.44-21.19 0.75-29.44 1.32-2.62 2.41-5.73 2.42-6.91 0-1.46 1.19-2.76 3.75-4.09 19.52-10.13 20.55-10.55 25.96-10.55 2.96 0 6.38 0.47 7.59 1.03 1.21 0.57 5.8 2.66 10.2 4.66 4.4 1.99 8.68 4.07 9.5 4.61 3.4 2.26 14.99 7.71 22 10.35 4.13 1.55 10.43 4.19 14 5.86 3.58 1.68 9.65 4.13 13.5 5.45 14.07 4.82 21.07 7.08 24 7.74 1.65 0.38 5.25 1.51 8 2.53 7.08 2.61 21.78 7.1 23.18 7.08 2.13-0.03 27.19 8.72 30.54 10.66 7.19 4.18 8.59 12.83 3.12 19.33-4.73 5.62-11.15 7.27-22.84 5.84zm17.1-7.25c2.85-3.11 3.42-4.39 2.89-6.49-0.36-1.43-0.73-2.64-0.82-2.68s-1.52-0.97-3.17-2.06c-3.35-2.2-12.94-5.38-25-8.28-20.23-4.86-44.25-11.95-58-17.12-2.75-1.03-7.7-2.74-11-3.81-12.22-3.93-36.39-13.05-49.1-18.52-12.32-5.3-13.58-5.64-21-5.6-8.14 0.05-14.22 1.58-17.29 4.36-0.97 0.88-2.45 1.6-3.29 1.6-3.2 0-7.42 14.61-6.2 21.46 0.39 2.22 0.79 4.83 0.88 5.79s0.35 1.88 0.58 2.04c0.23 0.15 2.33 1.57 4.67 3.13 2.34 1.57 4.25 3.18 4.25 3.58 0 1.66 12.06 5.91 19.5 6.87 4.4 0.57 12.28 1.7 17.5 2.51 5.23 0.81 16.25 2.2 24.5 3.1 8.25 0.89 16.35 1.84 18 2.1 1.65 0.25 7.73 1.14 13.5 1.96 5.78 0.82 11.18 1.74 12 2.05 1.88 0.69 33.43 5.18 45.5 6.48 4.95 0.53 9.68 1.15 10.5 1.38 0.83 0.23 5 0.33 9.27 0.22 7.66-0.18 7.83-0.25 11.33-4.07zm1.4-14.51c0-1.1-7.99-5.09-10.19-5.09-0.86 0-4.2-1.17-7.43-2.6-3.24-1.43-9.03-3.26-12.88-4.06s-12.62-3.41-19.5-5.79c-6.87-2.39-15.42-5.11-19-6.04-3.57-0.94-8.52-2.53-11-3.55-2.47-1.01-9.45-3.68-15.5-5.94-16.28-6.07-19.48-7.46-37-16.02-24.47-11.96-30.24-13.14-39.25-7.97-2.89 1.65-5.25 3.39-5.25 3.85s2.3 0.38 5.12-0.18c6.15-1.22 14.56 0.1 21.01 3.3 10.84 5.38 33.33 14.15 56.64 22.09 7.85 2.68 15.14 5.33 16.2 5.89 1.76 0.94 23.66 7.75 32.03 9.96 7.25 1.91 15.67 4.17 20.5 5.51 2.75 0.76 6.98 1.7 9.39 2.08 2.42 0.38 6.69 1.76 9.5 3.07 5.63 2.62 6.61 2.84 6.61 1.49zm138 154.91c0-0.55-0.45-1-1-1s-1 0.45-1 1 0.45 1 1 1 1-0.45 1-1zm5.79-8.51c0.71-2.75 2.16-9.72 3.22-15.49 1.06-5.78 2.57-13.65 3.36-17.5s2.4-12.4 3.58-19 2.57-14.03 3.08-16.5c1.4-6.67 2.5-23.26 2.24-33.5-0.49-18.42-4.08-31.37-9.74-35.08-1.47-0.96-5-2.11-7.85-2.57l-5.18-0.83-4.73 5.04c-2.6 2.78-5.67 7.16-6.82 9.74-4.31 9.62-5.76 24.27-3.91 39.43 0.69 5.65 1.36 11.9 1.5 13.9 0.45 6.79 1.63 14.35 3.15 20.37 1.78 7.01 10.27 47.38 11.04 52.5 1.04 6.9 5.22 6.59 7.06-0.51zm-17.14-1.03c0.74-1.9-2.18-18.18-4.26-23.8-2.14-5.77-5.53-17.55-6.09-21.16-0.25-1.65-1.55-7.56-2.88-13.13-3.39-14.21-3.87-18.77-3.87-36.37 0.01-16.67 1.65-26.74 5.95-36.55 2.57-5.87 7.86-12.26 11.19-13.52 3.34-1.27 2.96-3.15-0.44-2.2-5.44 1.52-37.21 0.52-52.01-1.65-18.22-2.66-19.81-2.64-22.53 0.29-7.62 8.17-15.81 22.08-18.63 31.63-0.73 2.47-2.41 7.2-3.73 10.5-2.49 6.19-3.62 11.22-5.63 25-1.45 9.85-1.37 44.04 0.09 47.5 1.05 2.46 1.07 2.47 1.13 0.22 0.03-1.26 0.62-2.49 1.31-2.74s5.53 1.14 10.75 3.1c5.23 1.96 14.92 5.49 21.53 7.85 6.62 2.36 13.39 5 15.05 5.85 1.66 0.86 5.92 2.53 9.47 3.71 3.55 1.19 10.95 4.22 16.45 6.74 8.97 4.11 23.75 9.95 25.78 10.18 0.43 0.05 1.05-0.6 1.37-1.45zm-15.57-37.46c-0.42-4.3-0.77-6.23-2.92-16-5.23-23.77-6.67-42.3-3.83-49.27 0.98-2.42 1.18-0.76 1.2 10.44 0.03 12.67 1.3 23.33 5.04 42.42 0.87 4.45 1.4 9.62 1.17 11.5-0.32 2.63-0.47 2.84-0.66 0.91zm-57.08 24c0-0.55-0.2-1-0.44-1s-0.72 0.45-1.06 1-0.14 1 0.44 1 1.06-0.45 1.06-1zm-37.5-2c-0.39-1.24-0.18-2 0.56-2 0.89 0 0.88-0.37-0.06-1.5-1.02-1.23-0.94-1.5 0.44-1.5 0.92 0 1.41-0.44 1.07-0.98-0.38-0.62-1.34-0.52-2.59 0.25-1.98 1.23-2.96 0.6-4.28-2.77-0.26-0.67-0.75-0.66-1.47 0.01-0.77 0.71-0.48 1.95 0.97 4.25 1.13 1.78 2.46 3.24 2.96 3.24s0.9 0.67 0.9 1.5c0 0.82 0.48 1.5 1.07 1.5 0.61 0 0.8-0.85 0.43-2zm30.5-1c0-0.55-0.45-1-1-1s-1 0.45-1 1 0.45 1 1 1 1-0.45 1-1zm8-1c0-0.55-0.48-1-1.06-1s-0.78 0.45-0.44 1 0.82 1 1.06 1 0.44-0.45 0.44-1zm-28.1-10.2c-1.66-3.09-2.27-0.85-0.77 2.8 0.89 2.17 1.29 2.47 1.59 1.2 0.23-0.93-0.15-2.73-0.82-4zm-10.29 1.62c-0.34-0.87-0.61-1.8-0.61-2.06s-0.43-0.21-0.95 0.11c-1.17 0.72-0.23 3.53 1.17 3.53 0.55 0 0.72-0.71 0.39-1.58zm-7.51-5.14c-0.93-1.59-1.04-1.6-1.07-0.11-0.01 0.92 0.3 2.49 0.69 3.5 0.66 1.67 0.75 1.68 1.07 0.11 0.19-0.94-0.12-2.52-0.69-3.5zm9.76-27.21c0.07-21.15 2.33-38.58 5.91-45.64 1.09-2.16 2.32-5.49 2.74-7.4 0.41-1.9 1.12-4.15 1.59-5 0.46-0.84 2.22-4.87 3.9-8.95 3.12-7.58 9.17-17.35 13.88-22.4 2.56-2.76 2.58-2.86 0.68-4.25-1.07-0.79-2.39-1.43-2.94-1.43s-3.45 2.52-6.43 5.6c-4.06 4.19-6.77 8.46-10.8 17.01-2.96 6.27-5.83 13.31-6.37 15.65-0.54 2.33-2.11 7.54-3.5 11.59-1.38 4.04-2.52 8.47-2.52 9.85s-0.67 5.09-1.48 8.24c-1.62 6.24-2.54 39.89-1.2 43.71 0.67 1.9 1.08 2.02 3.62 1.07l2.86-1.08 0.06-16.57zm-10.15-3.79c0.24-11.54 0.88-19.59 1.83-22.93 0.8-2.84 1.46-6.47 1.46-8.06 0-1.6 1.35-6.61 3-11.13s3-9.05 3-10.07c0-3.49 9.55-23.46 15.64-32.69 3.36-5.11 4.13-7.4 2.48-7.4-3.15 0-19.27 29.7-22.03 40.59-0.54 2.15-1.65 6.38-2.46 9.41-4.16 15.59-6.45 36.19-5.82 52.35 0.28 7.01 0.7 9.54 1.46 8.78 0.66-0.66 1.22-8.02 1.44-18.85zm-47.71 6.8c0-1.33-4.8-2.11-10-1.61-6.42 0.61-6.3 0.79 1 1.53 3.58 0.36 7.06 0.73 7.75 0.83 0.69 0.09 1.25-0.24 1.25-0.75zm4.73 0.32c-0.33-0.34-1.19-0.37-1.92-0.08-0.79 0.32-0.56 0.55 0.61 0.6 1.05 0.04 1.64-0.19 1.31-0.52zm-72.81-3.04c0.23-0.2-1.01-0.36-2.75-0.36s-3.17 0.46-3.17 1.02c0 0.9 4.72 0.37 5.92-0.66zm17.08 0.59c0-0.66-2.79-0.98-7.5-0.86-4.12 0.11-7.5 0.59-7.5 1.06s3.38 0.85 7.5 0.85c4.58 0 7.5-0.41 7.5-1.05zm15.77-0.11c-1.79-0.65-4.56-0.67-8-0.04l-5.27 0.96 8 0.04c6.46 0.03 7.47-0.15 5.27-0.96zm6.23 0.72c0-1.06-1.92-1.5-2.49-0.58-0.34 0.56 0.07 1.02 0.93 1.02s1.56-0.2 1.56-0.44zm-47.73-1.22c-0.68-0.27-2.03-0.29-3-0.03-0.97 0.25-0.42 0.47 1.23 0.49s2.45-0.18 1.77-0.46zm-56.27-1.45c0-0.49-2.81-0.88-6.25-0.88-3.44 0.01-5.73 0.35-5.09 0.75 1.68 1.07 11.34 1.18 11.34 0.13zm142.74-12.04c10.52-2.53 13.25-3.98 15.81-8.34 4.08-6.96 2.9-12.63-3.51-16.87-4.65-3.07-21.65-7.4-34.04-8.67-5.22-0.53-11.75-1.42-14.5-1.96s-8.37-1.19-12.5-1.43c-4.12-0.25-13.8-1.19-21.5-2.1-7.7-0.9-16.47-1.77-19.5-1.93-7.58-0.39-25.71-2.26-39.22-4.04-13.08-1.73-19.62-1.94-18.23-0.58 1.06 1.03 7.83 3.62 13.9 5.31 2.17 0.61 7.57 2.88 12 5.04 10.59 5.18 16.73 7.56 22.86 8.88 2.77 0.59 6.42 1.92 8.11 2.96 1.7 1.03 4.12 1.87 5.39 1.88 1.27 0 4.22 1.07 6.56 2.38 3.57 1.99 19.39 7.62 36.13 12.87 2.91 0.91 4.09 1.86 4.32 3.5 0.21 1.48-0.2 2.25-1.19 2.25-0.83 0-1.79 0.45-2.13 1-0.88 1.43 35.22 1.3 41.24-0.15zm6.26-32.19c0-2.15-27.33-9.66-35.15-9.66-1.78 0-5.73-0.44-8.79-0.98-3.06-0.53-10.06-1.44-15.56-2.01-10.08-1.05-20.31-2.24-34.97-4.07-4.39-0.55-10.47-1.21-13.5-1.46-10.89-0.9-28.66-3.42-36.19-5.14-6.64-1.51-8.5-1.58-14-0.49-3.49 0.69-7.21 1.39-8.28 1.54-2.33 0.34-3.28 2.42-1.39 3.05 0.73 0.24 4.26 0.66 7.83 0.92 9.16 0.66 26.84 2.5 31 3.23 1.93 0.33 8.45 0.99 14.5 1.47 20.39 1.61 33.97 2.95 40.52 4 3.59 0.57 11.91 1.44 18.5 1.92 16.26 1.19 42.91 4.94 48.98 6.89 3.08 0.98 6.5 1.4 6.5 0.79zm152.59-45.77c7.31-1.82 11.87-5.08 13.77-9.84 2.07-5.17 2.06-6.37-0.11-8.29-1.55-1.38-2.5-1.4-8.25-0.18-8.18 1.73-14.8 1.74-17.93 0-2.16-1.19-3.19-1.01-9.44 1.65-8.63 3.67-15.54 3.56-20.81-0.34-1.82-1.35-6.39-3.99-10.15-5.87-5.55-2.77-7.17-3.19-8.65-2.26-1.01 0.62-5.58 1.66-10.18 2.31-9.95 1.39-11.52 0.9-24.49-7.64-6.59-4.34-9.15-5.51-11.2-5.11-1.45 0.28-4.9 0.09-7.65-0.43s-6.51-1.15-8.36-1.39-4.33-0.74-5.5-1.1c-8.95-2.79-36.08-33.54-41.9-47.48-2.18-5.23-6.09-7.92-11.52-7.92-6.06 0-17.48 3.5-24.22 7.42-3.02 1.76-6.23 3.47-7.11 3.8-0.89 0.34-3.33 2.7-5.42 5.25-3.61 4.4-3.79 4.98-3.81 11.83-0.02 12.66 4.93 19.88 16.63 24.24 3.97 1.48 8.11 3.07 9.21 3.53s4.25 1.51 7 2.33c2.75 0.81 7.82 2.65 11.26 4.08 5.72 2.38 18.85 6.23 23.74 6.96 1.1 0.16 4.93 1.21 8.5 2.32 6.81 2.11 19.93 5.24 21.99 5.24 0.67 0 2.63 0.62 4.36 1.38 3.03 1.33 14.83 4.23 26.88 6.62 3.16 0.62 6 1.55 6.31 2.07 0.32 0.51 2.5 0.93 4.85 0.93s4.62 0.34 5.03 0.75 2.4 0.79 4.42 0.83c2.01 0.05 7.04 0.66 11.16 1.35 23.81 3.98 52.02 5.34 61.59 2.96zm-22.96-19.38c1.3-0.86 2.37-2.07 2.37-2.7s-2.6-3.88-5.78-7.23c-3.17-3.34-8.24-10.08-11.25-14.97s-8.44-13.44-12.08-19c-9.13-13.98-9.32-14.38-7.97-17.32 0.96-2.12 0.74-2.9-1.56-5.63-1.47-1.74-4.21-6.54-6.09-10.66-5.95-13.1-14.56-28.06-18.23-31.66-3.9-3.85-8.89-6.83-9.83-5.88-0.33 0.33-0.03 3.18 0.67 6.32 2.74 12.28 2.67 13.58-0.85 16.54-2.09 1.76-4.35 2.68-6.61 2.68-4.22 0-4.23 0.16-0.98 15.51 1.65 7.79 3.8 14.33 6.66 20.25 9.05 18.7 32.44 44.14 43.9 47.73 1.38 0.43 4.39 2.08 6.7 3.66s5.24 3.32 6.5 3.86c3.07 1.31 11.47 0.43 14.43-1.5zm29.85-1.76c6.96-1.75 8.22-4.44 4.99-10.66-1.3-2.53-2.83-5.72-3.39-7.09-2.31-5.64-6.84-12.5-8.27-12.52-2.15-0.02-4.66-2.29-6.53-5.91-2.83-5.48-7.6-10.69-17.06-18.63-9.63-8.09-17.4-12.16-19.4-10.16-0.78 0.78 0.21 3.3 3.55 8.99 5.57 9.5 5.92 12.97 1.67 16.54-1.63 1.38-3.48 2.67-4.11 2.88-0.71 0.24 0.04 2.15 1.96 4.99 1.71 2.54 3.11 4.94 3.11 5.34 0 1.31 8.73 12.91 12.28 16.3 1.91 1.83 6.34 5.32 9.85 7.76 5.93 4.12 6.72 4.39 11.37 3.93 2.75-0.28 7.24-1.07 9.98-1.76zm-77.91-5.26c10-1.07 10.01-1.41 0.38-10.72-10.62-10.27-21.42-24.04-26.37-33.63-2.54-4.91-6.6-18.21-7.49-24.55-0.49-3.46-1.84-8.15-3-10.42s-2.76-7.22-3.55-11c-3.89-18.49-7.95-28.1-16.89-39.99-3.78-5.04-11.25-11.181-13.58-11.181-1.42 0-1.35 0.961 0.82 11.501 1.6 7.75 1.67 9.37 0.5 11.67-1.41 2.78-7.33 5.45-9.9 4.46-0.78-0.3-1.67-0.15-1.96 0.32-1.06 1.72 5.45 30.11 8.08 35.25 0.77 1.48 1.39 3.63 1.39 4.77 0 2.46 9.31 20.83 15.27 30.13 6.61 10.3 18.01 25.02 22.56 29.14 4.72 4.25 20.01 14.33 22.81 15.04 1.02 0.25 2.54 0.33 3.36 0.16 0.83-0.16 4.23-0.59 7.57-0.95zm-36.57-12.34c0-0.46-0.95-1.7-2.11-2.75-4.09-3.69-25.74-35.02-30.72-44.45-4.65-8.81-7.02-15.71-10.8-31.45-3.71-15.43-7.53-25.43-11.36-29.72-2.1-2.36-4.09-4.01-4.43-3.68-0.34 0.34-0.14 2.86 0.45 5.62 0.93 4.34 0.82 5.47-0.81 8.4-1.7 3.04-2.33 3.38-6.28 3.38-3.67 0-4.58-0.41-5.64-2.5-3.77-7.45 0.28 15.28 5.67 31.8 1.67 5.11 3.03 9.72 3.03 10.24 0 1.93 6.94 15.89 9.99 20.1 2.5 3.46 16.32 18.83 23.83 26.51 3.14 3.21 10.19 6.32 16.65 7.35 3.84 0.61 7.17 1.31 7.42 1.55 0.8 0.81 5.11 0.47 5.11-0.4zm148-14.45c0-4.67-11.33-18.75-17.75-22.07-3.95-2.04-3.96-2.04-5.24 0.36-1.54 2.87 1.55 8.26 8.66 15.15 8.61 8.33 14.33 10.95 14.33 6.56zm-275.89-8.7c1.06-11.5 2.96-15.45 11.17-23.31 6.27-6.01 9.31-7.81 21.22-12.61 7.21-2.9 19.62-5.48 23.58-4.91 2.99 0.44 3.31-1.03 1.02-4.78-2.32-3.8-5.82-4.65-13.84-3.36-8 1.29-16.24 4.23-24.16 8.63-7.2 3.99-20.38 16.51-28.87 27.4-2.82 3.61-6.72 7.43-8.68 8.48-1.96 1.06-3.43 2.31-3.28 2.78 0.16 0.47 2.67 1.69 5.59 2.72 2.91 1.02 6.72 2.76 8.47 3.85 5.59 3.5 7.08 2.56 7.78-4.89zm195.67-1.56c2.88-2.02 2.8-4.11-0.43-10.61-5.37-10.83-8.31-12.98-12.52-9.18-2.64 2.39-2.26 5.83 1.33 12.23 5.37 9.57 7.12 10.71 11.62 7.56zm70.13-16.69c-2.7-7.46-5.39-15.52-18.15-54.25-2.18-6.6-5.35-14.25-7.04-17-4.03-6.51-12.59-14.934-15.51-15.247-1.27-0.135-3.93-1.826-5.91-3.757-1.99-1.93-3.83-3.295-4.1-3.032-0.96 0.963 13.84 29.326 20.37 39.036 6.97 10.36 12.43 20.76 12.43 23.68 0 4.3 10.88 27.32 16.82 35.59 3.86 5.38 4.23 3.67 1.09-5.02zm-51.91 0.22c0-0.56-1.92-2.92-4.26-5.25-3.4-3.38-6.15-4.86-13.75-7.42-12.67-4.27-20.75-5.94-22.11-4.58-1.26 1.26 0.83 5.8 3.98 8.65 1.53 1.39 2.8 1.69 4.86 1.15 1.53-0.41 5.26-0.95 8.3-1.2 4.52-0.39 6.4-0.02 10.5 2.07 2.74 1.39 6.33 3.66 7.98 5.04 3.26 2.71 4.5 3.14 4.5 1.54zm-159.57-17.27c2.97-0.15 5.09-0.77 5.36-1.55 0.85-2.57-18.06-0.22-24.06 2.99-3.95 2.12-0.32 2.52 6.51 0.73 3.99-1.05 9.48-2.03 12.19-2.17zm85.57-16.7c2.4-2.4 2.45-3.73 0.48-13.11-1.82-8.67-2.7-9.89-7.07-9.89-3.73 0-5.41 2.06-5.41 6.62 0 3.58 2.96 15.52 4.25 17.13 1.51 1.89 5.5 1.5 7.75-0.75zm-74-23.99c0.76-1.42 0.73-3.89-0.09-8.63-1.5-8.62-4.72-12.05-8.85-9.44-2.46 1.56-0.9 14.91 2.19 18.81 1.54 1.93 5.55 1.49 6.75-0.74zm25.11-8.04c1.69-1.93 1.72-1.37-1.03-17.326-0.55-3.22-1.53-6.482-2.17-7.25-1.67-2.015-5.23-1.714-8.3 0.7-2.29 1.803-2.58 2.601-2.05 5.75 1.38 8.276 4.63 18.736 6.18 19.906 2 1.52 5.18 0.75 7.37-1.78zm49.39-2.83c-8.35-2.93-16.79-8.09-30.5-18.631-2.47-1.904-6.64-4.183-9.25-5.066-5.61-1.897-6.02-3.114-1.33-3.994 2.97-0.557 4.15-0.077 9.14 3.705 21.8 16.526 26.55 19.456 34.88 21.516 3.78 0.93 6.47 2.1 6.27 2.73-0.57 1.73-3.79 1.64-9.21-0.26z"/>
  </g>
  <metadata>
    <rdf:RDF>
      <cc:Work>
        <dc:format>image/svg+xml</dc:format>
        <dc:type rdf:resource="http://purl.org/dc/dcmitype/StillImage"/>
        <cc:license rdf:resource="http://creativecommons.org/licenses/publicdomain/"/>
        <dc:publisher>
          <cc:Agent rdf:about="http://openclipart.org/">
            <dc:title>Openclipart</dc:title>
          </cc:Agent>
        </dc:publisher>
      </cc:Work>
      <cc:License rdf:about="http://creativecommons.org/licenses/publicdomain/">
        <cc:permits rdf:resource="http://creativecommons.org/ns#Reproduction"/>
        <cc:permits rdf:resource="http://creativecommons.org/ns#Distribution"/>
        <cc:permits rdf:resource="http://creativecommons.org/ns#DerivativeWorks"/>
      </cc:License>
    </rdf:RDF>
  </metadata>
</svg>
