<?xml version="1.0" encoding="UTF-8" standalone="no"?>
<!-- Created with Inkscape (http://www.inkscape.org/) -->

<svg
   xmlns:dc="http://purl.org/dc/elements/1.1/"
   xmlns:cc="http://creativecommons.org/ns#"
   xmlns:rdf="http://www.w3.org/1999/02/22-rdf-syntax-ns#"
   xmlns:svg="http://www.w3.org/2000/svg"
   xmlns="http://www.w3.org/2000/svg"
   xmlns:sodipodi="http://sodipodi.sourceforge.net/DTD/sodipodi-0.dtd"
   xmlns:inkscape="http://www.inkscape.org/namespaces/inkscape"
   width="75.670334mm"
   height="32.174122mm"
   viewBox="0 0 75.670334 32.174122"
   version="1.1"
   id="svg8"
   inkscape:version="0.92.3 (2405546, 2018-03-11)"
   sodipodi:docname="Wedding Rings Silhouette.svg">
  <title
     id="title828">Wedding Rings Silhouette</title>
  <defs
     id="defs2" />
  <sodipodi:namedview
     id="base"
     pagecolor="#ffffff"
     bordercolor="#666666"
     borderopacity="1.0"
     inkscape:pageopacity="0.0"
     inkscape:pageshadow="2"
     inkscape:zoom="0.35"
     inkscape:cx="-209.2854"
     inkscape:cy="141.65665"
     inkscape:document-units="mm"
     inkscape:current-layer="layer1"
     showgrid="false"
     fit-margin-top="0"
     fit-margin-left="0"
     fit-margin-right="0"
     fit-margin-bottom="0"
     inkscape:window-width="1920"
     inkscape:window-height="1017"
     inkscape:window-x="3832"
     inkscape:window-y="-8"
     inkscape:window-maximized="1" />
  <metadata
     id="metadata5">
    <rdf:RDF>
      <cc:Work
         rdf:about="">
        <dc:format>image/svg+xml</dc:format>
        <dc:type
           rdf:resource="http://purl.org/dc/dcmitype/StillImage" />
        <dc:title>Wedding Rings Silhouette</dc:title>
        <cc:license
           rdf:resource="http://creativecommons.org/publicdomain/zero/1.0/" />
        <dc:subject>
          <rdf:Bag>
            <rdf:li>Ring</rdf:li>
            <rdf:li>wedding</rdf:li>
            <rdf:li>couple</rdf:li>
            <rdf:li>bride</rdf:li>
            <rdf:li>ceremony</rdf:li>
            <rdf:li>fiance</rdf:li>
            <rdf:li>matrimony</rdf:li>
            <rdf:li>get married</rdf:li>
            <rdf:li>hands</rdf:li>
            <rdf:li>silhouette</rdf:li>
            <rdf:li>married</rdf:li>
            <rdf:li>wedding ring</rdf:li>
            <rdf:li>celebration</rdf:li>
            <rdf:li>gift</rdf:li>
            <rdf:li>jewelry</rdf:li>
            <rdf:li>anniversary</rdf:li>
            <rdf:li>wife</rdf:li>
            <rdf:li>husband</rdf:li>
            <rdf:li>valentine&amp;039;s</rdf:li>
            <rdf:li>day</rdf:li>
            <rdf:li>love</rdf:li>
            <rdf:li>sign</rdf:li>
            <rdf:li>icon</rdf:li>
          </rdf:Bag>
        </dc:subject>
      </cc:Work>
      <cc:License
         rdf:about="http://creativecommons.org/publicdomain/zero/1.0/">
        <cc:permits
           rdf:resource="http://creativecommons.org/ns#Reproduction" />
        <cc:permits
           rdf:resource="http://creativecommons.org/ns#Distribution" />
        <cc:permits
           rdf:resource="http://creativecommons.org/ns#DerivativeWorks" />
      </cc:License>
    </rdf:RDF>
  </metadata>
  <g
     inkscape:label="Layer 1"
     inkscape:groupmode="layer"
     id="layer1"
     transform="translate(-38.364499,-154.1392)">
    <path
       style="fill:#ffffff;stroke-width:0.99999994"
       d="m 103.95962,185.98315 c -0.0506,-0.19168 -0.1067,-0.36512 -0.12463,-0.38541 -0.0179,-0.0203 -0.41157,0.0552 -0.87477,0.16771 -0.46319,0.11254 -0.86401,0.19733 -0.8907,0.18844 -0.0267,-0.009 -0.12134,-0.31517 -0.21032,-0.6806 l -0.16178,-0.66442 -0.17743,0.004 c -0.0976,0.002 -0.48224,0.0304 -0.85479,0.0631 -0.4605,0.0404 -0.838504,0.044 -1.180694,0.0114 -0.5048,-0.0481 -2.01874,-0.40887 -3.132,-0.74635 -0.96961,-0.29394 -2.11824,-0.46167 -3.54941,-0.51831 -0.66188,-0.0262 -0.92805,-0.0127 -1.58993,0.0806 -1.71996,0.24236 -4.64593,0.83433 -5.87248,1.18808 -0.68388,0.19724 -0.95965,0.19691 -1.15792,-0.001 -0.0825,-0.0824 -0.14993,-0.17323 -0.14993,-0.20172 0,-0.0812 0.41353,-0.39959 0.7744,-0.59617 0.18056,-0.0984 0.61679,-0.3175 0.9694,-0.48698 0.9101,-0.43745 0.99181,-0.48235 0.9823,-0.5398 -0.0148,-0.0894 -2.77109,-0.055 -4.21345,0.0525 -1.59341,0.1188 -1.61021,0.11871 -1.78373,-0.0101 -0.42261,-0.31373 -0.25381,-0.68822 0.47589,-1.05573 0.38722,-0.19502 1.31029,-0.47189 2.00023,-0.59996 0.75279,-0.13973 0.75716,-0.14104 0.73133,-0.22032 -0.10822,-0.33224 -2.305,-0.49121 -3.39831,-0.24591 -0.52652,0.11812 -0.95704,0.2419 -1.47418,0.42383 -0.27735,0.0976 -0.30218,0.0986 -0.42495,0.0182 -0.20144,-0.13198 -0.35355,-0.48766 -0.30935,-0.7233 0.0915,-0.48769 1.09497,-1.1176 2.2378,-1.40472 0.95745,-0.24055 1.37207,-0.26165 3.75241,-0.19091 0.13357,0.004 0.24897,-0.0152 0.25644,-0.0426 0.007,-0.0274 -0.12167,-0.15436 -0.28699,-0.28209 -0.95044,-0.73435 -1.60447,-1.27507 -2.05936,-1.70256 -0.28246,-0.26545 -0.61711,-0.55372 -0.74368,-0.6406 -0.35916,-0.24655 -1.02265,-0.56373 -1.80141,-0.86115 -0.39244,-0.14987 -0.80357,-0.33491 -0.91363,-0.41119 -0.20772,-0.14394 -0.36155,-0.39605 -0.36155,-0.59252 0,-0.1114 0.28593,-0.4307 0.48439,-0.54094 0.0917,-0.0509 0.0412,-0.16526 -0.73307,-1.66274 -0.45732,-0.88443 -0.81349,-1.62404 -0.79147,-1.64357 0.022,-0.0195 0.77173,-0.41375 1.66603,-0.87603 0.8943,-0.46228 1.60977,-0.8446 1.58993,-0.8496 -0.49914,-0.12586 -0.65705,-0.19695 -0.86839,-0.39097 -0.12905,-0.11847 -0.2886,-0.33079 -0.35458,-0.47184 -0.21768,-0.4654 -0.13053,-1.14923 0.18998,-1.49067 0.099,-0.10545 0.0987,-0.10624 -0.0805,-0.19166 -0.1977,-0.0943 -0.38383,-0.35474 -0.38414,-0.53752 -5.8e-4,-0.1947 0.13102,-0.44613 0.28614,-0.54776 0.19226,-0.12598 0.52979,-0.12486 0.70353,0.002 0.16813,0.12309 0.29935,0.43498 0.26193,0.62256 l -0.0284,0.14249 0.34997,2.5e-4 c 0.60417,4.7e-4 1.09885,0.32726 1.33203,0.87992 0.12025,0.28499 0.1096,0.8091 -0.0225,1.10774 l -0.10694,0.24176 1.0867,-0.56383 c 0.59768,-0.3101 1.54251,-0.79971 2.09963,-1.08802 0.55711,-0.2883 1.01293,-0.53673 1.01293,-0.55206 0,-0.0153 -2.04242,-0.85826 -4.53873,-1.87319 -2.4963,-1.01494 -4.53861,-1.86842 -4.53847,-1.89662 5.8e-4,-0.12237 1.58024,-3.89685 1.62682,-3.88728 0.063,0.013 9.14432,3.70484 9.22798,3.75153 0.0404,0.0226 -0.19375,0.65589 -0.73242,1.98071 -0.43552,1.07115 -0.78539,1.97715 -0.77748,2.01334 0.008,0.0362 0.3952,0.80285 0.86064,1.7037 0.76041,1.47176 0.85736,1.6352 0.95572,1.61122 0.14036,-0.0342 0.44798,0.12696 0.71746,0.37591 0.11631,0.10744 0.49995,0.53001 0.85254,0.93903 1.19993,1.392 2.27392,2.33298 3.35316,2.93787 0.6684,0.37462 1.19927,0.59032 2.558,1.03934 1.20171,0.39714 1.78528,0.6341 2.2977,0.933 0.37973,0.22149 1.43588,1.01576 1.64838,1.23964 0.0923,0.0973 0.16392,0.13752 0.18474,0.10385 0.0187,-0.0302 0.343204,-0.12916 0.721144,-0.21982 0.61362,-0.14719 0.68563,-0.17584 0.67293,-0.26771 -0.013,-0.0943 0.40131,-0.22159 4.96847,-1.5263 2.74049,-0.78287 4.99446,-1.41164 5.00884,-1.39727 0.0366,0.0366 2.83088,9.7826 2.83176,9.87683 5.7e-4,0.0582 -1.19902,0.41876 -4.93535,1.4833 -2.71484,0.7735 -4.96122,1.415 -4.99195,1.42557 -0.0316,0.0108 -0.0959,-0.13238 -0.14791,-0.32932 z m -13.187294,-8.70824 c 1.31824,-0.23414 1.73168,-0.32172 1.78893,-0.37897 0.053,-0.053 -0.009,-0.11599 -0.42491,-0.4308 -1.42711,-1.0805 -3.25218,-2.94406 -3.97595,-4.05984 -0.51412,-0.79256 -0.63776,-1.11483 -0.68314,-1.78058 l -0.0338,-0.49539 -3.38501,1.75306 c -1.86176,0.96419 -3.41577,1.77242 -3.45338,1.79608 -0.0463,0.0291 0.0496,0.0827 0.29699,0.16604 0.40507,0.13641 1.54084,0.69873 1.89983,0.94062 0.12694,0.0855 0.2477,0.15561 0.26836,0.15573 0.0207,1e-4 0.18318,0.0894 0.36115,0.19828 0.17798,0.10893 0.72652,0.42823 1.219,0.70956 2.77999,1.5881 3.83135,1.83304 6.12189,1.42621 z m -9.47358,-8.97867 c 0.32595,-0.19102 0.49426,-0.47355 0.51965,-0.87228 0.0369,-0.57963 -0.28711,-1.01244 -0.861,-1.15012 -0.84551,-0.20283 -1.60386,0.72379 -1.23788,1.51256 0.28691,0.61838 1.00077,0.84884 1.57923,0.50984 z m -41.30674,6.47815 c -0.87987,-1.55851 -1.61193,-2.86828 -1.62681,-2.91059 -0.0201,-0.0571 0.39164,-0.31151 1.59987,-0.9884 0.89481,-0.5013 3.78301,-2.12842 6.41821,-3.61581 l 4.79129,-2.70434 0.0813,-0.24392 c 0.21171,-0.63505 0.71624,-0.91371 1.36056,-0.75147 l 0.22244,0.056 0.38373,-0.32527 c 0.67961,-0.5761 1.99524,-1.80656 2.61073,-2.44172 l 0.59873,-0.61786 0.48223,-0.96645 c 0.39177,-0.78516 1.53721,-2.72322 2.70895,-4.58347 0.31577,-0.50132 0.62758,-0.65587 0.82682,-0.40983 0.19993,0.24692 0.0659,0.88144 -0.46065,2.18047 -0.5112,1.26122 -0.63259,1.61897 -0.61576,1.81476 0.0153,0.17773 0.0157,0.17734 0.73331,-0.6352 0.91002,-1.03043 0.9231,-1.0394 2.87213,-1.97241 0.47954,-0.22956 1.25271,-0.62231 1.71815,-0.87277 0.89458,-0.48139 1.41433,-0.68882 1.60348,-0.63993 0.15997,0.0413 0.33528,0.19492 0.3916,0.34305 0.1294,0.34037 -0.40669,0.93627 -1.41333,1.57098 -0.89935,0.56707 -1.11471,0.77618 -0.79936,0.77618 0.40504,0 1.81786,-0.50414 3.80777,-1.35875 0.15515,-0.0666 0.51111,-0.18033 0.79104,-0.25267 0.57964,-0.1498 0.8702,-0.12276 0.94866,0.0883 0.0512,0.13776 0.0288,0.20459 -0.16368,0.48862 -0.43671,0.64434 -1.15899,1.17045 -2.83258,2.06324 -1.55044,0.82709 -1.71479,0.92757 -2.53875,1.55209 -0.74435,0.56417 -1.12834,0.89319 -1.12834,0.9668 0,0.0588 0.11457,0.003 0.8719,-0.42794 0.38081,-0.21646 0.9453,-0.51649 1.25441,-0.66675 0.55007,-0.26738 0.5731,-0.27356 1.08188,-0.29045 1.45467,-0.0483 3.59798,0.18654 4.12836,0.45235 0.52001,0.26062 0.702,0.60117 0.43393,0.81203 -0.18023,0.14177 -0.78508,0.29396 -1.76978,0.44529 -1.18706,0.18244 -2.2434,0.40246 -2.51401,0.52363 -0.12644,0.0566 -0.52446,0.3153 -0.88448,0.57484 -0.36003,0.25954 -0.93702,0.65093 -1.28221,0.86975 -0.34519,0.21883 -0.71993,0.48562 -0.83276,0.59288 -0.11284,0.10725 -0.35517,0.3377 -0.53853,0.5121 -0.18335,0.1744 -0.54109,0.49303 -0.79496,0.70806 -0.46445,0.39338 -0.79688,0.77515 -0.89135,1.02361 -0.0373,0.0981 -0.0255,0.25607 0.0441,0.5881 0.1854,0.88466 0.41227,1.29655 0.83213,1.51075 0.10987,0.056 0.53903,0.17217 0.95368,0.25804 0.72697,0.15055 0.78507,0.1549 1.62581,0.12192 1.41135,-0.0554 2.74729,0.12307 3.4363,0.45901 0.44977,0.21929 1.14669,0.7269 1.33255,0.97058 0.10946,0.14351 0.14591,0.25638 0.16324,0.50558 0.0251,0.36041 -0.0308,0.50779 -0.25581,0.67489 -0.13655,0.1014 -0.22119,0.10865 -1.48735,0.12736 -2.18228,0.0323 -2.71235,0.0263 -4.05591,-0.0457 -1.53684,-0.0823 -2.51728,-0.0321 -4.03103,0.20651 -1.17519,0.18525 -2.24614,0.30524 -2.73109,0.30601 l -0.34619,5.5e-4 v 0.34824 c 0,0.65006 -0.19587,1.15355 -0.54067,1.38981 -0.39882,0.27328 -0.84116,0.24632 -1.40928,-0.0859 -0.39216,-0.22932 -1.09917,-0.92387 -1.48635,-1.46016 -0.15514,-0.2149 -0.29362,-0.39217 -0.30773,-0.39394 -0.0141,-0.002 -2.66558,1.48542 -5.89217,3.30486 -3.22659,1.81945 -5.86926,3.30808 -5.8726,3.30808 -0.003,0 -0.72595,-1.27515 -1.60582,-2.83366 z m 16.09454,-2.80802 c 0.0484,-0.17527 0.0526,-0.67926 0.006,-0.74991 -0.0381,-0.0581 -1.43727,-0.30378 -1.48101,-0.26004 -0.0438,0.0438 0.56916,0.69774 0.87573,0.93415 0.34725,0.26779 0.53924,0.29209 0.59892,0.0758 z"
       id="path826"
       inkscape:connector-curvature="0" />
  </g>
</svg>
